<svg width="20" height="19" viewBox="0 0 20 19" fill="none" xmlns="http://www.w3.org/2000/svg">
<path d="M10.2002 13.373C11.7109 13.373 12.9355 12.1484 12.9355 10.6377C12.9355 9.127 11.7109 7.90234 10.2002 7.90234C8.6895 7.90234 7.46484 9.127 7.46484 10.6377C7.46484 12.1484 8.6895 13.373 10.2002 13.373Z" fill="white"/>
<path d="M7.26804 0.868652L5.4803 2.86589H2.3835C1.3089 2.86589 0.429688 3.76464 0.429688 4.86312V16.8465C0.429688 17.945 1.3089 18.8438 2.3835 18.8438H18.014C19.0886 18.8438 19.9678 17.945 19.9678 16.8465V4.86312C19.9678 3.76464 19.0886 2.86589 18.014 2.86589H14.9172L13.1295 0.868652H7.26804ZM10.1988 15.8479C7.5025 15.8479 5.31423 13.611 5.31423 10.8548C5.31423 8.09864 7.5025 5.86174 10.1988 5.86174C12.895 5.86174 15.0833 8.09864 15.0833 10.8548C15.0833 13.611 12.895 15.8479 10.1988 15.8479Z" fill="white"/>
</svg>
