<svg width="49" height="61" viewBox="0 0 49 61" fill="none" xmlns="http://www.w3.org/2000/svg">
<path d="M0.794974 22.9559C1.60247 23.9498 2.21148 25.1453 2.6205 26.3423C3.02951 27.5392 3.24004 28.9377 3.25057 30.3376C3.2611 31.7376 3.07163 33.1391 2.68067 34.342C2.28971 35.545 1.69875 36.7495 0.906297 37.7555C-0.0831445 39.163 0.131893 41.1614 1.53937 42.1508C2.94686 43.1403 4.9453 42.9252 5.93474 41.5178C7.12267 39.9088 7.91061 38.3028 8.69554 36.2968C9.48048 34.2909 9.66543 32.2894 9.65038 30.2895C9.63534 28.2895 9.22031 26.2926 8.60528 24.2972C7.99176 22.5017 6.97825 20.7093 5.76625 19.1184C4.75575 17.726 2.7543 17.541 1.36186 18.5515C-0.0305774 19.562 -0.215528 21.5635 0.794974 22.9559Z" fill="black"/>
<path d="M11.751 17.0733C14.1795 20.8551 15.6141 25.4445 15.6502 30.2443C15.6863 35.0442 14.321 39.6546 11.9496 43.4726C10.9602 44.88 11.5752 46.8755 12.9827 47.8649C14.5902 48.8529 16.3856 48.2393 17.375 46.8318C20.3388 42.0094 22.0967 36.396 22.05 30.1962C22.0049 24.1964 20.1613 18.4101 17.1253 13.6328C16.1148 12.2403 14.1103 11.6554 12.7179 12.6659C11.3255 13.6764 10.739 15.4809 11.751 17.0733Z" fill="black"/>
<path d="M23.3056 10.9862C26.7476 16.5605 28.5972 23.1468 28.6498 30.1466C28.7025 37.1464 26.7522 43.7612 23.5944 49.3851C22.8064 50.9911 23.22 52.7881 24.8275 53.776C26.4334 54.5639 28.2304 54.1504 29.2183 52.5429C33.1685 45.913 35.3113 38.2967 35.2496 30.0969C35.188 21.8972 32.9309 14.3139 28.8813 7.7442C28.0693 6.15026 26.0664 5.76532 24.4724 6.57733C22.88 7.58933 22.4935 9.39229 23.3056 10.9862Z" fill="black"/>
<path d="M34.86 4.89915C39.1156 12.2673 41.7802 20.8475 41.8494 30.0473C41.9186 39.247 39.5833 47.8648 35.2391 55.2977C34.4512 56.9037 34.8647 58.7006 36.4722 59.6886C38.0781 60.4765 39.8751 60.063 40.863 58.4555C45.5997 50.0196 48.3274 40.3989 48.2492 29.9991C48.171 19.5994 45.2988 10.0208 40.4358 1.65712C39.6238 0.0631795 37.6208 -0.321765 36.0269 0.490247C34.4329 1.30226 34.048 3.30521 34.86 4.89915Z" fill="black"/>
</svg>
