<svg width="21" height="17" viewBox="0 0 21 17" fill="none" xmlns="http://www.w3.org/2000/svg">
<path d="M6.30004 13.6C5.14503 13.6 4.21052 14.365 4.21052 15.3C4.21052 16.235 5.14503 17 6.30004 17C7.45504 17 8.40005 16.235 8.40005 15.3C8.40005 14.365 7.45504 13.6 6.30004 13.6ZM0 0V1.7H2.10001L5.88003 8.1515L4.46253 10.234C4.29452 10.472 4.20002 10.7525 4.20002 11.05C4.20002 11.985 5.14503 12.75 6.30004 12.75H18.9001V11.05H6.74104C6.59404 11.05 6.47854 10.9565 6.47854 10.8375L6.51004 10.7355L7.45504 9.35H15.2776C16.0651 9.35 16.7581 9.0015 17.1151 8.4745L20.8741 2.958C20.9581 2.839 21.0001 2.6945 21.0001 2.55C21.0001 2.0825 20.5276 1.7 19.9501 1.7H4.42053L3.43352 0H0ZM16.8001 13.6C15.6451 13.6 14.7106 14.365 14.7106 15.3C14.7106 16.235 15.6451 17 16.8001 17C17.9551 17 18.9001 16.235 18.9001 15.3C18.9001 14.365 17.9551 13.6 16.8001 13.6Z" fill="white"/>
</svg>
