<svg width="587" height="560" viewBox="0 0 587 560" fill="none" xmlns="http://www.w3.org/2000/svg">
<path fill-rule="evenodd" clip-rule="evenodd" d="M296.254 413.927C289.408 413.949 282.756 414.183 275.891 414.206C247.985 414.299 219.822 414.165 191.815 413.032C183.9 412.713 181.924 412.721 174.042 412.225C169.388 412.206 155.41 411.822 156.109 405.481C156.418 393.673 159.341 381.912 160.262 370.135C162.029 347.995 163.533 325.162 172.405 304.454C174.459 299.509 178.87 296.275 183.236 293.366C187.614 290.229 188.689 286.746 192.73 283.202C193.584 282.452 198.437 282.147 201.047 280.247C204.847 277.48 206.732 272.95 208.15 272.179C209.193 271.612 209.174 267.697 211.265 266.312C214.071 264.453 223.012 263.07 226.265 262.812C229.387 262.563 234.818 263.085 237.748 264.228C242.633 266.136 244.582 269.774 246.733 274.461C275.158 283.249 301.138 298.13 309.207 328.145C316.165 353.318 316.419 380.308 313.731 406.126C313.194 408.013 313.57 410.972 311.94 412.225C317.607 412.55 297.023 413.719 296.254 413.927Z" fill="white"/>
<path fill-rule="evenodd" clip-rule="evenodd" d="M166.968 389.07C167.506 388.802 168.067 388.495 168.681 388.473C169.736 388.436 169.738 386.795 168.681 386.831C167.76 386.864 166.951 387.248 166.14 387.653C165.194 388.125 166.026 389.54 166.968 389.07ZM168.681 342.857C167.962 342.857 167.236 342.948 166.683 343.452C166.354 343.752 166.38 344.31 166.683 344.613C167.007 344.937 167.516 344.911 167.844 344.613C167.737 344.71 167.843 344.614 167.881 344.592C167.891 344.587 167.896 344.584 167.898 344.582C167.906 344.58 167.915 344.578 167.928 344.574C168.014 344.553 168.099 344.532 168.185 344.516C168.187 344.52 168.368 344.504 168.411 344.502C168.501 344.499 168.591 344.499 168.681 344.499C169.127 344.498 169.502 344.123 169.502 343.678C169.502 343.234 169.125 342.857 168.681 342.857ZM176.399 361.274C176.634 362.305 178.216 361.865 177.981 360.836C177.64 359.342 177.702 357.808 177.981 356.307C178.173 355.274 176.591 354.835 176.399 355.872C176.064 357.672 175.989 359.478 176.399 361.274ZM178.472 302.268C179.694 301.978 180.903 301.943 182.153 301.943C183.211 301.942 183.209 300.3 182.153 300.301C180.759 300.301 179.397 300.361 178.035 300.685C177.006 300.929 177.445 302.512 178.472 302.268ZM182.567 342.259C183.276 341.904 183.985 341.55 184.694 341.195C185.64 340.722 184.808 339.306 183.866 339.777L181.739 340.841C180.793 341.314 181.625 342.73 182.567 342.259ZM182.863 374.59C183.762 375.888 185.026 376.693 186.544 377.096C187.567 377.366 188 375.782 186.98 375.512C185.895 375.225 184.931 374.7 184.28 373.763C183.681 372.898 182.259 373.72 182.863 374.59ZM188.534 316.785C188.777 316.33 189.143 316.138 189.598 316.128C190.654 316.104 190.654 314.462 189.598 314.486C188.562 314.51 187.612 315.03 187.117 315.957C186.618 316.889 188.036 317.717 188.534 316.785ZM198.944 327.945C199.238 328.266 199.809 328.258 200.105 327.945C200.286 327.754 200.438 327.54 200.558 327.306C200.603 327.217 200.646 327.127 200.696 327.04C200.719 327.002 200.744 326.964 200.769 326.927C200.778 326.919 200.795 326.901 200.814 326.881C201.129 326.548 201.121 326.055 200.814 325.72C200.52 325.4 199.949 325.408 199.653 325.72C199.472 325.911 199.32 326.125 199.2 326.359C199.155 326.448 199.112 326.539 199.061 326.625C199.039 326.664 199.014 326.702 198.989 326.739C198.98 326.746 198.963 326.765 198.944 326.784C198.629 327.118 198.637 327.61 198.944 327.945ZM199.819 352.189C200.888 352.677 202.061 352.677 203.129 352.189C203.534 352.004 203.63 351.418 203.424 351.064C203.184 350.656 202.704 350.587 202.301 350.772C201.816 350.993 201.132 350.993 200.648 350.772C200.243 350.587 199.767 350.652 199.525 351.064C199.317 351.42 199.416 352.004 199.819 352.189ZM202.735 369.35C202.919 369.783 203.315 370.015 203.779 370.033C204.238 370.049 204.58 369.642 204.599 369.211C204.612 368.933 204.461 368.695 204.245 368.548C204.245 368.532 204.245 368.518 204.245 368.501C204.244 368.042 203.869 367.7 203.424 367.682C202.981 367.662 202.603 368.072 202.603 368.501C202.604 368.792 202.621 369.079 202.735 369.35ZM206.969 396.63C208.279 396.65 209.559 396.963 210.869 396.984C211.927 397.002 211.924 395.361 210.869 395.342C209.559 395.322 208.279 395.009 206.969 394.989C205.911 394.97 205.914 396.613 206.969 396.63ZM212.416 291.418C213.183 292.148 214.13 292.508 215.064 292.965C216.01 293.427 216.841 292.011 215.892 291.547C215.101 291.16 214.225 290.875 213.576 290.257C212.811 289.528 211.649 290.688 212.416 291.418ZM214.474 310.342C215.012 310.073 215.573 309.766 216.187 309.745C217.242 309.708 217.243 308.066 216.187 308.103C215.265 308.135 214.456 308.519 213.646 308.924C212.699 309.397 213.531 310.812 214.474 310.342ZM224.34 386.294C224.583 385.839 224.95 385.646 225.404 385.635C226.461 385.613 226.461 383.97 225.404 383.994C224.368 384.019 223.418 384.539 222.923 385.465C222.425 386.398 223.842 387.226 224.34 386.294ZM227.757 350.641C228.084 350.342 228.061 349.785 227.757 349.48C227.403 349.126 227.048 348.771 226.693 348.417C226.369 348.092 225.861 348.116 225.533 348.417C225.206 348.717 225.229 349.273 225.533 349.578C225.888 349.932 226.242 350.288 226.597 350.641C226.921 350.967 227.429 350.942 227.757 350.641ZM231.786 406.204C232.97 406.178 234.08 405.838 235.195 405.466C236.193 405.135 235.763 403.548 234.758 403.884C233.789 404.205 232.816 404.539 231.786 404.563C230.729 404.588 230.729 406.229 231.786 406.204ZM237.103 371.096C238.173 371.066 239.06 370.521 239.811 369.791C240.57 369.055 239.408 367.893 238.65 368.632C238.221 369.049 237.725 369.437 237.103 369.455C236.048 369.484 236.047 371.125 237.103 371.096ZM233.801 325.946C233.788 326.383 233.604 326.851 233.333 327.139C232.607 327.907 233.766 329.07 234.493 328.3C235.092 327.665 235.417 326.815 235.442 325.946C235.473 324.887 233.831 324.892 233.801 325.946ZM246.32 290.188C246.664 289.515 247.114 288.726 247.799 288.355C248.728 287.85 247.899 286.433 246.97 286.937C246.04 287.442 245.374 288.438 244.903 289.359C244.423 290.299 245.84 291.129 246.32 290.188ZM248.448 307.262C248.829 307.251 249.207 307.186 249.574 307.086C249.731 307.044 249.886 306.995 250.043 306.952C250.11 306.934 250.396 306.898 250.22 306.907C250.665 306.884 251.041 306.551 251.041 306.087C251.041 305.66 250.664 305.242 250.22 305.266C249.611 305.298 249.057 305.603 248.448 305.62C247.392 305.65 247.392 307.292 248.448 307.262ZM253.766 333.505H255.538C256.596 333.505 256.594 331.863 255.538 331.863H253.766C252.708 331.863 252.71 333.505 253.766 333.505ZM255.833 406.093C256.371 406.361 257.004 406.617 257.44 407.028C258.207 407.754 259.37 406.595 258.6 405.867C258.046 405.342 257.337 405.013 256.662 404.675C256.264 404.476 255.775 404.565 255.539 404.97C255.325 405.334 255.437 405.895 255.833 406.093ZM259.794 385.349C259.863 385.328 259.935 385.316 260.005 385.306C260.284 385.269 260.576 385.282 260.856 385.282C261.914 385.282 261.912 383.638 260.856 383.64C260.024 383.64 259.158 383.653 258.503 384.234C258.171 384.531 258.203 385.097 258.503 385.396C258.829 385.723 259.333 385.69 259.664 385.396C259.629 385.428 259.748 385.361 259.794 385.349ZM260.856 357.448C260.617 356.956 260.614 356.637 260.613 356.09C260.612 355.032 258.971 355.034 258.972 356.09C258.972 356.883 259.09 357.558 259.438 358.278C259.633 358.679 260.201 358.782 260.561 358.573C260.964 358.337 261.049 357.847 260.856 357.448ZM265.601 318.936C266.553 319.26 267.403 319.718 268.241 320.272C269.126 320.856 269.947 319.433 269.07 318.854C268.113 318.222 267.123 317.722 266.038 317.352C265.034 317.011 264.607 318.597 265.601 318.936ZM271.137 291.304C271.844 291.323 272.574 291.595 273.204 291.901C274.152 292.361 274.983 290.945 274.033 290.483C273.132 290.046 272.148 289.69 271.137 289.662C270.079 289.632 270.083 291.274 271.137 291.304ZM273.619 365.067C273.897 365.081 274.135 364.93 274.282 364.713C274.297 364.713 274.313 364.713 274.328 364.713C274.788 364.713 275.128 364.336 275.148 363.891C275.168 363.45 274.757 363.071 274.328 363.071C274.038 363.071 273.751 363.09 273.481 363.202C273.047 363.387 272.816 363.783 272.798 364.247C272.781 364.707 273.188 365.048 273.619 365.067ZM277.655 308.297C278.663 308.626 279.091 307.04 278.091 306.714C276.918 306.33 275.719 306.033 274.546 305.649C273.538 305.32 273.11 306.906 274.11 307.233C275.283 307.616 276.482 307.913 277.655 308.297ZM281.336 339.286C281.648 340.294 283.232 339.861 282.918 338.849C282.616 337.873 282.594 336.89 282.593 335.876C282.593 334.818 280.951 334.819 280.952 335.876C280.953 337.03 280.991 338.175 281.336 339.286ZM292.309 376.402C292.369 376.811 292.693 377.106 293.117 377.124C293.549 377.145 293.954 376.734 293.938 376.305C293.908 375.477 293.234 374.804 292.408 374.773C291.949 374.757 291.607 375.164 291.588 375.595C291.569 376.014 291.919 376.341 292.309 376.402ZM297.862 329.22C298.73 329.51 299.656 329.785 300.336 330.428C301.105 331.153 302.267 329.994 301.497 329.267C300.6 328.42 299.447 328.02 298.299 327.637C297.293 327.301 296.866 328.887 297.862 329.22ZM301.626 361.115C301.865 361.522 302.347 361.595 302.749 361.41C303.287 361.158 303.882 361.168 304.462 361.166C305.52 361.166 305.518 359.525 304.462 359.525C303.567 359.525 302.741 359.61 301.92 359.99C301.517 360.18 301.419 360.759 301.626 361.115ZM303.753 399.821C304.212 399.839 304.554 399.432 304.573 399.001C304.592 398.582 304.243 398.255 303.852 398.194C303.792 397.785 303.468 397.49 303.044 397.47C302.612 397.451 302.207 397.862 302.223 398.291C302.253 399.117 302.927 399.792 303.753 399.821ZM154.226 406.03C154.505 405.025 155.143 404.215 155.625 403.312C155.787 403.007 155.843 402.818 155.93 402.597C156.049 402.835 156.28 403.014 156.628 403.014C157.294 403.014 158.073 402.971 158.695 403.256C159.1 403.441 159.576 403.376 159.818 402.961C160.026 402.605 159.927 402.023 159.524 401.838C158.607 401.419 157.622 401.372 156.628 401.37C156.382 401.37 156.196 401.462 156.065 401.598C155.685 396.394 155.694 391.185 156.054 385.977C156.437 380.411 157.32 374.956 158.243 369.461C158.69 366.797 159.271 364.107 159.158 361.394C159.045 358.699 157.89 356.187 158.709 353.485C159.037 352.401 159.599 351.408 159.964 350.336C160.356 349.183 160.321 348.044 160.143 346.85C159.775 344.418 159.166 342.015 160.141 339.64C160.571 338.587 161.269 337.647 161.605 336.56C162.024 335.207 161.966 333.711 162.036 332.309C162.178 329.481 162.215 326.635 162.449 323.813C162.553 322.549 162.781 321.35 163.3 320.19C163.799 319.074 164.539 318.058 164.869 316.874C165.198 315.708 165.226 314.479 165.403 313.287C165.588 312.027 165.877 310.785 166.267 309.574C167.773 304.887 170.532 300.675 173.792 297.024C177.257 293.144 181.399 290.221 185.796 287.498C188.108 286.066 190.42 284.633 192.73 283.201C192.779 283.47 192.951 283.717 193.279 283.827C194.147 284.117 195.073 284.392 195.753 285.034C196.522 285.76 197.684 284.6 196.914 283.873C196.111 283.115 195.102 282.716 194.075 282.365C195.127 281.701 196.191 281.014 197.379 280.631C198.42 280.294 199.954 280.588 200.798 279.824C201.46 279.223 201.669 278.109 201.924 277.292C202.242 276.278 202.517 275.209 202.921 274.224C203.196 273.55 203.596 272.904 204.1 272.383C204.322 271.529 204.728 270.749 205.446 270.275C207.326 269.031 209.634 270.267 210.46 272.04C211.144 272.038 211.864 272.188 212.528 272.229C213.895 272.315 215.263 272.354 216.632 272.35C219.309 272.342 221.988 272.167 224.643 271.812C229.391 271.176 233.997 269.893 238.664 268.894C238.691 268.832 238.721 268.771 238.758 268.709C239.764 267.022 242.269 267.307 243.847 267.946C244.523 268.219 245.213 268.563 245.6 269.204C246.011 269.481 246.366 269.817 246.602 270.172C247.09 270.905 247.467 272.383 248.458 272.506C249.111 272.586 249.773 272.461 250.436 272.555C251.265 272.67 252.008 272.961 252.773 273.294C258.6 275.824 264.623 278.638 270.946 279.619C272.429 279.849 273.939 280.087 275.228 280.918C276.274 281.593 277.083 282.521 277.946 283.401C278.787 284.259 279.481 284.639 280.681 284.793C282.138 284.98 283.399 285.382 284.464 286.441C285.348 287.321 285.925 288.446 286.618 289.468C287.324 290.51 288.36 291.097 289.435 291.703C291.977 293.135 294.345 294.865 296.407 296.94C300.75 301.316 303.38 306.939 306.031 312.419C308.897 318.345 311.576 324.344 313.434 330.674C315.256 336.888 316.34 343.281 316.841 349.732C317.367 356.505 317.443 363.301 317.882 370.076C318.099 373.46 318.266 376.848 318.435 380.234C318.6 383.579 318.84 386.931 318.801 390.28C318.726 396.756 317.432 403.251 315.169 409.314C314.603 410.821 313.979 412.31 313.312 413.774C312.726 415.061 310.727 414.917 310.099 413.774C309.955 413.512 309.843 413.241 309.748 412.967C308.107 412.981 306.449 412.853 304.818 413.005C301.938 413.274 299.051 413.424 296.163 413.603C290.447 413.957 284.721 414.193 279.003 414.52C278.448 414.551 277.893 414.583 277.339 414.616C281.414 402.001 280.885 388.361 281.53 375.241C281.582 374.182 279.94 374.188 279.888 375.241C279.241 388.418 279.792 402.092 275.574 414.728C273.937 414.84 272.302 414.974 270.673 415.173C269.356 415.33 268.033 415.517 266.703 415.452C265.195 415.381 263.722 415.035 262.251 414.736C259.578 414.191 257.003 414.437 254.32 414.772C251.45 415.13 248.569 415.33 245.68 415.456C234.113 415.962 222.468 416.424 210.906 415.651C208.107 415.464 205.315 415.202 202.535 414.844C199.671 414.478 196.838 413.859 193.976 413.507C191.155 413.164 188.562 414.109 185.773 414.284C182.93 414.461 180.01 413.869 177.194 413.528C176.275 413.416 175.355 413.308 174.435 413.2C175.619 405.08 176.293 396.896 176.947 388.717C177.031 387.661 175.389 387.671 175.306 388.717C174.657 396.833 173.998 404.954 172.815 413.011C167.938 412.444 163.055 411.87 158.228 410.986C156.854 410.736 155.488 410.327 154.665 409.1C154.056 408.191 153.932 407.077 154.226 406.03Z" fill="url(#paint0_linear)"/>
<path fill-rule="evenodd" clip-rule="evenodd" d="M191.085 233.789C191.527 229.907 190.955 221.793 190.917 221.3C190.675 218.184 192.135 205.878 194.894 207.012C199.523 203.346 205.688 202.537 211.453 202.15C223.428 201.347 236.167 203.191 245.414 211.252C249.987 215.439 254.438 221.528 254.08 227.868C258.235 233.877 264.092 242.121 258.916 249.146C257.156 251.391 254.36 252.226 252.149 253.926C247.703 257.514 244.913 262.662 240.425 266.228C228.534 276.917 208.342 279.15 196.659 266.992C187.625 258.187 189.086 245.014 190.675 233.789C191.743 226.243 190.224 241.362 191.085 233.789Z" fill="white"/>
<path fill-rule="evenodd" clip-rule="evenodd" d="M227.45 185.688C224.248 185.042 220.959 184.64 217.689 184.761L217.436 184.771C214.976 184.869 211.859 185.086 209.713 186.518C209.589 186.394 209.391 186.33 209.21 186.416C206.66 187.634 203.854 188.515 201.168 189.39C198.494 190.261 195.72 190.836 192.918 191.067C191.864 191.155 190.961 192.294 191.629 193.315C191.788 193.558 191.942 193.804 192.097 194.051C191.839 194.024 191.581 193.996 191.324 193.97C190.476 193.885 189.629 194.79 189.679 195.616C189.71 196.135 189.766 196.648 189.849 197.156C189.526 197.149 189.205 197.197 188.895 197.328C187.324 197.992 187.434 199.863 187.551 201.287C187.714 203.263 188.453 205.356 189.824 206.835C188.8 207.899 188.075 209.17 187.643 210.679C187.329 211.781 187.154 212.955 187.241 214.102L187.268 214.446C187.375 215.691 187.586 217.069 188.482 217.965C188.942 218.427 189.508 218.595 190.047 218.541C189.721 221.41 189.512 224.296 189.315 227.171L189.222 228.545C188.783 235.191 188.453 241.879 188.539 248.535C188.62 254.756 189.848 260.794 193.662 265.845C197.136 270.444 202.123 273.834 207.765 275.123C210.806 275.819 213.91 275.868 216.987 275.425C218.479 275.209 219.98 274.879 221.396 274.357C222.963 273.779 224.09 272.927 225.144 271.65C225.643 271.045 225.403 269.756 224.41 269.877C222.908 270.059 221.536 270.279 220.096 270.723L219.89 270.789C218.456 271.248 216.971 271.591 215.471 271.737C212.4 272.034 209.281 271.735 206.339 270.803C201.548 269.284 197.423 265.9 194.778 261.648C191.639 256.607 191.284 250.885 191.33 245.09C191.378 238.73 191.585 232.367 191.923 226.014L191.98 224.955C192.159 221.686 192.331 218.414 192.482 215.143C192.53 214.117 192.602 213.082 192.731 212.058C193.915 211.364 194.975 210.408 195.667 209.228C197.056 209.803 198.516 210.217 199.86 210.548C202.974 211.314 206.205 211.5 209.374 211.02C210.229 211.373 211.101 211.684 211.986 211.951C212.225 212.057 212.464 212.161 212.703 212.263C214.837 213.177 217.002 213.95 219.254 214.517L219.807 214.655C220.993 214.947 222.28 215.235 223.542 215.326C223.749 215.405 223.973 215.473 224.217 215.533C225.366 215.812 226.558 215.9 227.735 215.802C228.882 215.705 229.711 214.546 229.079 213.46C228.618 212.668 228.152 211.878 227.682 211.09C229.317 211.771 231.006 212.337 232.708 212.818C234.428 213.302 236.172 213.71 237.918 214.086C238.851 214.285 239.789 214.461 240.72 214.661C241.387 214.802 242.411 214.876 242.954 215.315C243.555 215.798 243.726 216.922 243.954 217.616C244.253 218.517 244.534 219.422 244.791 220.337C245.301 222.164 245.72 224.017 246.044 225.889C246.368 227.762 246.586 229.654 246.707 231.553C246.828 233.449 246.775 235.358 246.969 237.246C247.074 238.248 248.149 238.763 248.943 238.063C249.036 237.981 249.13 237.898 249.223 237.814L249.361 237.687C250.041 237.071 250.699 236.419 251.243 235.684C251.341 235.549 251.436 235.407 251.524 235.263C251.538 235.263 251.551 235.259 251.565 235.249L251.715 235.136C253.375 233.9 256.147 232.29 257.765 234.342C258.28 234.996 258.544 235.828 258.763 236.632L259.148 238.069C259.397 239.008 259.63 239.951 259.767 240.911C260.077 243.062 259.921 245.541 258.442 247.265C257.851 247.955 257.036 248.447 256.128 248.577C255.621 248.646 255.12 248.56 254.618 248.497C254.107 248.433 253.615 248.535 253.104 248.486C252.291 248.406 251.936 249.379 252.24 249.991C252.404 250.319 252.597 250.602 252.816 250.842C252.64 250.994 252.472 251.158 252.31 251.331C251.83 251.485 251.399 251.815 251.077 252.252C250.816 252.605 250.681 252.989 250.658 253.393C250.629 253.494 250.605 253.597 250.582 253.701L250.142 254.416C250.045 254.573 249.949 254.727 249.852 254.879C248.732 256.644 247.488 258.138 245.943 259.546C244.456 260.901 242.842 262.114 241.444 263.566L241.28 263.739C239.977 265.112 238.604 266.774 239.114 268.771C239.245 269.284 239.961 269.653 240.429 269.307C241.932 268.19 242.69 266.421 243.966 265.067C245.279 263.671 246.733 262.417 248.051 261.026C249.296 259.712 250.279 258.224 251.019 256.587C251.315 256.913 251.745 257.145 252.342 257.235C253.368 257.389 254.325 256.788 254.772 255.899C255.059 256.026 255.352 256.141 255.648 256.232C257.203 256.708 258.181 254.978 257.595 253.699C257.281 253.014 256.889 252.418 256.403 251.918C257.923 251.708 259.47 250.922 260.469 249.941C262.976 247.476 263.321 243.772 262.756 240.478C262.457 238.732 261.94 236.965 261.269 235.325C261.152 235.04 261.027 234.752 260.89 234.469C260.966 234.467 261.043 234.434 261.093 234.371C261.546 233.751 262.098 233.244 262.435 232.55C262.744 231.914 263.089 231.27 263.333 230.607C263.836 229.25 264.082 227.719 264.246 226.285C264.584 223.348 264.453 220.43 264.004 217.511C263.239 212.541 261.391 207.784 258.668 203.61C258.816 203.532 258.958 203.438 259.091 203.327L259.156 203.27L259.262 203.174C260.039 202.47 259.972 201.152 259.262 200.44L259.038 200.215C258.754 199.933 258.509 199.709 258.051 199.402C257.983 199.357 257.914 199.314 257.844 199.274C258.084 198.831 258.167 198.312 258 197.739C257.418 195.745 254.549 195.816 252.732 196.685C250.72 194.89 248.49 193.331 246.073 192.069C240.316 189.064 233.806 186.969 227.45 185.688ZM257.209 238.206C256.134 237.855 254.706 238.592 253.74 239.036C252.515 239.598 251.472 240.429 250.463 241.307C249.96 241.747 249.87 242.465 249.995 243.079C250.008 243.14 250.02 243.204 250.035 243.267C250.168 243.922 250.898 244.437 251.544 244.419C252.896 244.382 253.541 243.214 254.306 242.225C254.396 242.385 254.509 242.533 254.649 242.643L254.743 242.717C255.061 242.959 255.411 243.153 255.83 243.134C256.128 243.119 256.413 243.044 256.675 242.906C257.332 242.559 257.621 241.71 257.443 241.018C257.332 240.583 257.078 240.242 256.745 240.006L256.869 239.921C257.134 239.737 257.376 239.542 257.564 239.255L257.607 239.187H257.591C257.796 238.834 257.662 238.354 257.209 238.206Z" fill="black"/>
<path fill-rule="evenodd" clip-rule="evenodd" d="M206.572 258.859C208.084 259.297 209.706 259.336 211.247 258.884C212.644 258.474 214.079 257.571 215.107 256.376C216.021 255.315 216.612 254.026 216.589 252.649C216.586 252.492 216.53 252.361 216.444 252.259C216.351 252.149 216.221 252.074 216.081 252.041C215.938 252.008 215.787 252.02 215.658 252.078C215.541 252.131 215.441 252.221 215.379 252.353C215.221 252.561 215.063 252.765 214.905 252.964C213.635 254.534 212.404 255.707 210.493 256.128C209.456 256.356 208.421 256.255 207.471 255.906C206.454 255.533 205.534 254.878 204.814 254.039C204.489 253.66 204.104 253.505 203.728 253.502C203.302 253.499 202.881 253.697 202.564 254.014C202.252 254.325 202.044 254.747 202.025 255.19C202.008 255.578 202.135 255.983 202.471 256.345C203.58 257.536 205.018 258.409 206.572 258.859ZM206.619 239.2C205.07 240.142 202.709 242.339 204.376 244.674C206.338 246.733 209.162 244.372 210.554 243.304C211.845 242.477 213.295 244.605 212.097 245.571C202.04 253.02 197.958 239.446 205.836 238.092C206.703 237.943 207.025 238.908 206.619 239.2ZM221.112 235.055C221.61 234.736 222.195 234.627 222.845 234.922C223.352 235.153 224.242 235.923 224.861 236.934C225.284 237.626 225.585 238.437 225.522 239.283C225.508 239.479 225.58 239.624 225.695 239.731C225.785 239.816 225.916 239.878 226.069 239.897C226.199 239.914 226.345 239.899 226.463 239.862C226.688 239.791 226.807 239.645 226.852 239.526C227.286 238.374 227.099 237.089 226.613 235.929C225.958 234.364 224.767 233.053 223.987 232.631C222.651 231.907 221.076 231.874 219.739 232.611C218.601 233.238 217.889 234.251 217.182 235.283C217.031 235.503 216.882 235.721 216.728 235.935C216.418 236.363 216.388 236.789 216.507 237.153C216.64 237.557 216.978 237.898 217.402 238.077C217.792 238.242 218.246 238.265 218.648 238.096C218.987 237.952 219.299 237.673 219.496 237.2C219.828 236.403 220.38 235.523 221.112 235.055ZM195.822 236.829C196.163 237.007 196.43 237.06 196.808 236.947C197.018 236.884 197.224 236.764 197.386 236.602C197.547 236.441 197.662 236.242 197.707 236.02C197.818 235.474 198.117 234.962 198.543 234.629C198.907 234.344 199.366 234.193 199.876 234.278C200.426 234.37 200.95 234.723 201.31 235.139C201.431 235.278 201.526 235.436 201.621 235.593C201.799 235.887 201.971 236.16 202.216 236.375C202.309 236.457 202.45 236.514 202.585 236.514C202.64 236.514 202.696 236.505 202.75 236.488C203.297 235.939 203.402 235.522 203.385 235.108C203.366 234.675 203.195 234.236 202.919 233.826C202.271 232.866 201.041 232.078 200.211 231.899C199.075 231.655 197.946 231.948 197.04 232.583C196.109 233.237 195.419 234.251 195.204 235.395C195.152 235.67 195.174 235.967 195.279 236.225C195.382 236.477 195.56 236.692 195.822 236.829ZM218.605 224.81C219.287 225.475 220.094 225.578 220.911 225.67C221.365 225.721 221.727 225.763 222.084 225.843C223.064 226.064 224.032 226.398 224.916 226.878C225.84 227.379 226.847 227.984 227.571 228.76C227.743 228.944 227.905 229.138 228.068 229.332C228.216 229.508 228.359 229.679 228.509 229.843C228.682 230.032 228.846 230.229 229.01 230.426C229.11 230.593 229.13 230.634 229.151 230.676C229.181 230.74 229.217 230.812 229.258 230.889C229.313 230.994 229.379 231.109 229.447 231.214C229.56 231.405 229.621 231.457 229.674 231.481C229.761 231.519 229.844 231.539 229.925 231.528C230 231.519 230.071 231.482 230.141 231.423C230.492 231.127 230.595 230.641 230.584 230.125C230.568 229.343 230.28 228.477 230.014 227.944C229.395 226.707 228.538 225.42 227.506 224.497C226.33 223.443 225.042 222.644 223.563 222.094C222.644 221.753 221.58 221.439 220.579 221.478C219.858 221.507 219.17 221.721 218.602 222.256C218.253 222.585 218.086 223.052 218.086 223.519C218.086 223.995 218.26 224.474 218.605 224.81ZM194.435 230.899C194.478 230.97 194.538 231.019 194.605 231.048C194.675 231.079 194.753 231.088 194.828 231.075C194.903 231.063 194.974 231.029 195.031 230.977C195.084 230.927 195.126 230.862 195.144 230.781C195.597 228.791 196.476 227.311 198.353 226.356C199.277 225.886 200.338 225.588 201.343 225.35C201.635 225.281 201.944 225.236 202.255 225.191C203.229 225.049 204.21 224.885 204.845 224.098C205.228 223.624 205.388 223.017 205.298 222.462C205.212 221.939 204.907 221.46 204.352 221.173C202.971 220.459 201.254 221.16 199.859 221.757C199.756 221.801 199.654 221.845 199.555 221.887C198.191 222.463 196.947 223.223 195.924 224.31C195.113 225.173 194.361 226.448 194.058 227.76C193.806 228.851 193.866 229.965 194.435 230.899Z" fill="black"/>
<path fill-rule="evenodd" clip-rule="evenodd" d="M202.274 262.174C204.184 260.471 206.326 257.048 209.071 259.756C209.75 260.522 210.025 262.237 211.063 262.574C212.441 263.021 213.808 261.562 214.277 260.442C216.2 254.216 208.253 252.508 203.726 253.514C201.515 254.422 199.886 258.079 199.787 259.988C199.723 261.271 200.809 263.157 202.274 262.174ZM187.859 252.577C187.878 252.495 187.904 252.42 187.935 252.352C188.78 252.032 189.449 252.358 189.862 252.967C189.848 253.118 189.803 253.271 189.775 253.422C190.094 254.093 190.381 254.925 190.813 255.505C190.899 255.512 190.987 255.503 191.072 255.478C198.235 256.227 194.738 248.73 202.003 246.868C207.619 245.941 217.769 247.003 220.418 252.85C222.507 262.189 233.131 255.682 236.619 250.824C240.341 246.404 242.748 241.002 245.068 235.761C245.558 234.652 247.089 235.445 246.922 236.509C249.067 240.813 248.996 245.983 249.527 250.698C250.43 260.104 251.311 273.296 242.574 279.04C231.19 291.911 202.763 296.453 189.633 284.627C185.088 274.852 185.648 262.926 187.859 252.577Z" fill="url(#paint1_linear)"/>
<path fill-rule="evenodd" clip-rule="evenodd" d="M195.336 223.938C190.521 223.938 187.773 224.973 186.766 225.054L186.735 225.056C186.316 225.083 185.941 225.118 185.547 225.271C184.097 225.829 183.861 227.35 184.707 228.308C184.766 230.292 184.505 232.609 184.953 234.599C185.505 242.986 189.448 244.402 191.69 244.918C192.815 245.178 194.149 245.281 195.344 245.007C197.383 244.931 199.399 244.293 201.124 243.181C203.527 241.631 205.311 239.249 205.89 236.421C206.164 235.074 206.292 233.671 206.143 232.301L206.121 232.113C206.902 231.739 207.807 231.668 208.739 231.635C209.185 231.619 209.624 231.605 210.051 231.624C210.468 231.671 210.88 231.733 211.293 231.817C211.745 231.954 212.171 232.178 212.564 232.534L212.591 233.054C212.665 234.353 212.836 235.655 213.099 236.928C213.487 238.808 214.111 240.603 215.439 241.936C215.889 242.608 216.445 243.207 217.121 243.727C219.575 245.616 222.908 246.31 225.968 246.049C232.18 245.519 235.77 240.586 236.598 238.478L236.647 238.35C237.245 236.783 237.721 234.749 239.61 234.412L240.012 234.34C240.874 234.178 241.669 233.953 242.174 233.112C242.396 232.744 242.51 232.334 242.538 231.915C242.833 231.938 243.127 231.959 243.42 231.98C245.761 232.475 259.8 232.895 260.92 232.895C260.92 232.895 263.074 233.802 263.984 233.1C264.614 232.611 264.821 231.96 264.474 231.222C263.951 230.112 261.535 229.444 260.463 229.233C260.463 229.233 243.154 229.377 241.909 229.14C241.138 228.345 239.759 228.454 238.607 228.328C237.653 227.648 236.319 227.193 235.265 226.888C235.051 226.806 234.838 226.728 234.631 226.653C232.699 225.965 230.691 225.6 228.652 225.405C226.549 225.205 224.441 225.295 222.35 225.582C221.47 225.701 220.597 225.856 219.731 226.058C218.179 226.263 216.637 226.6 215.085 226.999L214.774 227.08C213.14 227.509 211.46 227.879 209.768 227.589C208.391 227.354 207.066 226.824 205.796 226.25L205.631 226.175C202.839 224.9 198.478 223.938 195.336 223.938ZM219.899 228.601C220.929 228.374 221.369 229.963 220.335 230.19C219.603 230.351 218.983 230.721 218.564 231.346L218.52 231.414C217.957 232.309 216.535 231.483 217.102 230.582C217.739 229.568 218.729 228.858 219.899 228.601ZM189.722 227.615C190.085 227.36 190.635 227.55 190.846 227.911C191.078 228.309 190.926 228.753 190.586 229.013L190.551 229.039C190.239 229.259 189.935 229.653 189.897 230.057L189.894 230.108C189.853 231.165 188.21 231.17 188.251 230.108C188.291 229.068 188.893 228.2 189.722 227.615Z" fill="url(#paint2_linear)"/>
<path fill-rule="evenodd" clip-rule="evenodd" d="M445.101 312.448C443.313 305.511 441.668 302.57 438.491 300.159C435.52 297.904 431.182 296.01 424.855 294.626C418.262 293.474 418.075 290.047 416.423 284.54C415.941 282.885 413.552 282.444 412.52 283.637C412.374 283.48 412.224 283.337 412.067 283.207C412.207 282.417 411.056 280.154 411.095 279.399C411.495 271.516 408.919 267.557 402.482 266.085C401.083 265.765 391.577 265.576 390.213 265.954C384.248 267.603 378.376 272.84 379.275 279.149C377.402 281.597 375.57 283.09 372.68 283.879C366.252 284.695 359.823 285.421 353.392 286.043C340.804 288.017 329.002 294.681 320.936 304.4C320.192 305.297 319.976 306.515 320.633 307.471C320.119 309.675 317.223 315.02 319.503 316.53C315.754 325.492 307.135 342.813 307.119 347.762C307.051 368.55 309.297 395.609 329.807 407.114C330.629 407.921 330.747 408.816 331.103 410.016C332.004 413.8 335.278 416.505 338.864 416.286C356.522 416.678 373.626 414.522 391.284 414.419C399.072 414.372 408.437 415.535 415.201 416.31C421.967 417.085 428.794 416.4 435.288 414.419C435.835 415.281 436.941 415.783 438.064 415.535C444.793 414.199 450.236 410.05 454.976 405.517C456.426 402.881 462.082 395.373 459.833 392.758C461.873 384.141 461.767 374.881 458.145 366.673C458.657 365.17 457.722 363.517 458.145 361.963C458.45 360.839 459.233 360.375 459.627 359.26C460.18 357.694 459.579 355.594 458.954 353.995C458.698 353.198 459.424 352.34 459.627 351.528C460.585 347.693 458.391 348.031 456.811 345.468C456.833 345.46 457.244 343.63 457.242 343.639C457.484 342.333 456.878 340.659 456.349 339.569C455.991 338.831 455.226 338.37 454.464 338.455C455.23 335.852 456.201 333.687 457.242 331.179C459.086 326.759 461.419 322.527 464.067 318.527C465.151 316.889 463.695 314.991 461.942 314.879C456.262 314.518 450.646 313.701 445.101 312.448Z" fill="white"/>
<path fill-rule="evenodd" clip-rule="evenodd" d="M427.128 227.933C426.64 221.623 427.395 215.01 424.963 209.013C420.722 199.062 408.833 195.745 399.614 191.956C395.921 190.865 383.495 190.712 379.172 189.268C369.385 185.998 367.047 182.102 359.272 188.328C357.958 189.391 357.136 190.547 356.538 192.126L356.563 192.133C356.392 192.792 356.575 193.448 356.961 193.95C353.589 197.398 352.178 202.566 353.909 207.155C359.554 219.097 359.288 225.554 357.47 238.393C355.094 250.378 360.522 254.756 369.511 261.277C369.145 261.987 369.068 262.931 369.546 263.557C379.94 278.169 399.541 285.146 416.334 277.729C423.151 274.694 426.193 267.433 427.93 260.88C429.953 253.544 430.576 245.813 428.928 238.339C428.263 234.883 427.399 231.451 427.128 227.933Z" fill="white"/>
<path fill-rule="evenodd" clip-rule="evenodd" d="M367.168 158.028C368.429 157.839 369.381 158.622 369.835 159.726L369.859 159.785C370.006 160.161 370.166 160.526 370.341 160.885C373.499 159.336 378.004 159.734 380.003 162.872C381.429 165.113 380.558 167.772 380.022 170.149L379.668 171.715C380.351 172.149 380.864 172.927 380.841 173.732L380.837 173.794L380.695 175.977C381.15 175.516 381.565 175.013 381.937 174.477C382.194 174.007 382.47 173.546 382.767 173.098C384.518 170.465 388.447 172.753 387.003 175.573C386.725 176.117 386.413 176.632 386.08 177.129C385.702 177.861 385.393 178.615 385.155 179.388C385.838 179.686 386.363 180.347 386.418 181.344C386.548 183.674 385.323 185.617 383.379 186.838C382.808 187.197 382.216 187.267 381.681 187.134C381.585 187.261 381.492 187.388 381.402 187.518C382.177 188.148 382.877 188.866 383.477 189.662C385.287 189.391 387.107 189.264 388.927 189.26C391.15 188.17 393.814 188.193 396.204 188.601C397.743 188.864 399.22 189.375 400.735 189.742C402.329 190.128 403.95 190.142 405.565 190.405C407.601 190.735 409.386 191.675 410.507 193.176C411.741 193.213 413.037 193.718 414.113 194.403C416.616 196 419.103 197.619 421.601 199.226C422.559 199.843 422.917 200.828 422.742 201.926L422.729 201.996L422.646 202.452L422.843 202.732C423.606 203.812 424.438 204.942 424.932 206.134C425.847 207.453 426.675 208.837 427.407 210.263C428.393 212.18 429.209 214.212 429.76 216.297C429.898 216.824 430.035 217.356 430.126 217.893C430.254 218.653 430.055 219.242 429.947 219.97C429.811 220.894 429.762 221.83 429.618 222.755C429.522 223.369 429.001 223.67 428.454 223.687C428.66 225.249 428.808 226.821 428.951 228.38C429.148 230.609 429.284 232.844 429.402 235.079C430.004 235.955 431.236 236.649 432.127 236.889C433.362 237.22 434.653 236.86 435.818 236.44C436.551 236.175 437.153 237.097 436.795 237.712C435.672 239.645 433.272 239.637 431.454 238.782C430.685 238.42 430.01 237.897 429.51 237.216C429.54 237.864 429.573 238.513 429.605 239.163L429.636 239.752C430.006 246.634 430.805 253.753 429.512 260.566C427.273 272.369 417.509 281.356 405.581 282.054C399.323 282.42 394.111 280.571 391.518 279.539C388.927 278.508 389.934 276.404 391.734 277.005C394.833 278.041 400.527 279.584 405.624 278.918C417.633 277.347 427.818 271.343 426.77 245.48C426.622 241.813 426.166 238.143 426.067 234.476C425.973 230.891 426.008 227.303 425.849 223.72L425.796 222.497C425.735 221.069 425.67 219.634 425.562 218.203C425.434 217.649 425.327 217.087 425.168 216.543C424.741 215.063 424.18 213.625 423.484 212.252C423.329 212.369 423.159 212.453 422.971 212.486C421.554 212.74 420.224 212.668 418.896 212.077C418.278 211.804 417.731 211.441 417.222 210.991C416.98 210.78 416.82 210.575 416.691 210.361C416.049 210.372 415.406 210.179 415.005 209.717C414.546 209.191 414.471 208.647 414.65 208.144L414.668 208.094L414.623 208.077C414.082 209.479 413.002 210.712 411.819 211.546C409.948 212.867 407.607 213.249 405.362 213.284C402.885 213.321 400.271 212.939 397.825 212.549C397.178 212.447 396.537 212.33 395.907 212.172C395.882 212.196 395.858 212.225 395.83 212.25C393.731 214.259 390.78 214.776 388.116 213.629C386.578 212.966 385.287 211.899 384.146 210.675C384.13 211.316 384.097 211.956 384.042 212.59L384.02 212.842C383.906 214.023 383.686 215.276 382.796 216.128C381.352 217.51 379.259 216.956 377.595 216.057C377.597 216.1 377.597 216.145 377.597 216.19C378.047 217.717 378.498 219.246 378.95 220.775L379.047 221.1C379.375 222.186 379.735 223.273 379.834 224.409C380.024 226.581 378.578 228.725 376.166 227.997C374.901 227.616 373.886 226.552 372.914 225.699L372.302 225.169C373.886 230.355 374.986 235.726 375.088 241.138C375.096 241.431 374.842 241.653 374.563 241.663C373.91 241.69 373.209 241.56 372.554 241.3C372.515 241.298 372.479 241.296 372.44 241.289C371.319 241.127 370.28 240.723 369.363 240.126C369.574 240.797 369.668 241.517 369.613 242.27C369.599 242.453 369.314 242.517 369.273 242.315C368.743 239.711 365.696 237.743 363.071 238.242C360.252 238.777 358.175 241.203 357.667 243.963C357.12 246.929 358.165 250.358 360.099 252.647C360.99 253.702 362.162 254.582 363.553 254.804C364.189 254.904 364.85 254.869 365.466 254.689C365.729 254.611 365.975 254.502 366.225 254.399C366.591 254.252 367.018 254.229 367.362 254.073C368.145 253.722 368.93 254.443 368.533 255.245C368.189 255.945 367.88 256.417 367.307 256.778C367.77 257.344 368.191 258.132 368.348 258.344C369.143 259.419 369.951 260.435 370.858 261.418C371.781 262.416 372.79 263.327 373.853 264.17L374.301 264.524C375.328 265.338 376.221 266.092 376.943 267.259C377.514 268.18 376.776 269.43 375.706 269.416C372.363 269.369 369.93 266.43 368.2 263.862C367.954 263.495 367.722 263.107 367.506 262.709C367.429 262.834 367.341 262.951 367.246 263.058L367.437 263.571C368.002 265.081 365.564 266.069 364.856 264.659C364.34 263.637 363.744 262.664 363.079 261.745C362.686 261.689 362.304 261.451 362.09 261.143C361.549 260.361 360.945 259.571 360.435 258.738C360.15 258.469 359.859 258.21 359.562 257.958C359.477 258.034 359.388 258.11 359.304 258.19C358.93 259.042 358.468 259.819 357.897 260.552L357.773 260.708C356.677 262.091 355.249 263.506 353.482 263.844C352.941 263.947 352.422 263.276 352.9 262.847C354.139 261.734 355.601 260.977 356.742 259.735C357.303 259.124 357.82 258.45 358.263 257.744L358.365 257.58C358.438 257.459 358.513 257.338 358.592 257.215C358.078 256.864 357.561 256.511 357.047 256.158C355.629 257.37 353.783 257.924 352.215 258.927L352.06 259.029C350.643 259.977 349.148 257.88 350.285 256.729C351.537 255.464 352.583 253.956 353.693 252.551C353.172 251.589 352.924 250.452 352.833 249.303C352.796 248.978 352.768 248.652 352.739 248.327C351.942 248.339 351.143 248.066 350.466 247.596L350.209 247.413C349.386 247.676 348.523 247.803 347.696 247.781C345.751 247.723 344.954 245.501 346.17 244.095C347.413 242.658 349.585 242.344 351.306 243.042C351.362 243.013 351.419 242.983 351.474 242.952C351.393 242.574 351.411 242.231 351.505 241.931L351.476 241.747C351.098 241.166 350.85 240.503 350.754 239.802C350.681 239.247 350.695 238.697 350.824 238.149C350.866 237.966 350.956 237.777 351.023 237.587C350.885 237.233 350.801 236.868 350.777 236.501C350.736 236.454 350.697 236.406 350.661 236.355C349.807 235.155 349.98 233.71 350.793 232.739C350.795 232.677 350.801 232.615 350.809 232.554C350.763 232.447 350.72 232.339 350.679 232.229C349.884 231.428 349.302 230.464 349.41 229.269C349.475 228.565 349.764 227.932 350.201 227.459C350.122 227.23 350.116 226.964 350.209 226.742C349.512 224.886 349.599 222.65 350.102 220.574C349.992 220.258 349.935 219.915 349.947 219.552C350.004 218.01 351.338 216.594 352.916 216.613C353.107 216.614 353.284 216.639 353.457 216.675L353.459 216.639C353.518 216.176 353.646 215.749 353.831 215.365C353.74 215.332 353.657 215.285 353.581 215.222C352.571 215.762 351.499 216.175 350.376 216.456C349.55 216.663 348.704 215.724 349.217 214.949C349.455 214.589 349.719 214.266 350.002 213.971C349.599 213.973 349.19 214 348.778 214.053C348.033 214.15 347.206 213.643 346.724 212.958C346.124 213.541 345.524 214.121 344.922 214.702C343.401 216.178 341.1 215.092 340.86 213.146C340.407 213.025 339.984 212.82 339.612 212.527C337.212 213.569 334.629 214.142 331.989 214.25C330.092 214.329 328.986 212.12 329.87 210.561C330.466 209.514 331.204 208.574 332.056 207.757C330.735 208.161 329.37 208.453 327.977 208.64C327.224 208.74 326.161 208.116 325.858 207.425C324.705 204.765 324.804 201.992 326.13 199.404C326.183 199.302 326.24 199.203 326.295 199.105C326.433 198.762 326.582 198.423 326.744 198.091C325.111 196.387 324.969 193.855 325.85 191.735C325.498 191.162 325.362 190.473 325.601 189.849C326.285 188.053 327.269 186.395 328.514 184.971C328.394 184.741 328.29 184.496 328.201 184.234C327.501 182.11 328.312 179.546 329.948 178.067C330.975 177.135 332.156 176.577 333.419 176.22C333.95 175.28 334.633 174.432 335.428 173.718C335.459 173.65 335.491 173.583 335.526 173.515C336.765 171.179 339.022 169.927 341.44 169.638C341.536 168.725 342.15 167.853 343.045 167.569C343.291 166.779 343.659 166.024 344.163 165.338C344.956 164.259 346.276 163.75 347.519 164.458C348.2 164.846 348.853 165.291 349.465 165.784C349.74 165.655 350.051 165.572 350.401 165.545L350.49 165.54L352.514 165.437C353.36 165.061 354.206 164.667 355.054 164.284C355.562 163.863 356.13 163.512 356.75 163.251C357.451 162.958 358.169 162.792 358.889 162.736C359.475 162.545 360.063 162.377 360.663 162.246C362.07 161.938 363.542 161.765 365.003 161.78C365.033 161.402 365.047 161.019 365.045 160.632L365.041 160.438C365.009 159.196 366.001 158.205 367.168 158.028ZM365.749 257.369C365.55 257.412 365.346 257.447 365.143 257.472C365.204 257.623 365.265 257.775 365.326 257.927C365.489 258.02 365.655 258.108 365.822 258.19C365.773 257.911 365.743 257.63 365.749 257.369ZM355.21 254.236L355.072 254.487C355.052 254.528 355.029 254.569 355.007 254.609C355.298 254.586 355.589 254.592 355.875 254.625V254.595C355.839 254.582 355.8 254.57 355.765 254.553C355.568 254.458 355.383 254.351 355.21 254.236ZM360.907 242.773C362.721 242.879 364.258 243.157 365.91 243.952L366.052 244.021C367.51 244.745 369.922 246.084 369.719 248.002C369.662 248.548 369.267 249.123 368.643 249.08C366.935 248.963 365.956 247.239 364.799 246.163C363.632 245.08 362.198 243.966 360.785 243.22C360.585 243.116 360.665 242.784 360.88 242.773L360.907 242.773ZM352.674 217.491C352.239 217.505 352.385 217.928 352.609 217.575C352.627 217.547 352.65 217.518 352.674 217.491ZM376.153 189.268C372.033 189.376 367.888 191.809 364.801 194.268C362.117 196.408 359.8 198.953 357.746 201.696C357.22 203.061 356.766 204.456 356.382 205.861C356.13 206.788 355.971 207.726 355.761 208.662L355.694 208.949C355.53 209.259 355.406 209.593 355.316 209.938C355.69 210.313 356.174 210.582 356.709 210.71C356.882 210.75 357.024 210.839 357.138 210.957C357.567 210.239 357.944 209.482 358.161 208.678L358.169 208.641C358.997 207.287 359.894 205.975 360.856 204.707C363.512 201.208 366.434 198.019 369.949 195.365C372.615 193.354 375.594 191.778 378.761 190.754C377.986 190.128 377.105 189.633 376.153 189.268Z" fill="url(#paint3_linear)"/>
<path fill-rule="evenodd" clip-rule="evenodd" d="M413.287 265.367C411.776 265.805 410.153 265.844 408.614 265.392C407.216 264.982 405.781 264.079 404.754 262.884C403.838 261.823 403.247 260.534 403.271 259.157C403.273 259 403.33 258.869 403.415 258.767C403.509 258.657 403.639 258.582 403.777 258.549C403.922 258.516 404.072 258.527 404.203 258.586C404.318 258.639 404.418 258.729 404.481 258.861C404.64 259.069 404.796 259.273 404.955 259.472C406.226 261.042 407.456 262.215 409.366 262.635C410.403 262.864 411.438 262.762 412.388 262.414C413.407 262.041 414.326 261.386 415.046 260.547C415.372 260.167 415.756 260.013 416.132 260.01C416.557 260.007 416.978 260.205 417.296 260.521C417.607 260.833 417.816 261.255 417.834 261.697C417.853 262.085 417.725 262.491 417.389 262.852C416.279 264.044 414.843 264.916 413.287 265.367ZM413.24 245.708C414.79 246.65 417.151 248.846 415.484 251.182C413.523 253.241 410.698 250.88 409.305 249.812C408.016 248.985 406.566 251.113 407.762 252.079C417.82 259.528 421.902 245.954 414.025 244.6C413.157 244.451 412.836 245.416 413.24 245.708ZM398.748 241.563C398.25 241.244 397.664 241.135 397.015 241.43C396.509 241.661 395.618 242.43 395 243.442C394.575 244.133 394.276 244.945 394.337 245.791C394.353 245.987 394.28 246.132 394.166 246.239C394.075 246.323 393.944 246.385 393.792 246.405C393.662 246.421 393.515 246.406 393.397 246.369C393.172 246.299 393.052 246.153 393.007 246.033C392.574 244.882 392.761 243.596 393.247 242.437C393.902 240.872 395.094 239.561 395.872 239.139C397.209 238.415 398.783 238.382 400.121 239.119C401.26 239.746 401.97 240.759 402.677 241.791C402.828 242.011 402.978 242.228 403.133 242.442C403.442 242.871 403.472 243.297 403.352 243.661C403.22 244.065 402.881 244.406 402.458 244.585C402.067 244.75 401.614 244.773 401.211 244.603C400.873 244.46 400.562 244.181 400.365 243.708C400.033 242.91 399.48 242.031 398.748 241.563ZM424.037 243.337C423.698 243.515 423.429 243.568 423.051 243.455C422.841 243.392 422.636 243.271 422.473 243.109C422.313 242.949 422.197 242.749 422.152 242.528C422.042 241.982 421.743 241.47 421.318 241.137C420.954 240.852 420.495 240.701 419.984 240.786C419.435 240.878 418.91 241.231 418.55 241.647C418.428 241.786 418.335 241.944 418.239 242.101C418.062 242.394 417.889 242.667 417.643 242.883C417.55 242.965 417.409 243.022 417.275 243.022C417.22 243.022 417.163 243.013 417.11 242.996C416.563 242.447 416.458 242.03 416.476 241.616C416.494 241.183 416.665 240.744 416.942 240.334C417.588 239.373 418.819 238.585 419.649 238.407C420.785 238.163 421.914 238.456 422.819 239.091C423.751 239.744 424.44 240.759 424.656 241.902C424.708 242.178 424.686 242.475 424.58 242.733C424.479 242.985 424.3 243.2 424.037 243.337ZM401.256 231.318C400.572 231.983 399.765 232.086 398.949 232.178C398.496 232.229 398.132 232.27 397.776 232.351C396.796 232.572 395.828 232.905 394.943 233.385C394.02 233.887 393.013 234.492 392.289 235.267C392.116 235.452 391.956 235.645 391.793 235.839C391.644 236.016 391.502 236.186 391.351 236.351C391.179 236.539 391.014 236.737 390.851 236.934C390.75 237.1 390.729 237.141 390.709 237.184C390.678 237.248 390.644 237.32 390.603 237.397C390.546 237.502 390.481 237.617 390.414 237.721C390.3 237.912 390.239 237.965 390.186 237.988C390.099 238.027 390.015 238.046 389.936 238.036C389.861 238.026 389.79 237.99 389.718 237.931C389.369 237.635 389.265 237.149 389.275 236.633C389.291 235.851 389.58 234.985 389.847 234.452C390.465 233.214 391.323 231.928 392.354 231.004C393.53 229.95 394.819 229.152 396.297 228.602C397.217 228.26 398.28 227.946 399.281 227.986C400.001 228.015 400.69 228.229 401.258 228.764C401.607 229.092 401.774 229.56 401.774 230.027C401.774 230.503 401.599 230.982 401.256 231.318ZM425.424 237.406C425.382 237.477 425.323 237.526 425.255 237.556C425.184 237.587 425.107 237.596 425.032 237.583C424.957 237.57 424.885 237.536 424.83 237.485C424.776 237.435 424.735 237.369 424.717 237.289C424.263 235.299 423.384 233.818 421.507 232.864C420.584 232.394 419.522 232.096 418.516 231.858C418.225 231.789 417.916 231.744 417.605 231.698C416.631 231.556 415.65 231.393 415.016 230.606C414.631 230.131 414.471 229.524 414.562 228.97C414.648 228.447 414.953 227.968 415.508 227.681C416.889 226.967 418.605 227.668 420 228.265C420.104 228.309 420.206 228.353 420.305 228.394C421.668 228.97 422.913 229.731 423.936 230.818C424.747 231.681 425.5 232.956 425.803 234.267C426.053 235.359 425.994 236.473 425.424 237.406Z" fill="black"/>
<path d="M483.006 141.441C511.146 180.02 515.546 230.421 499.774 280.803C484.001 331.186 448.068 381.48 395.677 419.694C343.287 457.909 284.421 476.763 231.629 476.393C178.836 476.024 132.188 456.439 104.048 417.86C75.9074 379.281 71.5071 328.88 87.2799 278.498C103.053 228.115 138.985 177.822 191.376 139.607C243.767 101.392 302.633 82.5379 355.425 82.9077C408.218 83.2776 454.865 102.862 483.006 141.441Z" stroke="white" stroke-width="2"/>
<path fill-rule="evenodd" clip-rule="evenodd" d="M428.528 345.872C426.258 344.981 423.812 344.488 421.355 344.297C422.677 344.065 424.005 343.842 425.343 343.727C426.277 343.647 427.141 343.655 427.843 344.363C428.31 344.835 428.53 345.443 428.839 346.001C428.737 345.956 428.634 345.913 428.528 345.872ZM452.906 337.543C449.186 337.732 445.463 338.617 442.099 340.219C440.722 340.876 439.473 341.824 439.109 343.384C438.924 344.18 438.969 345.004 439.067 345.808C439.142 346.417 439.16 347.195 439.689 347.608C439.78 347.677 439.876 347.731 439.976 347.77C438.735 348.33 437.553 349.003 436.502 349.696C435.542 350.331 434.556 351.309 434.112 352.409C434.076 352.285 434.039 352.167 434.003 352.057C433.248 349.824 432.085 347.996 430.252 346.766C430.576 346.621 430.8 346.276 430.696 345.8C430.261 343.811 428.424 342.083 426.35 342.206C424.078 342.34 421.64 343.166 419.586 344.211C418.837 344.195 418.089 344.205 417.351 344.238C417.224 344.242 417.231 344.415 417.351 344.429C417.951 344.505 418.55 344.589 419.148 344.687C420.572 344.915 421.992 345.204 423.381 345.564C425.046 345.995 426.771 346.428 428.327 347.181C431.347 348.644 433.216 352.47 432.833 355.799C432.77 356.344 432.559 357.994 431.8 357.825C431.162 357.68 430.907 356.344 430.684 355.85C430.084 354.536 429.004 353.678 427.71 353.099C426.189 352.413 424.562 351.952 422.986 351.415C422.095 351.11 421.202 350.802 420.308 350.499C419.392 350.186 418.522 349.753 417.548 349.973C416.96 350.105 416.891 350.807 417.222 351.209C417.725 351.823 418.471 352.004 419.195 352.257C420.151 352.588 421.105 352.922 422.061 353.253C423.535 353.768 425.081 354.199 426.519 354.827L426.474 354.931C426.356 354.898 426.218 355.014 426.242 355.159C426.456 356.487 426.757 358.02 426.423 359.35C426.161 360.406 425.235 361.573 424.033 361.264C424.223 361.091 424.292 360.794 424.166 360.52C423.688 359.501 417.452 355.482 416.895 356.975C416.877 357.028 416.934 357.066 416.98 357.058C417.454 356.961 418.247 357.768 418.628 358.024C419.175 358.394 419.73 358.756 420.273 359.135C420.865 359.549 421.444 359.985 422.008 360.434C422.451 360.788 422.787 361.154 423.295 361.333C423.029 361.461 422.817 361.697 422.726 361.998C422.496 362.785 422.055 363.452 421.284 363.798C420.478 364.16 419.569 363.932 418.719 364.02C417.562 364.138 416.553 364.687 415.709 365.474C413.94 367.127 413.051 370.041 410.574 370.822C409.096 371.29 407.455 370.995 405.956 370.784C404.284 370.548 402.655 370.361 400.971 370.607C399.358 370.845 397.835 371.402 396.361 372.083C394.98 372.722 393.455 373.444 392.23 374.396C391.978 373.619 391.722 372.848 391.529 372.055C391.075 370.178 390.829 368.264 390.768 366.334C390.713 364.497 390.817 362.653 390.973 360.825C391.053 359.911 391.175 359.002 391.252 358.089C391.272 357.859 391.315 357.613 391.346 357.367C393.532 356.076 395.83 355.085 398.146 354.069C398.152 354.067 398.158 354.062 398.165 354.06C398.236 354.028 398.307 353.997 398.378 353.965C398.376 353.961 398.374 353.957 398.37 353.953C398.634 353.792 398.819 353.576 398.929 353.334C402.269 351.12 405.059 348.096 407.139 344.57C408.01 343.093 408.85 341.56 409.991 340.265C411.205 338.883 412.647 338.062 414.432 337.636C416.519 337.135 418.668 336.835 420.806 336.665C421.973 336.573 423.279 336.429 424.55 336.435C425.437 336.441 426.305 336.517 427.1 336.737C428.28 337.061 428.969 337.958 429.709 338.865C430.417 339.735 431.121 340.607 431.782 341.515C432.408 342.374 433 343.263 433.513 344.195C433.82 344.753 434.104 345.328 434.344 345.921C434.43 346.13 434.54 346.368 434.59 346.586C434.643 346.805 434.548 347.037 434.794 347.037C433.779 347.051 433.789 348.675 434.798 348.615C438.749 348.386 433.089 340.669 432.262 339.593C431.09 338.071 429.882 336.084 428.007 335.376C427.981 335.366 427.952 335.356 427.926 335.347C428.471 334.83 428.902 334.211 429.315 333.58C429.74 332.932 430.246 332.189 430.385 331.419C430.474 330.929 429.864 330.65 429.575 331.079C429.154 331.704 428.951 332.497 428.638 333.184C428.316 333.882 427.928 334.541 427.619 335.245C426.879 335.017 426.079 334.912 425.264 334.877C426.293 333.486 428.048 330.802 428.259 330.457C429.232 328.86 430.157 327.214 431.042 325.566C431.997 323.781 432.817 321.921 433.732 320.115C434.251 319.091 434.773 318.059 435.351 317.066C435.548 316.725 435.762 316.384 436.004 316.074C436.053 316.013 436.112 315.962 436.166 315.904C436.23 315.869 436.297 315.83 436.333 315.81C436.665 315.619 436.783 315.176 437.017 314.894C437.389 314.441 437.828 314.388 438.391 314.381C439.589 314.369 440.791 314.416 441.987 314.449C443.746 314.498 445.501 314.568 447.258 314.66C447.789 314.689 448.318 314.718 448.851 314.751C451.403 314.903 453.955 315.101 456.502 315.346C458.755 315.561 461.008 315.913 463.262 316.081C460.209 323.336 456.825 330.459 452.991 337.334C452.953 337.404 452.924 337.474 452.906 337.543ZM435.967 356.232C435.475 356.46 434.997 356.741 434.552 357.06C434.627 356.562 434.645 356.037 434.625 355.508C434.991 355.903 435.461 356.129 435.967 356.232ZM456.986 343.754C456.951 343.758 456.918 343.776 456.902 343.811C456.221 345.217 456.506 346.787 457.618 347.889C458.202 348.463 459.471 349.112 459.43 350.056C459.396 350.819 458.564 351.459 458.21 352.09C457.878 352.678 457.756 353.322 458.021 353.957C458.358 354.772 459.304 355.096 459.629 355.897C460.04 356.914 459.373 358.138 458.905 359.023C458.47 359.842 457.907 360.66 457.535 361.526C455.033 362.822 452.794 364.809 450.87 366.826C448.763 369.033 446.955 371.628 443.61 371.563C443.276 371.556 443.022 371.733 442.87 371.977C441.938 372.02 441.005 372.038 440.073 372.043C438.436 372.051 436.799 372.034 435.164 371.984C435.048 371.587 435.133 371.05 435.127 370.715C435.107 369.637 435.097 368.561 435.05 367.485C435.038 367.184 435.026 366.883 435.013 366.584C435.603 367.648 436.752 368.132 438.06 368.059C440.165 367.936 442.282 367.591 444.366 367.282C445.465 367.119 446.561 366.934 447.653 366.737C448.552 366.578 449.821 366.619 450.447 365.897C450.596 365.73 450.604 365.421 450.372 365.309C449.75 365.004 449.359 365.173 448.676 365.305C447.842 365.468 447.008 365.62 446.17 365.764C444.564 366.043 442.953 366.301 441.338 366.529C440.419 366.659 439.498 366.785 438.576 366.887C437.773 366.973 436.866 367.09 436.217 366.484C434.912 365.262 435.644 363.212 436.469 361.976C436.486 361.951 436.486 361.929 436.48 361.909C437.261 361.726 438.038 361.512 438.812 361.361C440.305 361.075 441.806 360.833 443.311 360.617C446.4 360.176 449.51 359.885 452.617 359.592C453.386 359.517 453.394 358.307 452.617 358.378C448.153 358.787 443.669 359.175 439.266 360.033C438.164 360.247 437.067 360.489 435.977 360.764C435.463 360.89 434.912 361.089 434.371 361.095C434.338 361.095 434.306 361.095 434.273 361.093C433.216 361.061 433.063 360.155 433.643 359.403C433.716 359.309 433.789 359.218 433.864 359.128C434.891 357.906 436.169 357.089 437.486 356.245C438.961 356.043 440.431 355.596 441.877 355.266C445.442 354.455 449.007 353.642 452.577 352.83C453.274 352.671 452.977 351.596 452.278 351.754C449.571 352.366 446.862 352.981 444.153 353.595L440.189 354.494C439.398 354.673 438.41 355.031 437.478 355.161C437.019 355.224 436.573 355.232 436.171 355.138C434.873 354.829 434.806 353.206 435.367 352.242C435.994 351.158 437.179 350.481 438.233 349.867C440.057 348.802 441.997 348.037 443.893 347.154C444.23 347.08 444.566 347.006 444.903 346.933C446.86 346.502 449.097 346.29 450.937 345.5C451.491 345.266 451.187 344.396 450.642 344.408C449.213 344.439 447.718 344.948 446.321 345.25C444.808 345.578 443.295 345.904 441.782 346.231C441.631 346.263 440.732 346.551 440.596 346.487C440.511 346.446 440.48 346.147 440.449 345.949C440.358 345.301 440.291 344.62 440.391 343.969C440.612 342.51 441.828 341.824 443.061 341.264C445.8 340.018 448.806 339.239 451.798 338.927C452.487 338.855 453.176 338.81 453.87 338.787C454.683 338.762 455.355 338.619 455.767 339.421C456.416 340.685 456.774 342.311 456.986 343.754ZM453.181 389.589C452.583 387.523 452.745 385.319 452.337 383.21C452.125 382.124 451.836 381.044 451.521 379.982C451.269 379.126 450.844 378.213 450.797 377.318C450.793 377.259 450.864 377.224 450.913 377.253C451.755 377.735 452.402 378.778 452.882 379.598C453.457 380.578 453.896 381.603 454.252 382.683C454.958 384.831 455.538 387.423 454.626 389.589C454.356 390.234 453.404 390.364 453.181 389.589ZM434.723 362.222C435.227 362.173 435.731 362.075 436.236 361.963C435.672 362.515 435.152 363.176 434.861 363.912C434.816 363.346 434.759 362.785 434.684 362.224C434.696 362.224 434.71 362.224 434.723 362.222ZM429.872 405.233C428.981 404.61 428.333 403.742 427.578 402.975C426.836 402.223 427.997 401.062 428.739 401.814C429.384 402.469 429.941 403.284 430.7 403.815C431.066 404.069 431.235 404.529 430.995 404.938C430.783 405.298 430.236 405.485 429.872 405.233ZM424.908 381.355C426.533 380.651 428.131 379.887 429.831 379.38C430.848 379.077 431.277 380.661 430.269 380.962C428.703 381.43 427.232 382.126 425.738 382.772C424.776 383.187 423.942 381.772 424.908 381.355ZM407.751 380.863C407.353 379.882 408.943 379.459 409.334 380.425C409.785 381.538 410.302 382.624 410.751 383.736C411.148 384.717 409.561 385.14 409.169 384.172C408.717 383.059 408.201 381.975 407.751 380.863ZM390.817 400.445C390.55 400.797 390.111 400.99 389.694 400.74C389.344 400.531 389.131 399.974 389.399 399.618C390.18 398.574 390.973 397.543 391.891 396.614C392.633 395.859 393.794 397.021 393.052 397.775C392.232 398.605 391.514 399.514 390.817 400.445ZM388.395 290.568C389.147 291.083 389.808 291.708 390.451 292.351C391.199 293.099 390.038 294.26 389.291 293.512C388.748 292.97 388.201 292.419 387.567 291.986C387.199 291.735 387.034 291.268 387.272 290.862C387.484 290.499 388.029 290.318 388.395 290.568ZM413.033 316.988C412.606 317.841 412.224 318.678 412.199 319.647C412.173 320.704 410.532 320.704 410.558 319.647C410.589 318.378 411.056 317.278 411.616 316.16C412.087 315.213 413.503 316.045 413.033 316.988ZM422.073 295.769C422.956 295.181 423.775 296.603 422.901 297.187C422.193 297.659 421.483 298.132 420.773 298.605C419.891 299.194 419.071 297.771 419.946 297.188C420.653 296.715 421.363 296.242 422.073 295.769ZM382.863 332.869C382.712 333.912 381.13 333.466 381.281 332.433C381.511 330.835 381.793 329.259 382.226 327.704C382.509 326.686 384.091 327.121 383.809 328.14C383.375 329.696 383.093 331.272 382.863 332.869ZM377.108 351.675C376.052 351.653 376.052 350.011 377.108 350.034C378.065 350.054 379.005 350.306 379.926 350.536C380.953 350.792 380.514 352.377 379.491 352.12C378.71 351.925 377.917 351.693 377.108 351.675ZM374.984 389.561C374.62 389.738 374.248 389.896 373.882 390.065C373.148 390.401 372.414 390.736 371.68 391.074C370.15 391.776 368.621 392.481 367.094 393.189C364.037 394.605 360.958 395.969 357.893 397.368C354.767 398.798 351.652 400.244 348.538 401.698C347.072 402.383 345.595 403.042 344.119 403.709C342.858 404.281 341.3 405.277 339.915 405.371C339.844 405.375 339.821 405.286 339.862 405.239C340.385 404.645 341.219 404.299 341.906 403.911C342.608 403.516 343.324 403.144 344.035 402.768C345.52 401.981 347.005 401.2 348.503 400.441C351.501 398.924 354.505 397.419 357.509 395.914C360.571 394.379 363.63 392.835 366.721 391.355C368.175 390.657 369.634 389.964 371.09 389.27C371.879 388.896 372.67 388.52 373.459 388.148C373.801 387.985 374.138 387.81 374.486 387.666C374.95 387.474 375.304 387.513 375.782 387.395C376.56 387.204 376.898 388.194 376.3 388.627C375.806 388.981 375.548 389.286 374.984 389.561ZM364.027 406.396C363.858 405.987 364.212 405.489 364.6 405.387C365.066 405.263 365.44 405.546 365.609 405.959C366.06 407.055 366.701 408.06 367.525 408.908C368.263 409.666 367.104 410.827 366.365 410.069C365.33 409.005 364.588 407.763 364.027 406.396ZM355.967 380.043C355.219 379.295 356.378 378.134 357.126 378.882L359.254 381.009C360.002 381.758 358.841 382.919 358.092 382.17L355.967 380.043ZM334.143 376.574C332.614 377.023 330.83 377.434 329.787 378.74C329.736 378.805 329.651 378.721 329.681 378.658C331.015 375.89 334.845 374.918 337.495 373.95C339.37 373.263 341.292 372.695 343.232 372.187C343.039 369.972 343.574 367.601 343.759 365.398C343.958 363.047 344.119 360.688 344.202 358.329C344.285 355.923 344.306 353.501 344.229 351.095C344.149 348.696 343.838 346.327 343.702 343.937C343.688 343.706 344.009 343.695 344.08 343.886C344.885 346.104 345.229 348.561 345.491 350.9C345.762 353.308 345.851 355.712 345.817 358.134C345.78 360.625 345.636 363.11 345.437 365.594C345.343 366.771 345.233 367.947 345.129 369.124C345.052 370.021 345.016 370.912 344.833 371.78C346.002 371.493 347.173 371.223 348.343 370.959C352.071 370.117 355.813 369.336 359.524 368.427C361.346 367.979 363.142 367.444 364.954 366.97C366.662 366.523 368.466 365.98 370.219 365.781C370.844 365.71 370.923 366.566 370.51 366.857C369.085 367.857 367.191 368.555 365.546 369.114C363.894 369.677 362.176 370.082 360.484 370.497C356.953 371.367 353.388 372.077 349.829 372.817C346.274 373.556 342.713 374.29 339.199 375.201C337.507 375.64 335.821 376.081 334.143 376.574ZM325.762 332.65C324.849 333.187 324.024 331.767 324.935 331.232C326.126 330.533 327.396 330.007 328.677 329.495C329.659 329.101 330.08 330.69 329.112 331.078C327.961 331.539 326.834 332.022 325.762 332.65ZM322.454 393.647C321.538 394.179 320.713 392.76 321.626 392.229C322.909 391.485 324.314 390.989 325.644 390.338C326.59 389.874 327.42 391.292 326.472 391.755C325.142 392.406 323.737 392.902 322.454 393.647ZM320.965 359.023C321.852 359.865 323.033 360.261 324.15 360.703C325.122 361.087 324.695 362.675 323.712 362.287C322.323 361.736 320.908 361.231 319.806 360.184C319.037 359.454 320.2 358.295 320.965 359.023ZM330.767 311.999C331.739 312.381 331.314 313.969 330.33 313.583C329.24 313.155 328.111 312.829 327.021 312.401C326.047 312.018 326.474 310.431 327.459 310.817C328.549 311.245 329.675 311.571 330.767 311.999ZM348.056 293.322C349.091 293.148 349.532 294.73 348.493 294.905C347.204 295.123 345.933 295.378 344.711 295.851C343.724 296.233 343.299 294.645 344.275 294.268C345.498 293.794 346.767 293.54 348.056 293.322ZM353.769 338.797C352.821 338.33 353.653 336.915 354.596 337.38C355.593 337.869 356.624 338.247 357.71 338.479C358.745 338.699 358.304 340.282 357.273 340.062C356.05 339.802 354.887 339.348 353.769 338.797ZM359.164 313.181C360.187 312.902 360.618 314.486 359.601 314.765C357.812 315.255 355.967 315.51 354.165 315.947C353.136 316.196 352.703 314.612 353.728 314.364C355.532 313.927 357.374 313.672 359.164 313.181ZM382.054 305.143C383.093 305.335 382.649 306.917 381.616 306.726C380.518 306.523 379.404 306.52 378.289 306.519C377.232 306.519 377.234 304.877 378.289 304.877C379.556 304.878 380.805 304.912 382.054 305.143ZM456.703 313.721C454.022 313.464 451.336 313.259 448.647 313.105C448.521 313.098 448.399 313.091 448.273 313.084C448.259 313.056 448.241 313.029 448.222 313C447.344 311.711 446.697 310.423 446.138 308.965C445.603 307.578 445.082 306.148 444.259 304.896C443.317 303.469 442.048 302.353 440.655 301.386C439.811 301.954 439.028 302.619 438.312 303.324C437.558 304.065 436.396 302.904 437.151 302.163C437.787 301.536 438.467 300.958 439.187 300.435C438.357 299.931 437.509 299.457 436.683 298.985C433.588 297.218 430.417 295.584 427.184 294.091C425.679 293.395 424.157 292.777 422.624 292.151C421.798 291.814 420.985 291.381 420.159 290.992C420.22 290.409 420.045 289.756 419.598 289.372C419.268 289.091 419.012 288.986 418.618 288.787C418.528 288.756 418.475 288.738 418.451 288.728C418.469 288.732 418.522 288.748 418.612 288.777C418.821 288.874 418.837 288.845 418.66 288.693C418.65 288.361 417.995 287.659 417.847 287.316C417.324 286.14 417.163 284.896 416.393 283.825C415.333 282.349 413.552 281.791 411.892 282.292C411.719 280.516 411.675 278.663 411.005 277.079C410.987 277.036 410.928 277.017 410.902 277.065C410.204 278.253 410.143 279.577 410.09 280.948C410.039 282.234 410.088 283.55 410.257 284.828C410.149 284.91 410.041 284.989 409.93 285.064C409.399 285.413 408.829 285.682 408.229 285.881C407.088 286.259 405.893 286.423 404.697 286.48C401.61 286.628 398.427 286.316 395.391 285.787C392.32 285.251 387.612 284.447 384.878 282.909C383.074 281.896 381.411 280.658 379.725 279.459C380.337 277.489 380.492 275.372 379.877 273.707C379.802 273.508 379.491 273.471 379.432 273.707C379.046 275.295 378.934 276.892 378.419 278.462C378.411 278.485 378.403 278.51 378.395 278.532C378.236 278.423 378.076 278.317 377.915 278.21C377.547 277.966 377.042 278.148 376.821 278.497C373.278 284.081 367.667 284.401 361.775 285.399C355.326 286.491 348.845 287.669 342.646 289.805C336.716 291.849 331.05 294.825 326.562 299.27C325.545 300.277 324.595 301.349 323.698 302.469C324.567 302.578 325.427 302.749 326.277 303.016C327.282 303.332 326.85 304.916 325.84 304.599C324.748 304.255 323.643 304.086 322.529 304.001C319.478 308.175 317.101 312.908 315.043 317.566C311.099 326.498 308.531 336.01 307.35 345.694C307.999 345.305 308.659 344.935 309.336 344.59C310.276 344.112 311.106 345.529 310.164 346.008C309.119 346.54 308.103 347.126 307.119 347.762C306.689 352 306.523 356.267 306.624 360.528C306.864 370.682 308.234 381.133 311.334 390.822C312.854 395.579 314.87 400.295 317.872 404.313C319.228 406.134 320.772 407.775 322.59 409.144C323.47 409.809 324.402 410.402 325.384 410.903C326.649 411.551 328.298 411.765 329.391 412.682C329.751 412.983 330.027 413.382 330.237 413.831C330.115 414.685 330.1 415.54 330.334 416.394C330.407 416.66 330.609 416.878 330.857 416.983C330.861 417.057 330.861 417.128 330.861 417.199C330.861 417.232 330.91 417.24 330.918 417.207C330.928 417.144 330.938 417.079 330.948 417.014C331.028 417.04 331.111 417.053 331.199 417.053C334.314 417.065 337.434 416.99 340.556 416.884C340.314 416.144 340.053 415.411 339.801 414.671C339.462 413.667 341.046 413.239 341.383 414.234C341.678 415.098 341.985 415.956 342.258 416.823C345.601 416.699 348.945 416.55 352.28 416.438C359.378 416.203 366.471 416.125 373.569 415.975C384.594 415.741 395.698 415.263 406.737 415.731C407.119 414.921 407.546 414.128 407.953 413.329C408.431 412.385 409.846 413.217 409.368 414.159C409.088 414.714 408.795 415.263 408.518 415.816C410.755 415.932 412.988 416.087 415.217 416.296C419.02 416.652 422.789 417.287 426.588 417.681C430.45 418.084 434.23 418.011 438.062 417.374C438.751 417.258 439.158 416.841 439.327 416.325C439.333 416.323 439.337 416.318 439.341 416.312C439.536 416.083 439.721 415.891 439.913 415.725C440.14 415.578 440.386 415.452 440.675 415.342C441.216 415.137 441.777 415.011 442.349 414.927C442.975 414.832 443.612 414.824 444.24 414.746C444.769 414.679 445.286 414.578 445.802 414.456C446.732 414.234 447.614 413.943 448.493 413.561C449.257 413.225 449.949 412.745 450.602 412.223C451.952 411.234 453.122 409.975 454.142 408.666C454.738 407.899 455.298 407.106 455.806 406.278C456.693 404.846 457.447 403.358 458.212 401.859C458.488 401.413 458.741 400.958 458.973 400.494C457.48 400.053 455.975 399.695 454.393 399.67C453.337 399.652 453.337 398.011 454.393 398.027C456.207 398.058 457.923 398.481 459.627 398.985C459.709 398.765 459.79 398.542 459.863 398.318C460.067 397.848 460.233 397.366 460.374 396.876C460.455 396.655 460.538 396.433 460.62 396.211C460.805 395.444 460.99 394.676 461.175 393.905C461.547 392.675 461.84 391.424 462.056 390.157C462.237 389.325 462.377 388.485 462.471 387.635C462.757 385.577 462.991 383.523 463.007 381.442C462.983 380.159 462.902 378.878 462.761 377.605C462.702 376.738 462.603 375.876 462.466 375.02C462.29 373.747 462.115 372.488 461.822 371.231C461.602 370.383 461.382 369.533 461.163 368.683C460.616 366.911 459.969 365.175 459.225 363.479C459.184 363.371 458.977 363.137 458.851 363.135C458.757 363.133 458.625 363.22 458.669 363.334C458.674 363.344 458.678 363.357 458.682 363.367C458.639 363.271 458.596 363.171 458.554 363.076C458.517 362.986 458.373 362.805 458.263 362.807C458.257 362.807 458.251 362.807 458.242 362.809C458.271 362.789 458.297 362.763 458.324 362.73C459.06 361.86 459.538 360.711 460.067 359.702C460.504 358.868 460.915 357.99 461.035 357.048C461.138 356.222 460.998 355.407 460.477 354.738C459.888 353.975 458.775 353.619 459.394 352.519C460.095 351.266 461.126 350.182 460.099 348.759C459.577 348.035 458.747 347.637 458.131 347.006C457.423 346.278 457.087 345.303 457.106 344.308C457.148 344.332 457.205 344.32 457.226 344.258C457.821 342.461 457.39 340.486 456.782 338.736C456.449 337.786 455.745 337.525 454.927 337.478C458.472 330.551 461.789 323.514 464.746 316.314C464.844 316.078 464.941 315.843 465.037 315.606C465.181 315.253 464.876 314.784 464.527 314.706C461.97 314.145 459.306 313.967 456.703 313.721Z" fill="black"/>
<defs>
<linearGradient id="paint0_linear" x1="205.286" y1="192.402" x2="236.17" y2="360.505" gradientUnits="userSpaceOnUse">
<stop stop-color="#541E48"/>
<stop offset="1"/>
</linearGradient>
<linearGradient id="paint1_linear" x1="207.632" y1="225.241" x2="210.759" y2="267.462" gradientUnits="userSpaceOnUse">
<stop stop-color="#541E48"/>
<stop offset="1" stop-color="#190916"/>
</linearGradient>
<linearGradient id="paint2_linear" x1="224.442" y1="215.467" x2="224.442" y2="246.351" gradientUnits="userSpaceOnUse">
<stop stop-opacity="0"/>
<stop offset="0.802083" stop-color="#73478C"/>
</linearGradient>
<linearGradient id="paint3_linear" x1="279.955" y1="41.5009" x2="380.816" y2="203.348" gradientUnits="userSpaceOnUse">
<stop stop-color="#532F68"/>
<stop offset="1"/>
</linearGradient>
</defs>
</svg>
