<svg width="63" height="48" viewBox="0 0 63 48" fill="none" xmlns="http://www.w3.org/2000/svg">
<g filter="url(#filter0_d)">
<path d="M58.1104 2.18782C57.4991 2.14907 56.8888 2.27665 56.3463 2.5566C55.8038 2.83654 55.3501 3.25805 55.0348 3.77494L48.7716 3.67076C48.0258 3.67081 47.3019 3.91904 46.7175 4.37515C46.1332 4.83127 45.7227 5.46845 45.5528 6.18318C43.4443 15.1135 41.3317 24.0459 39.2149 32.9803C39.1457 33.2752 38.9768 33.5383 38.7359 33.7265C38.495 33.9146 38.1963 34.0167 37.8888 34.0159H12.2817C12.114 34.0171 11.951 33.9619 11.8196 33.8594C11.6882 33.7568 11.5965 33.6131 11.5595 33.4521C10.1276 27.1363 8.69561 20.8267 7.26366 14.5232C7.2278 14.3769 7.22618 14.2246 7.25893 14.0776C7.29168 13.9307 7.35793 13.793 7.45268 13.675C7.54743 13.5569 7.6682 13.4616 7.80587 13.3962C7.94353 13.3308 8.09449 13.2971 8.24734 13.2976H31.4948C31.6164 13.2971 31.7365 13.3238 31.8462 13.3757C31.9558 13.4276 32.052 13.5033 32.1276 13.5971C32.2031 13.691 32.256 13.8005 32.2823 13.9174C32.3086 14.0342 32.3075 14.1555 32.2792 14.2719C31.6898 16.6986 31.1026 19.1293 30.5173 21.5641H19.51C19.3352 20.9464 18.9776 20.3939 18.4827 19.977C17.82 19.4395 16.9735 19.1721 16.1169 19.2294V21.031L13.3713 21.0861C13.2551 21.0877 13.1443 21.1343 13.0627 21.2157C12.9812 21.2971 12.9354 21.4068 12.9355 21.5212V22.4587H15.9986V24.5422H13.0537V25.3204C13.0537 25.4667 13.1128 25.607 13.2179 25.7104C13.3229 25.8139 13.4655 25.8719 13.6141 25.8719H16.0297V27.6123C16.8398 27.6355 17.6357 27.3988 18.2972 26.9379C18.9587 26.477 19.4499 25.8168 19.6968 25.0569L31.5757 24.9466C32.0701 24.9441 32.5491 24.7776 32.9354 24.4741C33.3218 24.1706 33.5929 23.7477 33.705 23.2737C34.5931 19.5316 35.4856 15.7998 36.3821 12.0782C36.4436 11.8095 36.443 11.5306 36.3804 11.2622C36.3178 10.9937 36.1946 10.7425 36.0201 10.5272C35.8455 10.3119 35.6241 10.138 35.3721 10.0182C35.1201 9.89843 34.8439 9.83599 34.5641 9.83538L5.38967 9.9947C5.07821 9.99697 4.77124 10.0681 4.49144 10.2027C4.21164 10.3374 3.96616 10.5323 3.77312 10.7729C3.58008 11.0135 3.44442 11.2936 3.37615 11.5928C3.30789 11.8919 3.30876 12.2023 3.37871 12.501L8.92597 36.2035C9.01727 36.5914 9.23921 36.9376 9.55568 37.1857C9.8722 37.4338 10.2646 37.5692 10.6692 37.57H14.5293V39.0284C13.8789 39.359 13.3627 39.8983 13.0661 40.557C12.7696 41.2156 12.7104 41.9542 12.8986 42.6505C13.0867 43.3468 13.5107 43.9589 14.1005 44.3856C14.6903 44.8123 15.4104 45.028 16.1418 44.997C16.9564 44.9874 17.7395 44.686 18.3446 44.149C18.9496 43.6121 19.3352 42.8766 19.429 42.0801C19.4775 41.4797 19.3595 40.8776 19.0875 40.338C18.8157 39.7983 18.4 39.3415 17.885 39.0162V37.57H33.2069V39.0284C32.833 39.2447 32.5061 39.5315 32.2451 39.8723C31.9841 40.2132 31.794 40.6015 31.6859 41.0148C31.5776 41.4282 31.5535 41.8585 31.6147 42.281C31.676 42.7036 31.8214 43.1101 32.0427 43.4772C32.5182 44.2045 33.265 44.7187 34.1222 44.909C34.9794 45.0992 35.8782 44.9504 36.6249 44.4945C37.1527 44.1293 37.5657 43.6254 37.8167 43.0403C38.0677 42.4552 38.1466 41.8125 38.0444 41.1854C37.9619 40.7027 37.7823 40.241 37.5161 39.8274C37.2499 39.4139 36.9024 39.0568 36.4942 38.7772V37.4413H40.0118C40.4214 37.4316 40.8163 37.2895 41.1359 37.0371C41.4554 36.7846 41.6817 36.4357 41.7799 36.0442C42.5893 32.776 43.3965 29.5078 44.2018 26.2396C44.2734 25.9453 44.444 25.6835 44.6858 25.4966C44.9277 25.3097 45.2266 25.2087 45.5341 25.2101H49.2697C50.6642 26.8769 52.7624 27.2875 54.3811 25.8229C54.7406 25.4583 55.0145 25.0204 55.1834 24.5402C55.3523 24.06 55.4122 23.5492 55.3587 23.0438C55.3053 22.5384 55.1399 22.0507 54.8741 21.615C54.6084 21.1794 54.2489 20.8064 53.8208 20.5223C53.044 20.1158 52.1429 20.003 51.2875 20.205C50.432 20.4071 49.6811 20.91 49.1763 21.6192L45.7085 21.5763C45.6613 21.5756 45.615 21.5646 45.5728 21.544C45.5305 21.5235 45.4935 21.494 45.4643 21.4576C45.4351 21.4212 45.4145 21.379 45.4039 21.3338C45.3934 21.2886 45.3932 21.2417 45.4034 21.1964C46.3746 16.8293 47.35 12.4581 48.3295 8.08281C48.3989 7.7709 48.5743 7.49166 48.8267 7.29116C49.0791 7.09059 49.3935 6.98077 49.7179 6.9798H54.9414C55.2624 7.62543 55.7932 8.14715 56.4495 8.46237C57.1058 8.77759 57.8502 8.86834 58.5649 8.72011C59.2375 8.52769 59.832 8.13294 60.2652 7.59117C60.6984 7.04939 60.9485 6.38779 60.9805 5.69908C61.0272 5.2829 60.9899 4.86175 60.8707 4.45979C60.7516 4.05783 60.553 3.68299 60.2863 3.35675C60.0197 3.03053 59.6902 2.75933 59.3168 2.55874C58.9433 2.35814 58.5334 2.23209 58.1104 2.18782ZM16.1418 43.3547C15.8312 43.3559 15.5272 43.2664 15.2684 43.0974C15.0096 42.9285 14.8075 42.6877 14.6878 42.4057C14.5681 42.1236 14.5362 41.8129 14.596 41.513C14.6558 41.213 14.8048 40.9373 15.0239 40.7208C15.2431 40.5041 15.5226 40.3565 15.8271 40.2964C16.1316 40.2363 16.4474 40.2665 16.7345 40.3832C17.0215 40.4999 17.2669 40.6978 17.4396 40.9519C17.6123 41.206 17.7045 41.5048 17.7045 41.8105C17.7045 42.219 17.54 42.6108 17.2471 42.9003C16.9543 43.1897 16.5568 43.3531 16.1418 43.3547ZM34.8194 43.3547C34.509 43.3547 34.2057 43.2641 33.9477 43.0944C33.6897 42.9248 33.4886 42.6836 33.3699 42.4014C33.2511 42.1193 33.22 41.8088 33.2806 41.5092C33.3411 41.2096 33.4905 40.9345 33.7099 40.7186C33.9294 40.5026 34.209 40.3555 34.5133 40.2959C34.8177 40.2364 35.1331 40.2669 35.4198 40.3838C35.7065 40.5007 35.9515 40.6986 36.1239 40.9526C36.2963 41.2065 36.3883 41.5051 36.3883 41.8105C36.3891 42.013 36.3493 42.2136 36.2711 42.401C36.1929 42.5883 36.078 42.7586 35.9328 42.902C35.7876 43.0455 35.6151 43.1593 35.425 43.237C35.235 43.3147 35.0313 43.3547 34.8256 43.3547H34.8194ZM52.0962 21.9501C52.4065 21.9501 52.7098 22.0407 52.9678 22.2104C53.2258 22.3801 53.4269 22.6212 53.5456 22.9034C53.6644 23.1856 53.6955 23.4961 53.6349 23.7956C53.5744 24.0952 53.425 24.3703 53.2056 24.5863C52.9861 24.8022 52.7066 24.9493 52.4023 25.0089C52.0979 25.0685 51.7825 25.0379 51.4958 24.921C51.2091 24.8041 50.9641 24.6062 50.7917 24.3522C50.6193 24.0983 50.5273 23.7998 50.5273 23.4943C50.5273 23.0848 50.6926 22.692 50.9867 22.4024C51.281 22.1128 51.6801 21.9501 52.0962 21.9501ZM57.824 7.07784C57.5131 7.07906 57.2089 6.98937 56.95 6.82015C56.691 6.65094 56.489 6.40983 56.3694 6.12741C56.2499 5.845 56.2183 5.534 56.2787 5.23388C56.339 4.93376 56.4885 4.65804 56.7084 4.44171C56.9282 4.22538 57.2083 4.07818 57.5132 4.0188C57.8181 3.95941 58.1341 3.99051 58.421 4.10814C58.708 4.22578 58.9529 4.42465 59.1248 4.67953C59.2968 4.93442 59.3879 5.23382 59.3867 5.53976C59.385 5.94662 59.2197 6.33627 58.9268 6.62339C58.6339 6.91051 58.2373 7.07172 57.824 7.07172V7.07784Z" fill="white"/>
</g>
<path d="M4.47484 3.95028C4.47484 3.96509 4.46695 4.06875 4.45117 4.26125H1.23907C1.29695 4.50805 1.43374 4.70303 1.64946 4.84617C1.86518 4.98932 2.13351 5.06089 2.45446 5.06089C2.67544 5.06089 2.87011 5.03127 3.03848 4.97204C3.2121 4.90787 3.37258 4.80915 3.5199 4.67588L4.17494 5.34224C3.77508 5.77168 3.19106 5.9864 2.42289 5.9864C1.9441 5.9864 1.52056 5.90002 1.15225 5.72726C0.783957 5.54956 0.49984 5.30522 0.299901 4.99425C0.0999694 4.68328 0 4.33035 0 3.93547C0 3.54552 0.097341 3.19507 0.292009 2.8841C0.491948 2.56819 0.762909 2.32385 1.1049 2.15109C1.45215 1.9734 1.83887 1.88455 2.26505 1.88455C2.6807 1.88455 3.05689 1.96846 3.39362 2.13629C3.73036 2.30411 3.99342 2.54597 4.18284 2.86188C4.37751 3.17285 4.47484 3.53565 4.47484 3.95028ZM2.27294 2.75823C1.99408 2.75823 1.75995 2.83227 1.57054 2.98035C1.38113 3.12843 1.26538 3.33081 1.22328 3.58748H3.3147C3.27261 3.33574 3.15686 3.13583 2.96745 2.98775C2.77803 2.83473 2.54653 2.75823 2.27294 2.75823ZM5.29452 0.43335H6.52572V5.92717H5.29452V0.43335ZM11.8275 3.95028C11.8275 3.96509 11.8196 4.06875 11.8038 4.26125H8.59173C8.6496 4.50805 8.78639 4.70303 9.0021 4.84617C9.21781 4.98932 9.48615 5.06089 9.80707 5.06089C10.0281 5.06089 10.2227 5.03127 10.3911 4.97204C10.5648 4.90787 10.7252 4.80915 10.8725 4.67588L11.5276 5.34224C11.1277 5.77168 10.5437 5.9864 9.77555 5.9864C9.29673 5.9864 8.87319 5.90002 8.50486 5.72726C8.13661 5.54956 7.85251 5.30522 7.65255 4.99425C7.4526 4.68328 7.35262 4.33035 7.35262 3.93547C7.35262 3.54552 7.44995 3.19507 7.64467 2.8841C7.84456 2.56819 8.11555 2.32385 8.45753 2.15109C8.80479 1.9734 9.19152 1.88455 9.61771 1.88455C10.0334 1.88455 10.4095 1.96846 10.7462 2.13629C11.083 2.30411 11.346 2.54597 11.5355 2.86188C11.7302 3.17285 11.8275 3.53565 11.8275 3.95028ZM9.62559 2.75823C9.34671 2.75823 9.1126 2.83227 8.92318 2.98035C8.73375 3.12843 8.61802 3.33081 8.57591 3.58748H10.6673C10.6253 3.33574 10.5095 3.13583 10.3201 2.98775C10.1307 2.83473 9.89917 2.75823 9.62559 2.75823ZM14.6991 5.9864C14.2466 5.9864 13.8389 5.90002 13.4758 5.72726C13.118 5.54956 12.8366 5.30522 12.6314 4.99425C12.4314 4.68328 12.3315 4.33035 12.3315 3.93547C12.3315 3.54059 12.4314 3.18766 12.6314 2.87669C12.8366 2.56572 13.118 2.32385 13.4758 2.15109C13.8389 1.9734 14.2466 1.88455 14.6991 1.88455C15.1464 1.88455 15.5357 1.9734 15.8672 2.15109C16.2039 2.32385 16.4486 2.57312 16.6011 2.8989L15.6462 3.38017C15.4252 3.0149 15.1069 2.83227 14.6912 2.83227C14.3702 2.83227 14.1046 2.93099 13.8941 3.12843C13.6837 3.32587 13.5785 3.59489 13.5785 3.93547C13.5785 4.27606 13.6837 4.54507 13.8941 4.74252C14.1046 4.93996 14.3702 5.03868 14.6912 5.03868C15.1121 5.03868 15.4305 4.85604 15.6462 4.49078L16.6011 4.97945C16.4486 5.29535 16.2039 5.54215 15.8672 5.71985C15.5357 5.89755 15.1464 5.9864 14.6991 5.9864ZM20.1103 5.73466C19.9892 5.81857 19.8393 5.88274 19.6604 5.92717C19.4868 5.96665 19.3026 5.9864 19.1079 5.9864C18.6028 5.9864 18.2108 5.86547 17.932 5.6236C17.6584 5.38173 17.5216 5.02634 17.5216 4.55741V2.92112H16.8665V2.03263H17.5216V1.0627H18.7528V2.03263H19.8103V2.92112H18.7528V4.54261C18.7528 4.71043 18.7975 4.84123 18.887 4.93502C18.9817 5.02387 19.1132 5.06829 19.2816 5.06829C19.4762 5.06829 19.642 5.01893 19.7787 4.92021L20.1103 5.73466ZM21.9773 2.46947C22.1246 2.27696 22.3219 2.13135 22.5692 2.03263C22.8218 1.93391 23.1111 1.88455 23.4373 1.88455V2.95073C23.3005 2.94086 23.2084 2.93592 23.1611 2.93592C22.8086 2.93592 22.5324 3.02971 22.3324 3.21728C22.1325 3.39991 22.0326 3.67633 22.0326 4.04653V5.92717H20.8013V1.94378H21.9773V2.46947ZM26.1512 5.9864C25.704 5.9864 25.3015 5.90002 24.9438 5.72726C24.5913 5.54956 24.315 5.30522 24.1151 4.99425C23.9151 4.68328 23.8151 4.33035 23.8151 3.93547C23.8151 3.54059 23.9151 3.18766 24.1151 2.87669C24.315 2.56572 24.5913 2.32385 24.9438 2.15109C25.3015 1.9734 25.704 1.88455 26.1512 1.88455C26.5985 1.88455 26.9984 1.9734 27.3509 2.15109C27.7034 2.32385 27.9796 2.56572 28.1795 2.87669C28.3795 3.18766 28.4794 3.54059 28.4794 3.93547C28.4794 4.33035 28.3795 4.68328 28.1795 4.99425C27.9796 5.30522 27.7034 5.54956 27.3509 5.72726C26.9984 5.90002 26.5985 5.9864 26.1512 5.9864ZM26.1512 5.03868C26.4669 5.03868 26.7247 4.93996 26.9247 4.74252C27.1298 4.54014 27.2325 4.27112 27.2325 3.93547C27.2325 3.59982 27.1298 3.33328 26.9247 3.13583C26.7247 2.93346 26.4669 2.83227 26.1512 2.83227C25.8355 2.83227 25.5751 2.93346 25.3699 3.13583C25.1647 3.33328 25.0621 3.59982 25.0621 3.93547C25.0621 4.27112 25.1647 4.54014 25.3699 4.74252C25.5751 4.93996 25.8355 5.03868 26.1512 5.03868ZM31.6542 2.00301C32.0436 2.00301 32.3961 2.08692 32.7117 2.25475C33.0274 2.41764 33.2747 2.64963 33.4536 2.95073C33.6325 3.25183 33.722 3.59489 33.722 3.9799C33.722 4.36491 33.6325 4.70796 33.4536 5.00906C33.2747 5.31016 33.0274 5.54462 32.7117 5.71245C32.3961 5.88028 32.0436 5.96419 31.6542 5.96419C31.307 5.96419 30.9939 5.89508 30.7151 5.75687C30.4415 5.61866 30.2205 5.41875 30.0521 5.15714V5.92717H29.5154V0.43335H30.0758V2.77303C30.2494 2.5213 30.4704 2.33126 30.7387 2.20292C31.0123 2.06965 31.3175 2.00301 31.6542 2.00301ZM31.6148 5.49773C31.9041 5.49773 32.1672 5.43603 32.404 5.31263C32.6408 5.18429 32.8249 5.00412 32.9565 4.77213C33.0932 4.54014 33.1616 4.27606 33.1616 3.9799C33.1616 3.68373 33.0932 3.41965 32.9565 3.18766C32.8249 2.95567 32.6408 2.77797 32.404 2.65457C32.1672 2.52623 31.9041 2.46206 31.6148 2.46206C31.3201 2.46206 31.0544 2.52623 30.8176 2.65457C30.5862 2.77797 30.402 2.95567 30.2652 3.18766C30.1337 3.41965 30.0679 3.68373 30.0679 3.9799C30.0679 4.27606 30.1337 4.54014 30.2652 4.77213C30.402 5.00412 30.5862 5.18429 30.8176 5.31263C31.0544 5.43603 31.3201 5.49773 31.6148 5.49773ZM38.6051 2.03263V5.92717H38.0684V5.21638C37.9211 5.45331 37.7186 5.63841 37.4607 5.77168C37.2029 5.90002 36.9083 5.96419 36.5769 5.96419C36.0349 5.96419 35.6061 5.82351 35.2904 5.54215C34.9799 5.25586 34.8248 4.83877 34.8248 4.29087V2.03263H35.3851V4.23904C35.3851 4.64873 35.4929 4.9597 35.7087 5.17195C35.9244 5.3842 36.2322 5.49033 36.6321 5.49033C37.0688 5.49033 37.4134 5.36692 37.6659 5.12012C37.9185 4.86838 38.0448 4.52039 38.0448 4.07615V2.03263H38.6051ZM43.6628 2.03263L41.5871 6.39362C41.4188 6.75887 41.2241 7.01802 41.0031 7.17107C40.7822 7.32406 40.5165 7.40058 40.206 7.40058C40.0061 7.40058 39.8193 7.37095 39.6457 7.31169C39.4721 7.2525 39.3221 7.16361 39.1959 7.04516L39.4563 6.65278C39.6667 6.85018 39.9193 6.94895 40.2139 6.94895C40.4033 6.94895 40.5638 6.89956 40.6954 6.80086C40.8322 6.7021 40.9584 6.53427 41.0742 6.29737L41.2557 5.91976L39.401 2.03263H39.9851L41.5477 5.34224L43.1103 2.03263H43.6628Z" fill="white"/>
<defs>
<filter id="filter0_d" x="1.32559" y="1.18103" width="61.6744" height="46.8189" filterUnits="userSpaceOnUse" color-interpolation-filters="sRGB">
<feFlood flood-opacity="0" result="BackgroundImageFix"/>
<feColorMatrix in="SourceAlpha" type="matrix" values="0 0 0 0 0 0 0 0 0 0 0 0 0 0 0 0 0 0 127 0"/>
<feOffset dy="1"/>
<feGaussianBlur stdDeviation="1"/>
<feColorMatrix type="matrix" values="0 0 0 0 0 0 0 0 0 0 0 0 0 0 0 0 0 0 0.25 0"/>
<feBlend mode="normal" in2="BackgroundImageFix" result="effect1_dropShadow"/>
<feBlend mode="normal" in="SourceGraphic" in2="effect1_dropShadow" result="shape"/>
</filter>
</defs>
</svg>
