<svg width="1437" height="339" viewBox="0 0 1437 339" fill="none" xmlns="http://www.w3.org/2000/svg">
<path d="M358.5 288.001C451.008 288.001 526 283.55 526 278.058C526 272.567 451.008 268.116 358.5 268.116C265.992 268.116 191 272.567 191 278.058C191 283.55 265.992 288.001 358.5 288.001Z" fill="url(#paint0_linear)"/>
<path fill-rule="evenodd" clip-rule="evenodd" d="M253.765 13.8433C240.113 13.8433 228.945 24.925 228.945 38.4719C228.945 52.0188 240.113 63.1005 253.765 63.1005C256.503 63.1005 258.747 65.3261 258.747 68.0439C258.747 70.7617 256.503 72.9873 253.765 72.9873H240.778C234.118 72.9873 228.668 78.3952 228.668 85.0035C228.668 91.6118 234.118 97.0197 240.778 97.0197C246.537 97.0197 251.25 101.697 251.25 107.412C251.25 117.84 259.849 126.372 270.358 126.372H382.522C396.175 126.372 407.343 115.29 407.343 101.743C407.343 88.1964 396.175 77.1146 382.522 77.1146H380.122C377.383 77.1146 375.14 74.8917 375.14 72.1713C375.14 69.4535 377.38 67.2279 380.122 67.2279H396.282C402.942 67.2279 408.392 61.82 408.392 55.2117C408.392 48.6113 402.956 43.2093 396.307 43.1955H383.303C377.543 43.1955 372.83 38.5186 372.83 32.8034C372.83 22.375 364.232 13.8433 353.723 13.8433H253.765V13.8433Z" fill="url(#paint1_linear)"/>
<path d="M425.454 2.95689C425.117 2.8365 424.777 2.72742 424.433 2.62983C424.319 2.59693 424.206 2.56271 424.092 2.53375C423.848 2.47221 423.603 2.41364 423.357 2.35805C423.239 2.33173 423.122 2.31001 423.002 2.28764C422.756 2.242 422.508 2.20076 422.26 2.16393C422.115 2.14373 421.97 2.12531 421.824 2.10865C421.718 2.09615 421.613 2.0843 421.506 2.07377C421.339 2.05861 421.171 2.0461 421.004 2.03626C420.915 2.031 420.828 2.02244 420.739 2.01915C420.481 2.00665 420.222 2.00007 419.961 2.00007H300.296C299.473 1.99766 298.652 2.05971 297.839 2.18564C297.573 2.22654 297.308 2.27372 297.045 2.32713C290.216 3.71959 284.96 9.42104 284.243 16.461C284.188 17.0083 284.16 17.558 284.16 18.1081V262.278C284.16 269.25 288.596 275.186 294.805 277.43C294.833 277.44 294.861 277.449 294.889 277.457C295.197 277.566 295.51 277.665 295.825 277.755C295.939 277.788 296.052 277.822 296.167 277.851C296.289 277.882 296.41 277.912 296.531 277.941C296.654 277.97 296.778 277.999 296.903 278.027C297.02 278.053 297.138 278.075 297.258 278.097C297.504 278.143 297.751 278.184 297.998 278.221C298.142 278.242 298.287 278.259 298.434 278.276C298.539 278.288 298.645 278.301 298.752 278.311C298.919 278.326 299.086 278.338 299.254 278.349C299.342 278.354 299.431 278.363 299.519 278.366C299.776 278.378 300.036 278.385 300.298 278.385H419.964C420.521 278.385 421.071 278.357 421.615 278.302C429.208 277.533 435.246 271.504 436.018 263.923C436.074 263.381 436.101 262.831 436.101 262.275V18.1081C436.097 11.1359 431.661 5.20023 425.454 2.95755V2.95689Z" fill="white" stroke="#E1E4E5" stroke-width="4"/>
<path d="M360.138 265.263C365.276 265.263 369.441 261.115 369.441 255.999C369.441 250.882 365.276 246.734 360.138 246.734C355.001 246.734 350.836 250.882 350.836 255.999C350.836 261.115 355.001 265.263 360.138 265.263Z" fill="white" stroke="#E1E4E5" stroke-width="4"/>
<path d="M412.054 26.7021H309.027C301.729 26.7021 295.812 32.5946 295.812 39.8634V218.131C295.812 225.4 301.729 231.293 309.027 231.293H412.054C419.353 231.293 425.269 225.4 425.269 218.131V39.8634C425.269 32.5946 419.353 26.7021 412.054 26.7021Z" fill="white" stroke="#E1E4E5" stroke-width="4"/>
<path fill-rule="evenodd" clip-rule="evenodd" d="M338.344 98.929V102.121C338.345 102.968 338.683 103.78 339.285 104.379C339.887 104.978 340.702 105.314 341.553 105.314H380.065C380.916 105.314 381.732 104.978 382.334 104.379C382.935 103.78 383.274 102.968 383.275 102.121V98.8776C383.275 89.2166 372.177 82.94 360.809 82.94C349.442 82.94 338.344 89.2199 338.344 98.8776V98.929ZM352.866 53.9715C348.48 58.3404 348.48 65.4237 352.866 69.7926C357.253 74.1615 364.365 74.1615 368.752 69.7926C373.139 65.4237 373.139 58.3404 368.752 53.9715C364.365 49.6026 357.253 49.6026 352.866 53.9715V53.9715Z" fill="#666AF6"/>
<path d="M407.394 122.424H314.228C309.667 122.424 305.969 126.107 305.969 130.65C305.969 135.193 309.667 138.875 314.228 138.875H407.394C411.955 138.875 415.653 135.193 415.653 130.65C415.653 126.107 411.955 122.424 407.394 122.424Z" fill="white" stroke="#E1E4E5" stroke-width="4"/>
<path d="M407.394 147.432H314.228C309.667 147.432 305.969 151.115 305.969 155.658C305.969 160.201 309.667 163.884 314.228 163.884H407.394C411.955 163.884 415.653 160.201 415.653 155.658C415.653 151.115 411.955 147.432 407.394 147.432Z" fill="white" stroke="#E1E4E5" stroke-width="4"/>
<path d="M407.394 172.437H314.228C309.667 172.437 305.969 176.12 305.969 180.663C305.969 185.206 309.667 188.889 314.228 188.889H407.394C411.955 188.889 415.653 185.206 415.653 180.663C415.653 176.12 411.955 172.437 407.394 172.437Z" fill="#666AF6" stroke="#666AF6" stroke-width="4"/>
<path fill-rule="evenodd" clip-rule="evenodd" d="M270.809 150.596H268.962C268.515 150.596 268.156 150.235 268.156 149.794V147.954C268.156 147.51 268.519 147.152 268.962 147.152H270.809C271.251 147.152 271.615 147.513 271.615 147.954V149.794C271.619 150.235 271.255 150.596 270.809 150.596ZM264.405 150.596H262.559C262.116 150.596 261.752 150.235 261.752 149.794V147.954C261.752 147.51 262.116 147.152 262.559 147.152H264.405C264.848 147.152 265.211 147.513 265.211 147.954V149.794C265.211 150.235 264.848 150.596 264.405 150.596ZM257.999 150.596H256.152C255.709 150.596 255.346 150.235 255.346 149.794V147.954C255.346 147.51 255.709 147.152 256.152 147.152H257.999C258.441 147.152 258.805 147.513 258.805 147.954V149.794C258.808 150.235 258.445 150.596 257.999 150.596ZM251.595 150.596H249.749C249.306 150.596 248.942 150.235 248.942 149.794V147.954C248.942 147.51 249.306 147.152 249.749 147.152H251.595C252.042 147.152 252.405 147.513 252.405 147.954V149.794C252.403 150.007 252.317 150.21 252.165 150.36C252.014 150.51 251.809 150.595 251.595 150.596ZM245.192 150.596H243.345C242.899 150.596 242.535 150.235 242.535 149.794V147.954C242.535 147.51 242.899 147.152 243.345 147.152H245.192C245.635 147.152 245.998 147.513 245.998 147.954V149.794C245.998 150.235 245.635 150.596 245.192 150.596ZM264.171 143.643H262.324C261.881 143.643 261.518 143.281 261.518 142.84V140.997C261.518 140.556 261.881 140.194 262.324 140.194H264.171C264.617 140.194 264.977 140.556 264.977 140.997V142.836C264.978 142.942 264.957 143.047 264.917 143.145C264.877 143.243 264.818 143.332 264.743 143.407C264.668 143.482 264.579 143.541 264.48 143.582C264.382 143.622 264.277 143.643 264.171 143.643V143.643ZM257.767 143.643H255.921C255.478 143.643 255.115 143.281 255.115 142.84V140.997C255.115 140.556 255.478 140.194 255.921 140.194H257.767C258.21 140.194 258.574 140.556 258.574 140.997V142.836C258.574 142.942 258.554 143.047 258.514 143.145C258.473 143.243 258.414 143.332 258.339 143.407C258.264 143.482 258.175 143.541 258.077 143.582C257.979 143.622 257.874 143.643 257.767 143.643ZM251.364 143.643H249.517C249.071 143.643 248.708 143.281 248.708 142.84V140.997C248.708 140.556 249.071 140.194 249.517 140.194H251.364C251.807 140.194 252.17 140.556 252.17 140.997V142.836C252.17 143.281 251.807 143.643 251.364 143.643ZM257.999 158.067H256.152C255.709 158.067 255.346 157.705 255.346 157.264V155.425C255.346 154.98 255.709 154.622 256.152 154.622H257.999C258.441 154.622 258.805 154.984 258.805 155.425V157.264C258.808 157.705 258.445 158.067 257.999 158.067ZM251.595 158.067H249.749C249.306 158.067 248.942 157.705 248.942 157.264V155.425C248.942 154.98 249.306 154.622 249.749 154.622H251.595C252.042 154.622 252.405 154.984 252.405 155.425V157.264C252.403 157.477 252.317 157.68 252.165 157.831C252.014 157.981 251.809 158.066 251.595 158.067V158.067Z" fill="#E1E4E5"/>
<path d="M404.442 213.897C404.442 216.077 406.217 217.845 408.407 217.845C410.596 217.845 412.371 216.077 412.371 213.897C412.371 211.716 410.596 209.948 408.407 209.948C406.217 209.948 404.442 211.716 404.442 213.897Z" fill="#E1E4E5"/>
<path d="M257.071 44.1149C257.071 46.2955 258.846 48.0633 261.036 48.0633C263.225 48.0633 265 46.2955 265 44.1149C265 41.9343 263.225 40.1665 261.036 40.1665C258.846 40.1665 257.071 41.9343 257.071 44.1149Z" fill="#E1E4E5"/>
<path d="M219.623 202.563C221.357 202.1 222.386 200.325 221.921 198.598C221.456 196.871 219.674 195.846 217.94 196.309C216.206 196.772 215.177 198.547 215.642 200.274C216.107 202.001 217.889 203.025 219.623 202.563Z" fill="#E1E4E5"/>
<path d="M398.679 84.8477C399.079 87.9221 400.148 91.6283 401.879 92.8872C403.843 94.3159 404.45 95.8327 404.45 95.8327L406.445 95.2207L408.83 94.4883C408.83 94.4883 408.834 94.2454 408.819 93.842C408.801 93.3097 408.758 92.7786 408.691 92.2502C408.691 92.2502 408.236 91.2763 408.874 90.33C409.511 89.3857 409.804 87.7648 409.355 86.6323C408.909 85.5037 408.816 82.9465 408.394 82.9261C407.371 82.8695 408.072 86.5125 407.507 87.0258C406.999 87.4944 406.564 87.1943 406.487 87.1298L406.471 87.1173C403.994 85.2741 402.161 77.9933 400.476 78.5329C399.849 78.7329 398.507 83.5388 398.679 84.8477V84.8477ZM499.383 160.504C499.383 160.504 497.268 164.149 498.215 166.251C499.16 168.355 502.438 171.158 503.284 172.259C504.126 173.357 506.986 176.258 508.138 174.392C509.29 172.529 507.256 167.575 505.846 165.708C504.438 163.836 504.304 160.626 504.304 160.626L499.383 160.504Z" fill="#F8AE9D"/>
<path d="M498.051 165.645C498.051 165.645 498.212 169.661 498.404 170.733C498.597 171.807 498.787 171.479 499.524 170.758C500.262 170.036 500.253 167.935 500.529 167.796C500.806 167.658 498.051 165.645 498.051 165.645V165.645Z" fill="#F8AE9D"/>
<path d="M461.033 84.4082C461.033 84.4082 436.364 110.891 428.684 115.041L409.335 92.2951C409.335 92.2951 405.703 92.5484 403.43 95.5992C403.43 95.5992 410.936 127.68 424.633 132.122C438.33 136.566 466.253 105.329 466.253 105.329L461.033 84.4082V84.4082ZM438.033 278.533H463.365C464.582 277.105 464.133 271.829 463.951 270.104C463.913 269.756 463.887 269.556 463.887 269.556C463.887 269.556 455.236 262.904 454.048 267.998C454.013 268.157 453.97 268.314 453.92 268.469C452.425 273.233 445.709 275.398 441.834 276.002C439.31 276.393 438.378 277.653 438.033 278.533V278.533Z" fill="#31446C"/>
<path d="M455.09 278.535H480.422C481.639 277.106 481.191 271.831 481.008 270.106C480.97 269.758 480.944 269.558 480.944 269.558C480.944 269.558 472.294 262.905 471.106 267.999C471.07 268.158 471.027 268.315 470.978 268.471C469.482 273.235 462.766 275.4 458.891 276.003C456.368 276.395 455.435 277.655 455.09 278.535V278.535Z" fill="#31446C"/>
<path d="M444.961 165.094C444.961 165.094 446.172 178.149 447.595 193.839C449.53 215.155 451.857 241.338 452.088 246.298C452.487 254.912 454.081 268.688 454.081 268.688C454.081 268.688 457.868 271.961 465.447 270.581C465.447 270.581 472.202 250.914 474.131 230.103L474.22 229.075C476.015 207.892 478.803 163.282 478.803 163.282L444.961 165.094V165.094Z" fill="#666AF6"/>
<path d="M451.844 165.991C451.844 165.991 454.128 178.916 456.84 194.453C460.527 215.559 465.005 241.488 465.639 246.413C466.738 254.964 469.472 268.585 469.472 268.585C469.472 268.585 473.59 271.621 481.195 269.802C481.195 269.802 486.488 249.825 486.776 228.994L486.783 227.966C486.906 206.772 486.152 162.2 486.152 162.2L451.844 165.991V165.991Z" fill="#666AF6"/>
<path d="M455.77 89.1779C464.474 91.9154 478.838 84.1976 478.838 84.1976C478.838 84.1976 471.511 78.5278 471.93 66.0522L465.2 71.4556L460.628 75.1236C460.628 75.1236 460.646 77.288 461.146 81.0791C461.279 82.0754 461.52 83.6337 460.769 84.4319C457.855 87.5301 455.77 89.1779 455.77 89.1779Z" fill="#F8AE9D"/>
<path d="M457.954 74.9205C457.954 74.9205 472.334 77.3007 473.684 68.3583C475.034 59.4159 477.798 53.7006 468.675 51.8034C459.551 49.9069 457.246 53.0491 456.067 55.9249C454.889 58.8006 454.25 74.071 457.954 74.9205V74.9205Z" fill="#F8AE9D"/>
<path d="M443.601 169.721C443.863 169.937 444.168 170.069 444.517 170.069C447.787 170.025 457.321 171.834 465.386 171.009C472.186 170.358 478.208 168.352 484.67 165.468C485.529 165.083 487.504 164.033 487.461 163.078C487.431 162.03 487.329 160.515 487.196 158.603C486.738 151.957 485.942 140.529 486.72 127.342C486.858 124.887 486.933 122.453 486.943 120.054C487.009 102.182 483.453 86.4638 476.3 81.1447C475.688 80.7097 471.939 82.5345 468.494 84.2251C465.311 85.7887 462.815 85.9538 459.808 85.3478L456.115 88.0011C452.453 91.3868 448.441 95.9919 446.696 102.98C445.214 108.929 444.342 119.655 443.863 130.771C443.646 135.807 443.471 140.89 443.426 145.707V145.878C443.384 146.355 443.384 146.878 443.384 147.355C443.209 159.735 443.384 169.547 443.601 169.721V169.721Z" fill="#31446C"/>
<path d="M501.539 162.362C498.81 162.731 495.897 162.35 495.897 162.35C495.897 162.35 489.315 137.237 488.413 134.928C487.512 132.617 466.293 104.653 466.293 104.653L477.15 81.558C477.15 81.558 499.398 123.945 501.564 129.845C505.143 139.595 505.34 161.006 505.34 161.006C505.34 161.006 503.684 162.074 501.539 162.362ZM475.295 65.1558C474.512 66.7681 472.241 67.0063 472.451 65.2282C472.689 63.2047 472.686 60.5573 471.034 61.0495C469.382 61.5418 469.298 62.8599 468.62 62.0912C467.942 61.3226 467.93 58.081 463.011 57.8527C458.092 57.6276 456.094 59.3326 453.809 58.3298C452.44 57.7303 451.847 56.2542 451.592 55.1664C451.52 54.8585 451.744 54.4281 451.951 54.6683C452.147 54.8953 452.638 54.8815 452.498 54.617C451.631 52.9797 450.336 49.4058 453.637 46.7432C458.056 43.1798 462.559 45.5127 465.115 45.6653C470.748 46.0049 474.386 46.3412 476.224 50.027C477.749 53.085 477.487 60.6395 475.295 65.1558Z" fill="#31446C"/>
<path d="M220.429 240.259C216.767 243.97 209.919 243.188 209.919 243.188C209.919 243.188 209.014 236.387 212.679 232.677C216.341 228.965 223.185 229.746 223.185 229.746C223.185 229.746 224.091 236.547 220.429 240.259V240.259Z" fill="url(#paint2_linear)"/>
<path d="M503.189 255.355C505.561 255.355 507.484 253.44 507.484 251.077C507.484 248.715 505.561 246.8 503.189 246.8C500.817 246.8 498.895 248.715 498.895 251.077C498.895 253.44 500.817 255.355 503.189 255.355Z" fill="#E1E4E5"/>
<path d="M304.326 124.341L294.08 121.544L302.02 127.389C296.713 134.353 291.196 141.877 290.693 150.754C290.517 153.651 290.165 156.399 289.578 158.963L277.479 161.577L274.326 162.252L278.368 162.587L288.328 163.422C287.633 165.468 286.811 167.389 285.855 169.167C281.386 177.534 273.546 201.834 265.002 203.196H264.994C264.734 202.678 252.501 178.72 263.795 142.077C265.254 137.37 267.199 132.825 269.597 128.516C269.672 128.375 269.748 128.241 269.823 128.107C283.541 103.707 308.409 91.8739 311.813 104.317C313.683 111.131 309.474 117.536 304.326 124.341V124.341Z" fill="#666AF6"/>
<path d="M285.869 169.186C279.136 190.73 273.56 201.853 265.017 203.214H265.008C264.664 203.214 245.949 202.947 262.233 144.393C263.599 139.491 267.196 132.844 269.611 128.535C269.687 128.393 269.762 128.26 269.837 128.126C269.099 134.297 268.764 143.491 271.481 151.817C271.481 151.817 273.351 156.501 277.493 161.595L274.34 162.272L278.381 162.606C280.386 164.902 282.867 167.24 285.869 169.186V169.186Z" fill="#666AF6"/>
<path d="M264.88 231.347C264.285 147.624 294.134 107.533 309.956 101.271" stroke="#666AF6" stroke-width="2.5" stroke-miterlimit="10"/>
<path d="M264.803 151.957L259.176 157.009L264.937 155.272C265.373 172.842 262.187 189.543 253.626 191.079C242.273 193.142 235.917 162.979 235.523 141.736L243.639 143.84L235.599 138.545C235.64 137.227 235.716 133.393 235.817 132.224C236.94 119.732 241.158 106.989 248.729 99.0557C253.441 106.814 257.466 115.757 260.317 124.609C262.706 132.007 264.316 141.978 264.803 151.957V151.957Z" fill="#666AF6"/>
<path d="M235.805 132.224L260.313 124.609C257.471 115.757 253.43 106.822 248.726 99.0557C241.163 106.989 236.929 119.732 235.805 132.224Z" fill="#666AF6"/>
<path d="M250.105 103.323C253.459 138.571 254.876 205.625 252.839 229.825" stroke="#666AF6" stroke-width="2.5" stroke-miterlimit="10"/>
<path d="M242.471 203.28C235.998 205.919 225.123 191.898 216.755 173.527C216.27 172.448 215.795 171.366 215.33 170.279C214.418 168.145 213.557 165.99 212.748 163.815L217.971 162.972L211.171 159.415C207.507 148.567 205.101 137.31 205.117 127.691L230.162 132.684C236.116 142.405 240.97 155.924 243.846 168.559L241.272 175.949L244.877 173.477C247.736 188.483 247.468 201.251 242.471 203.28V203.28Z" fill="#666AF6"/>
<path d="M212.531 133.25C230.911 171.587 249.264 214.134 247.78 232.246" stroke="#666AF6" stroke-width="2.5" stroke-miterlimit="10"/>
<path d="M246.716 157.471C246.716 157.471 239.288 153.889 235.406 144.869L220.598 142.97L234.222 141.458C233.406 138.562 232.956 135.25 233.144 131.427C233.166 130.994 233.162 130.574 233.184 130.142C229.342 130.214 224.376 130.168 223.906 130.151L233.201 125.406C232.296 101.302 219.018 86.5301 211.856 104.129C210.394 107.74 208.54 111.76 206.864 116.577L210.542 127.149L205.155 121.692C204.674 123.262 204.597 123.685 204.51 124.674C203.756 133.282 208.102 141.541 215.358 146.312C224.452 152.263 238.378 159.973 246.716 157.471V157.471Z" fill="#666AF6"/>
<path d="M237.945 269.749L240.984 222.707H269.51L272.795 269.705C273.145 274.782 269.105 279.096 263.993 279.096H246.746C241.648 279.096 237.616 274.811 237.945 269.749Z" fill="white" stroke="#E1E4E5" stroke-width="4"/>
<path d="M236.398 224.242V218.541H274.404V224.242H236.398Z" fill="#E1E4E5" stroke="#E1E4E5" stroke-width="4"/>
<path fill-rule="evenodd" clip-rule="evenodd" d="M0 257.85L45.8617 261.538C99.367 268.916 191.09 283.67 290.457 287.359C382.181 291.048 481.548 283.67 573.271 272.604C672.638 261.538 764.362 250.472 863.729 228.34C955.452 209.897 1054.82 180.388 1146.54 173.011C1245.91 165.633 1337.63 180.388 1391.14 187.765L1437 195.143V339H1391.14C1337.63 339 1245.91 339 1146.54 339C1054.82 339 955.452 339 863.729 339C764.362 339 672.638 339 573.271 339C481.548 339 382.181 339 290.457 339C191.09 339 99.367 339 45.8617 339H0V257.85Z" fill="url(#paint3_linear)"/>
<defs>
<linearGradient id="paint0_linear" x1="365.643" y1="299.15" x2="365.607" y2="246.476" gradientUnits="userSpaceOnUse">
<stop stop-color="white"/>
<stop offset="1" stop-color="#EEEEEE"/>
</linearGradient>
<linearGradient id="paint1_linear" x1="322.362" y1="189.462" x2="320.189" y2="-108.593" gradientUnits="userSpaceOnUse">
<stop stop-color="white"/>
<stop offset="1" stop-color="#EEEEEE"/>
</linearGradient>
<linearGradient id="paint2_linear" x1="205.819" y1="252.938" x2="232.14" y2="211.509" gradientUnits="userSpaceOnUse">
<stop stop-color="white"/>
<stop offset="1" stop-color="#EEEEEE"/>
</linearGradient>
<linearGradient id="paint3_linear" x1="718.5" y1="268.5" x2="718.5" y2="339" gradientUnits="userSpaceOnUse">
<stop stop-color="#27003F" stop-opacity="0.97"/>
<stop offset="1" stop-color="#834EA3"/>
</linearGradient>
</defs>
</svg>
