<svg width="527" height="25" viewBox="0 0 527 25" fill="none" xmlns="http://www.w3.org/2000/svg">
<path d="M524.203 0.930176H476.675C476.305 0.930176 475.948 1.0765 475.687 1.33697C475.424 1.59744 475.277 1.95071 475.277 2.31906V22.6801C475.277 23.0485 475.424 23.4018 475.687 23.6622C475.948 23.9228 476.305 24.069 476.675 24.069H524.203C524.573 24.069 524.93 23.9228 525.191 23.6622C525.454 23.4018 525.601 23.0485 525.601 22.6801V2.31906C525.601 1.95071 525.454 1.59744 525.191 1.33697C524.93 1.0765 524.573 0.930176 524.203 0.930176Z" fill="white" stroke="#E0E0E0" stroke-width="0.67"/>
<path d="M496.598 9.4585H494.753V10.8474H496.906V11.4585H493.984V6.94461H496.878V7.56961H494.753V8.80572H496.598V9.4585ZM500.037 10.4029H498.304L497.94 11.4307H497.144L498.835 6.94461H499.52L501.211 11.3891H500.443L500.037 10.4029ZM498.527 9.72239H499.827L499.17 7.87517L498.527 9.72239ZM504.119 10.2363C504.123 10.1489 504.105 10.0618 504.069 9.98217C504.032 9.90251 503.978 9.83254 503.909 9.77794C503.679 9.6364 503.43 9.52879 503.168 9.4585C502.862 9.38154 502.57 9.25983 502.302 9.09739C502.121 9.00218 501.97 8.86025 501.864 8.68665C501.758 8.51305 501.702 8.31424 501.701 8.11128C501.696 7.9396 501.734 7.76947 501.81 7.61492C501.885 7.46036 501.996 7.32582 502.134 7.22239C502.46 7.00983 502.85 6.91204 503.238 6.94461C503.522 6.93918 503.803 6.9961 504.063 7.11128C504.302 7.21978 504.505 7.39308 504.65 7.61128C504.79 7.81599 504.863 8.05837 504.86 8.30572H504.077C504.084 8.20437 504.069 8.10262 504.03 8.00858C503.99 7.91454 503.93 7.8308 503.853 7.76405C503.768 7.68936 503.667 7.63243 503.56 7.59665C503.452 7.56087 503.338 7.54696 503.224 7.55572C503.015 7.54346 502.808 7.60224 502.637 7.72239C502.569 7.77699 502.513 7.84696 502.476 7.92661C502.44 8.00625 502.423 8.09332 502.428 8.18072C502.432 8.26028 502.454 8.33785 502.493 8.4076C502.531 8.47736 502.585 8.5375 502.651 8.5835C502.886 8.72629 503.139 8.83393 503.406 8.90294C503.7 8.98132 503.982 9.09808 504.245 9.25017C504.408 9.37672 504.543 9.53804 504.636 9.72239C504.741 9.9039 504.794 10.1104 504.79 10.3196C504.794 10.4895 504.758 10.6581 504.682 10.8106C504.607 10.9631 504.495 11.095 504.357 11.1946C504.02 11.4339 503.61 11.5515 503.196 11.5279C502.889 11.5324 502.583 11.4708 502.302 11.3474C502.05 11.2404 501.832 11.0676 501.673 10.8474C501.52 10.6375 501.442 10.3837 501.449 10.1252H502.218C502.212 10.235 502.232 10.3447 502.275 10.4458C502.319 10.5469 502.386 10.6367 502.469 10.7085C502.681 10.8587 502.936 10.9322 503.196 10.9168C503.414 10.9311 503.631 10.8724 503.811 10.7502C503.888 10.7001 503.951 10.6321 503.995 10.5522C504.038 10.4723 504.062 10.3829 504.063 10.2918L504.119 10.2363ZM507.041 9.04183L508.019 6.94461H508.83L507.334 9.72239V11.4307H506.551V9.80572L505.056 7.02794H505.908L507.041 9.04183ZM513.597 9.40294H511.751V10.7918H513.904V11.4029H510.927V6.94461H513.834V7.56961H511.695V8.80572H513.541L513.597 9.40294ZM515.484 6.94461L516.784 10.3613L518.07 6.94461H519.076V11.3891H518.293V9.97239L518.377 8.01405L517.049 11.4307H516.49L515.176 8.01405L515.26 9.97239V11.4307H514.421V6.94461H515.484ZM520.81 11.3891H520.013V6.94461H520.782L520.81 11.3891ZM497.549 16.2362C497.56 16.6276 497.483 17.0165 497.325 17.3751C497.19 17.6904 496.96 17.9569 496.668 18.139C496.378 18.3136 496.043 18.4049 495.704 18.4029C495.36 18.4032 495.022 18.3121 494.725 18.139C494.44 17.9551 494.212 17.6953 494.068 17.389C493.912 17.0346 493.836 16.6507 493.845 16.264V16.014C493.835 15.6183 493.912 15.2253 494.068 14.8612C494.208 14.5487 494.436 14.2833 494.725 14.0974C495.013 13.9164 495.349 13.8245 495.69 13.8335C496.035 13.8251 496.375 13.9168 496.668 14.0974C496.955 14.2753 497.18 14.5374 497.311 14.8474C497.475 15.2047 497.556 15.5937 497.549 15.9862V16.2362ZM496.78 16.0001C496.807 15.6036 496.703 15.209 496.487 14.8751C496.4 14.7456 496.281 14.6403 496.141 14.5697C496.002 14.4992 495.846 14.4656 495.69 14.4724C495.536 14.4693 495.384 14.5046 495.247 14.5749C495.11 14.6453 494.994 14.7485 494.907 14.8751C494.697 15.2019 494.594 15.5853 494.613 15.9724V16.2362C494.588 16.6326 494.692 17.0267 494.907 17.3612C494.999 17.4849 495.119 17.5851 495.258 17.6543C495.396 17.7235 495.549 17.7594 495.704 17.7594C495.859 17.7594 496.011 17.7235 496.15 17.6543C496.288 17.5851 496.408 17.4849 496.501 17.3612C496.706 17.0179 496.804 16.6212 496.78 16.2224V16.0001ZM499.101 16.6946V18.3335H498.318V13.889H500.037C500.468 13.8699 500.89 14.0082 501.225 14.2779C501.368 14.409 501.481 14.5681 501.558 14.745C501.635 14.9219 501.674 15.1129 501.673 15.3057C501.682 15.4962 501.648 15.6864 501.573 15.8621C501.498 16.0376 501.383 16.194 501.239 16.3196C500.893 16.5874 500.461 16.7207 500.023 16.6946H499.101ZM499.101 16.0696H500.037C500.264 16.0853 500.489 16.0158 500.666 15.8751C500.743 15.8056 500.803 15.7194 500.842 15.6232C500.882 15.5268 500.897 15.4231 500.89 15.3196C500.895 15.2122 500.879 15.1047 500.841 15.0042C500.802 14.9037 500.743 14.8124 500.666 14.7362C500.494 14.5911 500.276 14.5122 500.051 14.514H499.045L499.101 16.0696ZM505.573 14.514H504.175V18.3335H503.406V14.5557H502.008V13.889H505.545L505.573 14.514ZM506.971 18.3335H506.202V13.889H506.971V18.3335ZM511.5 16.2362C511.511 16.6276 511.434 17.0165 511.276 17.3751C511.136 17.6876 510.907 17.9531 510.619 18.139C510.328 18.3136 509.994 18.4049 509.655 18.4029C509.311 18.4032 508.972 18.3121 508.676 18.139C508.391 17.9551 508.163 17.6953 508.019 17.389C507.863 17.0346 507.787 16.6507 507.795 16.264V16.014C507.786 15.6183 507.863 15.2253 508.019 14.8612C508.159 14.5487 508.387 14.2833 508.676 14.0974C508.964 13.9164 509.299 13.8245 509.641 13.8335C509.984 13.8267 510.324 13.9182 510.619 14.0974C510.906 14.2753 511.131 14.5374 511.262 14.8474C511.426 15.2047 511.507 15.5937 511.5 15.9862V16.2362ZM510.717 16.0001C510.748 15.6051 510.65 15.2107 510.437 14.8751C510.351 14.7456 510.232 14.6403 510.092 14.5697C509.952 14.4992 509.797 14.4656 509.641 14.4724C509.487 14.4693 509.334 14.5046 509.197 14.5749C509.06 14.6453 508.944 14.7485 508.858 14.8751C508.648 15.2019 508.545 15.5853 508.564 15.9724V16.2362C508.539 16.6326 508.642 17.0267 508.858 17.3612C508.944 17.491 509.063 17.5962 509.203 17.6668C509.343 17.7374 509.498 17.7708 509.655 17.764C509.807 17.7712 509.959 17.7393 510.096 17.6712C510.233 17.6031 510.351 17.5012 510.437 17.3751C510.65 17.0346 510.748 16.6357 510.717 16.2362V16.0001ZM515.819 18.3751H515.05L513.023 15.2779V18.4307H512.241V13.889H513.023L515.022 17.0557V13.889H515.819V18.3751ZM519.076 17.2362C519.08 17.1489 519.062 17.0618 519.026 16.9822C518.99 16.9025 518.935 16.8325 518.867 16.7779C518.636 16.6364 518.387 16.5287 518.126 16.4585C517.82 16.3815 517.527 16.2599 517.259 16.0974C517.079 16.0022 516.928 15.8603 516.821 15.6867C516.715 15.5131 516.659 15.3143 516.658 15.1112C516.654 14.9396 516.691 14.7694 516.767 14.6149C516.842 14.4604 516.953 14.3258 517.091 14.2224C517.42 13.976 517.827 13.853 518.238 13.8752C518.521 13.8697 518.802 13.9267 519.062 14.0418C519.3 14.1464 519.5 14.3208 519.635 14.5418C519.781 14.7435 519.855 14.9881 519.845 15.2362H519.076C519.083 15.1349 519.068 15.0332 519.029 14.9392C518.99 14.8451 518.929 14.7614 518.853 14.6946C518.767 14.6199 518.667 14.5631 518.559 14.5272C518.451 14.4914 518.337 14.4775 518.224 14.4862C518.014 14.474 517.807 14.5328 517.636 14.6529C517.568 14.7075 517.512 14.7775 517.476 14.8572C517.439 14.9368 517.423 15.0239 517.427 15.1112C517.427 15.1915 517.448 15.2703 517.487 15.3406C517.526 15.411 517.582 15.4706 517.65 15.514C517.885 15.6568 518.138 15.7644 518.405 15.8335C518.699 15.9118 518.981 16.0286 519.244 16.1807C519.431 16.2953 519.589 16.4522 519.705 16.639C519.81 16.8206 519.863 17.0271 519.859 17.2362C519.86 17.4057 519.823 17.5731 519.747 17.725C519.672 17.8769 519.561 18.0093 519.426 18.1112C519.089 18.3506 518.679 18.4682 518.265 18.4446C517.958 18.4504 517.652 18.3887 517.371 18.264C517.116 18.1624 516.897 17.9885 516.742 17.764C516.589 17.5542 516.511 17.3004 516.518 17.0418H517.287C517.281 17.1517 517.301 17.2614 517.344 17.3625C517.388 17.4635 517.455 17.5533 517.539 17.6251C517.748 17.7775 518.005 17.8512 518.265 17.8335C518.479 17.8501 518.692 17.7911 518.867 17.6668C518.936 17.6189 518.994 17.5544 519.033 17.4794C519.072 17.4043 519.092 17.3208 519.09 17.2362H519.076Z" fill="#4E4E4E"/>
<path fill-rule="evenodd" clip-rule="evenodd" d="M488.49 8.111V6.94434H487.399V8.111H483.01V6.94434H481.906V8.111H481.361C481.212 8.11638 481.066 8.15082 480.93 8.21238C480.795 8.27393 480.673 8.36139 480.572 8.46975C480.47 8.57811 480.392 8.70524 480.34 8.84386C480.288 8.9825 480.265 9.12991 480.27 9.27767V16.8888C480.263 17.1885 480.374 17.4792 480.581 17.6975C480.788 17.916 481.073 18.0446 481.375 18.0554H489.049C489.351 18.0446 489.636 17.916 489.843 17.6975C490.048 17.4792 490.16 17.1885 490.153 16.8888V9.27767C490.16 8.97792 490.048 8.68731 489.843 8.46889C489.636 8.25048 489.351 8.12188 489.049 8.111H488.49ZM481.361 16.8888V10.4582H489.035V16.8888H481.361Z" fill="#212121"/>
<path d="M483.972 13.7499C484.249 13.7499 484.519 13.6685 484.749 13.5159C484.979 13.3633 485.158 13.1463 485.264 12.8926C485.37 12.6388 485.398 12.3595 485.343 12.0901C485.289 11.8207 485.156 11.5732 484.96 11.379C484.765 11.1847 484.516 11.0524 484.245 10.9989C483.974 10.9453 483.693 10.9728 483.438 11.0779C483.182 11.183 482.964 11.361 482.81 11.5894C482.657 11.8178 482.574 12.0864 482.574 12.3611C482.574 12.7294 482.722 13.0827 482.984 13.3432C483.247 13.6036 483.602 13.7499 483.972 13.7499Z" fill="#212121"/>
<path d="M486.167 16.3749C486.444 16.3749 486.714 16.2935 486.945 16.1409C487.174 15.9882 487.353 15.7713 487.459 15.5175C487.565 15.2638 487.592 14.9845 487.539 14.715C487.484 14.4457 487.351 14.1982 487.156 14.0039C486.96 13.8097 486.711 13.6774 486.44 13.6239C486.169 13.5703 485.888 13.5978 485.632 13.7029C485.378 13.808 485.158 13.986 485.006 14.2145C484.852 14.4428 484.77 14.7114 484.77 14.986C484.77 15.3545 484.916 15.7077 485.179 15.9681C485.44 16.2286 485.797 16.3749 486.167 16.3749Z" fill="#212121"/>
<path d="M486.127 11.9165L483.82 15.4721" stroke="#212121" stroke-width="0.63" stroke-linecap="square"/>
<path d="M466.434 0.930176H418.906C418.535 0.930176 418.179 1.0765 417.917 1.33697C417.655 1.59744 417.508 1.95071 417.508 2.31906V22.6801C417.508 23.0485 417.655 23.4018 417.917 23.6622C418.179 23.9228 418.535 24.069 418.906 24.069H466.434C466.804 24.069 467.159 23.9228 467.422 23.6622C467.685 23.4018 467.831 23.0485 467.831 22.6801V2.31906C467.831 1.95071 467.685 1.59744 467.422 1.33697C467.159 1.0765 466.804 0.930176 466.434 0.930176Z" fill="white" stroke="#E0E0E0" stroke-width="0.67"/>
<path d="M436.799 9.98574C436.772 10.4102 436.582 10.8082 436.268 11.0968C435.921 11.3767 435.484 11.52 435.038 11.4996C434.708 11.5065 434.384 11.4198 434.101 11.2496C433.829 11.0709 433.61 10.821 433.472 10.5274C433.316 10.1875 433.234 9.81796 433.234 9.44407V9.04129C433.232 8.65958 433.307 8.28135 433.458 7.93018C433.603 7.62782 433.834 7.37382 434.122 7.19883C434.41 7.02385 434.743 6.93536 435.08 6.94407C435.513 6.92472 435.937 7.06858 436.268 7.34685C436.584 7.63978 436.774 8.04282 436.799 8.47185H436.016C436.011 8.21447 435.911 7.9679 435.737 7.7774C435.554 7.62618 435.317 7.55151 435.08 7.56907C434.927 7.56163 434.776 7.59204 434.641 7.65754C434.504 7.72306 434.385 7.82156 434.297 7.94407C434.097 8.26421 433.999 8.63713 434.017 9.0135V9.41629C433.999 9.79963 434.091 10.1801 434.283 10.5135C434.365 10.6357 434.479 10.7346 434.61 10.8003C434.743 10.8661 434.89 10.8964 435.038 10.8885C435.285 10.9105 435.53 10.8357 435.723 10.6802C435.904 10.499 436.009 10.2554 436.016 9.99963L436.799 9.98574ZM440 10.4024H438.267L437.903 11.4302H437.093L438.784 6.94407H439.483L441.174 11.3885H440.336L440 10.4024ZM438.476 9.72185H439.777L439.134 7.87463L438.476 9.72185ZM444.068 10.2357C444.069 10.1488 444.05 10.0627 444.013 9.98354C443.979 9.90438 443.924 9.83401 443.858 9.7774C443.623 9.636 443.369 9.52845 443.103 9.45796C442.802 9.38413 442.514 9.26217 442.251 9.09685C442.069 9.00231 441.915 8.8609 441.808 8.68743C441.699 8.51396 441.64 8.31478 441.636 8.11074C441.631 7.93904 441.669 7.76892 441.745 7.61436C441.82 7.45982 441.931 7.32528 442.069 7.22185C442.385 7.01997 442.757 6.92272 443.131 6.94407C443.419 6.93885 443.706 6.9957 443.97 7.11074C444.202 7.21758 444.401 7.38574 444.543 7.59685C444.682 7.80731 444.754 8.05371 444.753 8.30518H443.984C443.988 8.20415 443.972 8.10333 443.932 8.00978C443.893 7.91622 443.835 7.83217 443.76 7.76351C443.586 7.61657 443.361 7.542 443.131 7.55518C442.922 7.5429 442.715 7.60168 442.544 7.72185C442.474 7.77574 442.417 7.84522 442.378 7.92478C442.339 8.00433 442.319 8.09176 442.321 8.18018C442.325 8.26146 442.347 8.34063 442.389 8.41082C442.431 8.481 442.488 8.5401 442.558 8.58296C442.789 8.7245 443.038 8.8321 443.299 8.9024C443.593 8.98076 443.875 9.09753 444.138 9.24963C444.335 9.35747 444.499 9.51574 444.613 9.70795C444.711 9.8865 444.76 10.0879 444.753 10.2913C444.759 10.4633 444.722 10.6343 444.647 10.7892C444.571 10.9441 444.459 11.0783 444.32 11.1802C443.983 11.4195 443.573 11.5371 443.159 11.5135C442.852 11.5113 442.549 11.45 442.265 11.333C442.016 11.2215 441.799 11.0495 441.636 10.833C441.483 10.6231 441.405 10.3693 441.412 10.1107H442.195C442.189 10.2206 442.209 10.3302 442.252 10.4313C442.297 10.5324 442.363 10.6223 442.446 10.6941C442.652 10.8443 442.905 10.918 443.159 10.9024C443.377 10.9188 443.594 10.86 443.774 10.7357C443.851 10.6898 443.916 10.6247 443.959 10.5467C444.004 10.4688 444.026 10.3807 444.026 10.2913L444.068 10.2357ZM449.072 11.3746H448.304V9.45796H446.291V11.4302H445.522V6.94407H446.291V8.84685H448.304V6.94407H449.072V11.3746ZM455.125 9.2774C455.136 9.66878 455.06 10.0577 454.902 10.4163C454.766 10.7315 454.537 10.9981 454.245 11.1802C453.952 11.3526 453.62 11.4436 453.28 11.4436C452.94 11.4436 452.608 11.3526 452.316 11.1802C452.028 10.9998 451.798 10.7389 451.658 10.4302C451.491 10.0744 451.408 9.68419 451.421 9.29129V9.09685C451.411 8.70558 451.488 8.31693 451.645 7.95796C451.784 7.64542 452.012 7.38001 452.302 7.19407C452.517 7.05517 452.76 6.964 453.014 6.92675C453.269 6.8895 453.527 6.90706 453.773 6.97821C454.021 7.04936 454.249 7.17246 454.443 7.33913C454.639 7.50578 454.794 7.7121 454.902 7.94407C455.053 8.30464 455.129 8.69217 455.125 9.08296V9.2774ZM454.314 9.09685C454.34 8.69603 454.236 8.29765 454.021 7.95796C453.933 7.83381 453.815 7.73329 453.678 7.66542C453.543 7.59753 453.39 7.56443 453.238 7.56907C453.083 7.56457 452.931 7.59764 452.791 7.66542C452.652 7.73318 452.532 7.8336 452.441 7.95796C452.234 8.29083 452.131 8.67786 452.148 9.06907V9.33296C452.123 9.72938 452.226 10.1233 452.441 10.458C452.531 10.5849 452.65 10.688 452.789 10.7582C452.928 10.8285 453.082 10.8637 453.238 10.8607C453.393 10.869 453.548 10.8376 453.687 10.7695C453.827 10.7015 453.947 10.599 454.035 10.4718C454.24 10.1285 454.338 9.73181 454.314 9.33296V9.09685ZM459.403 11.4302H458.634L456.635 8.33296V11.4302H455.866V6.94407H456.635L458.634 10.1107V6.94407H459.403V11.4302ZM433.388 18.3746V13.8885H434.744C435.11 13.887 435.471 13.9778 435.793 14.1524C436.097 14.33 436.345 14.5902 436.505 14.9024C436.677 15.2427 436.764 15.6191 436.757 15.9996V16.2218C436.767 16.6071 436.68 16.9888 436.505 17.3329C436.343 17.6489 436.09 17.91 435.779 18.0829C435.451 18.2534 435.085 18.3393 434.716 18.3329L433.388 18.3746ZM434.157 14.5552V17.7635H434.744C434.916 17.775 435.089 17.7472 435.249 17.6822C435.41 17.6172 435.552 17.5168 435.667 17.3885C435.907 17.0749 436.027 16.6852 436.002 16.2913V16.0413C436.033 15.651 435.924 15.2625 435.695 14.9441C435.583 14.8116 435.44 14.7072 435.281 14.6396C435.12 14.5721 434.945 14.5431 434.772 14.5552H434.157ZM440.112 16.3885H438.267V17.7774H440.42V18.3885H437.54V13.8885H440.336V14.5135H438.211V15.7496H440.056L440.112 16.3885ZM441.831 17.7774H443.858V18.3885H441.063V13.8885H441.845L441.831 17.7774ZM445.27 18.3885H444.529V13.8885H445.298L445.27 18.3885ZM447.8 17.4302L448.933 13.9441H449.799L448.178 18.3885H447.437L445.829 13.8885H446.682L447.8 17.4302ZM452.917 16.3885H451.071V17.7774H453.224V18.3885H450.303V13.8885H453.196V14.5135H451.071V15.7496H452.917V16.3885ZM455.503 16.6663H454.636V18.3746H453.853V13.8885H455.433C455.858 13.8648 456.277 13.9874 456.621 14.2357C456.762 14.3599 456.874 14.5143 456.947 14.6877C457.019 14.8609 457.052 15.0484 457.04 15.2357C457.043 15.5004 456.97 15.7607 456.831 15.9857C456.677 16.1906 456.469 16.3492 456.23 16.4441L457.236 18.2913H456.397L455.503 16.6663ZM454.636 16.0413H455.433C455.655 16.0591 455.876 15.9892 456.048 15.8468C456.125 15.78 456.185 15.6964 456.224 15.6022C456.263 15.5082 456.28 15.4066 456.271 15.3052C456.278 15.2052 456.263 15.105 456.227 15.0116C456.19 14.9181 456.134 14.8334 456.062 14.7635C455.981 14.6903 455.886 14.6341 455.782 14.5982C455.679 14.5625 455.57 14.5478 455.461 14.5552H454.636V16.0413ZM459.095 16.0413L460.13 13.9302H460.982L459.487 16.7079V18.3329H458.704V16.7496L457.208 13.9718H458.061L459.095 16.0413Z" fill="#4E4E4E"/>
<path d="M424.186 11.2913L423.934 11.9858H427.555C427.478 12.4035 427.243 12.7761 426.898 13.0275C426.273 13.4184 425.539 13.6031 424.801 13.5552H424.046V14.347C424.387 14.3453 424.723 14.4418 425.011 14.6247C425.299 14.8372 425.549 15.0953 425.751 15.3886L428.254 18.7497H429.819L426.898 15.0136C426.691 14.7068 426.442 14.4308 426.157 14.1942C426.836 14.1017 427.474 13.8118 427.988 13.3608C428.384 12.9979 428.632 12.504 428.687 11.9719H430.295L430.518 11.2775H428.701C428.674 10.9361 428.575 10.604 428.412 10.3027C428.248 10.0013 428.023 9.73729 427.75 9.52745H430.253L430.504 8.83301H424.13L423.906 9.52745H425.178C425.799 9.48799 426.413 9.68126 426.898 10.0691C427.244 10.3874 427.46 10.8235 427.499 11.2913H424.186Z" fill="#212121"/>
<path d="M408.641 0.930176H361.113C360.742 0.930176 360.387 1.0765 360.124 1.33697C359.862 1.59744 359.715 1.95071 359.715 2.31906V22.6801C359.715 23.0485 359.862 23.4018 360.124 23.6622C360.387 23.9228 360.742 24.069 361.113 24.069H408.641C409.011 24.069 409.367 23.9228 409.629 23.6622C409.892 23.4018 410.038 23.0485 410.038 22.6801V2.31906C410.038 1.95071 409.892 1.59744 409.629 1.33697C409.367 1.0765 409.011 0.930176 408.641 0.930176Z" fill="white" stroke="#E0E0E0" stroke-width="0.67"/>
<path d="M381.423 11.1109H380.655L378.656 7.95817V11.1109H377.887V6.6665H378.656L380.655 9.83317V6.6665H381.423V11.1109ZM384.96 9.12484H383.129V10.5137H385.268V11.1109H382.346V6.6665H385.254V7.2915H383.129V8.51373H384.96V9.12484ZM389.154 7.2915H387.756V11.1109H386.987V7.2915H385.589V6.6665H389.14L389.154 7.2915ZM377.887 18.0554V13.6109H379.41C379.821 13.5815 380.23 13.689 380.571 13.9165C380.705 14.0241 380.811 14.1626 380.878 14.3198C380.947 14.4772 380.976 14.6486 380.962 14.8193C380.962 15.0125 380.903 15.2014 380.794 15.3609C380.68 15.5322 380.513 15.6633 380.319 15.7359C380.54 15.793 380.733 15.9258 380.864 16.1109C381.008 16.2978 381.082 16.5286 381.074 16.7637C381.085 16.9436 381.053 17.1234 380.983 17.2896C380.913 17.4557 380.806 17.6037 380.669 17.7221C380.333 17.9655 379.922 18.0836 379.508 18.0554H377.887ZM378.656 16.0554V17.4443H379.522C379.729 17.4505 379.93 17.3868 380.095 17.2637C380.164 17.2001 380.216 17.1222 380.251 17.0357C380.284 16.9491 380.298 16.8562 380.291 16.7637C380.308 16.6683 380.301 16.5703 380.273 16.4778C380.244 16.3853 380.193 16.3008 380.125 16.2316C380.056 16.1625 379.972 16.1104 379.88 16.0798C379.788 16.0491 379.689 16.0408 379.592 16.0554H378.656ZM378.656 15.4859H379.424C379.624 15.4964 379.823 15.4375 379.984 15.3193C380.052 15.2647 380.108 15.1947 380.144 15.1151C380.181 15.0354 380.197 14.9483 380.193 14.8609C380.202 14.7704 380.188 14.6793 380.154 14.5948C380.119 14.5104 380.066 14.4351 379.998 14.3748C379.821 14.2673 379.616 14.2187 379.41 14.2359H378.656V15.4859ZM384.415 17.0276H382.695L382.332 18.0554H381.521L383.213 13.6109H383.912L385.533 18.0554H384.722L384.415 17.0276ZM382.905 16.4026H384.205L383.548 14.5554L382.905 16.4026ZM389.587 18.0554H388.804L386.819 14.9026V18.0554H386.036V13.6109H386.819L388.818 16.7776V13.6109H389.587V18.0554ZM391.782 16.1387L391.278 16.6665V18.0554H390.51V13.6109H391.278V15.6943L391.712 15.1665L393.026 13.6109H393.962L392.299 15.5832L394.06 18.0554H393.138L391.782 16.1387ZM395.29 18.0554H394.522V13.6109H395.29V18.0554ZM399.791 18.0554H399.023L396.996 14.9026V18.0554H396.213V13.6109H396.996L398.995 16.7776V13.6109H399.791V18.0554ZM404.139 17.4721C403.97 17.6979 403.736 17.8675 403.468 17.9582C403.155 18.0693 402.822 18.1211 402.489 18.1109C402.143 18.1173 401.799 18.0309 401.497 17.8609C401.202 17.6962 400.967 17.4436 400.826 17.1387C400.664 16.7957 400.583 16.4204 400.588 16.0415V15.6943C400.548 15.1287 400.722 14.5687 401.078 14.1248C401.248 13.9253 401.463 13.7693 401.707 13.6701C401.95 13.571 402.214 13.5317 402.475 13.5554C402.903 13.5271 403.325 13.6556 403.664 13.9165C403.971 14.1872 404.161 14.5654 404.195 14.9721H403.44C403.432 14.8571 403.399 14.7448 403.348 14.6421C403.295 14.5391 403.222 14.4476 403.134 14.3728C403.046 14.2979 402.942 14.2412 402.832 14.2058C402.721 14.1704 402.605 14.1571 402.489 14.1665C402.338 14.159 402.187 14.1894 402.05 14.255C401.913 14.3205 401.795 14.419 401.707 14.5415C401.502 14.8704 401.4 15.2522 401.413 15.6387V15.9859C401.393 16.3794 401.501 16.7687 401.721 17.0971C401.82 17.2266 401.95 17.3307 402.098 17.4008C402.246 17.4708 402.41 17.5047 402.573 17.4998C402.726 17.5164 402.881 17.5015 403.028 17.4561C403.174 17.4108 403.31 17.3358 403.426 17.2359V16.3609H402.503V15.7776H404.195L404.139 17.4721Z" fill="#4E4E4E"/>
<path d="M368.801 5.55566C369.159 5.5735 369.497 5.72766 369.745 5.98622C369.992 6.24478 370.129 6.58791 370.129 6.94455V8.33344C370.986 8.41689 371.781 8.81716 372.356 9.45503C372.931 10.0929 373.244 10.9219 373.232 11.7779V15.389C373.232 15.8304 373.144 16.2675 372.975 16.6752C372.805 17.083 372.556 17.4536 372.241 17.7657C371.928 18.0777 371.555 18.3254 371.144 18.4943C370.734 18.6632 370.294 18.7501 369.85 18.7501C369.405 18.7501 368.966 18.6632 368.555 18.4943C368.144 18.3254 367.772 18.0777 367.458 17.7657C367.143 17.4536 366.894 17.083 366.724 16.6752C366.555 16.2675 366.467 15.8304 366.467 15.389V11.7779C366.456 10.9262 366.764 10.1008 367.333 9.46365C367.902 8.82647 368.689 8.42339 369.542 8.33344V6.94455C369.563 6.85314 369.563 6.75819 369.542 6.66678C369.513 6.5718 369.46 6.48575 369.388 6.41678C369.321 6.34857 369.24 6.29633 369.151 6.264C369.054 6.24491 368.954 6.24491 368.857 6.264C368.758 6.26393 368.659 6.28384 368.566 6.32257C368.475 6.36129 368.392 6.418 368.323 6.48933C368.255 6.56065 368.2 6.64511 368.164 6.73765C368.129 6.83019 368.112 6.9289 368.116 7.02789V7.33344C368.116 7.69008 367.979 8.03322 367.732 8.29178C367.484 8.55033 367.146 8.7045 366.788 8.72233C366.432 8.70107 366.098 8.5454 365.853 8.28721C365.61 8.02901 365.474 7.6878 365.474 7.33344C365.462 7.28326 365.462 7.23084 365.474 7.18066C365.499 7.13371 365.539 7.09512 365.586 7.06955C365.632 7.05715 365.68 7.05715 365.726 7.06955C365.776 7.05528 365.829 7.05528 365.88 7.06955C365.923 7.09893 365.958 7.13832 365.983 7.1843C366.007 7.23028 366.019 7.28148 366.019 7.33344C366.005 7.43764 366.012 7.54372 366.043 7.64453C366.074 7.74533 366.126 7.83854 366.194 7.91784C366.264 7.99716 366.351 8.06075 366.446 8.10432C366.542 8.14789 366.647 8.17043 366.753 8.17043C366.86 8.17043 366.964 8.14789 367.061 8.10432C367.156 8.06075 367.243 7.99716 367.312 7.91784C367.381 7.83854 367.433 7.74533 367.463 7.64453C367.494 7.54372 367.501 7.43764 367.487 7.33344V6.94455C367.487 6.59019 367.623 6.24898 367.866 5.99079C368.111 5.73259 368.445 5.57693 368.801 5.55566ZM369.836 9.72233C369.781 9.70612 369.722 9.70612 369.668 9.72233C369.612 9.74639 369.56 9.77921 369.514 9.81955C369.476 9.86248 369.444 9.90901 369.416 9.95844C369.409 10.0184 369.409 10.079 369.416 10.139V11.7779C369.415 11.8374 369.425 11.8967 369.446 11.9522C369.468 12.0078 369.5 12.0584 369.542 12.1012C369.584 12.1439 369.634 12.1779 369.689 12.2011C369.745 12.2243 369.803 12.2362 369.864 12.2362H370.031L370.171 12.139C370.216 12.0972 370.249 12.0446 370.269 11.9862C370.283 11.9315 370.283 11.8743 370.269 11.8196V10.2779C370.283 10.2184 370.283 10.1568 370.269 10.0973C370.247 10.0449 370.213 9.99758 370.171 9.95844L370.031 9.86122C369.977 9.84872 369.919 9.84872 369.864 9.86122L369.836 9.72233Z" fill="black"/>
<path d="M351.807 0.930176H309.871C309.5 0.930176 309.144 1.0765 308.882 1.33697C308.619 1.59744 308.473 1.95071 308.473 2.31906V22.6801C308.473 23.0485 308.619 23.4018 308.882 23.6622C309.144 23.9228 309.5 24.069 309.871 24.069H351.807C352.177 24.069 352.532 23.9228 352.795 23.6622C353.058 23.4018 353.205 23.0485 353.205 22.6801V2.31906C353.205 1.95071 353.058 1.59744 352.795 1.33697C352.532 1.0765 352.177 0.930176 351.807 0.930176Z" fill="white" stroke="#E0E0E0" stroke-width="0.67"/>
<path opacity="0.94" fill-rule="evenodd" clip-rule="evenodd" d="M314.996 14.7778C314.996 14.7778 315.192 13.9167 315.723 12.0001C316.142 10.5139 316.548 9.12505 316.604 8.91672L316.729 8.52783H318.393C320.336 8.52783 320.63 8.52783 320.951 8.73617C321.496 9.01394 321.65 9.4445 321.468 10.1251C321.315 10.7357 320.929 11.2635 320.392 11.5973C320.28 11.6806 320.168 11.7778 320.168 11.8056C320.168 11.8334 320.168 11.9445 320.35 12.0556C320.451 12.1369 320.536 12.2358 320.602 12.3473C320.699 12.6972 320.699 13.0668 320.602 13.4167C320.533 13.7093 320.487 14.0064 320.462 14.3056V14.6806H319.651C319.367 14.7156 319.081 14.7156 318.798 14.6806C318.714 14.5972 318.728 14.4028 318.798 13.8334C318.868 13.2639 318.952 12.9723 318.798 12.8195C318.645 12.6667 318.491 12.5695 317.904 12.5556C317.317 12.5417 317.359 12.5556 317.289 12.5556C317.219 12.5556 317.079 12.9028 316.813 13.8612L316.59 14.6667H315.919C315.635 14.6826 315.35 14.6826 315.066 14.6667L314.996 14.7778ZM319.19 11.2778C319.581 11.1667 319.735 10.9306 319.735 10.4584C319.761 10.3583 319.761 10.2529 319.735 10.1528C319.623 10.0278 319.274 9.97228 318.617 10.0139H318.043L317.96 10.2917C317.855 10.5884 317.785 10.8959 317.75 11.2084C317.75 11.2778 317.75 11.3056 317.918 11.3334C318.385 11.3653 318.854 11.3373 319.316 11.2501L319.19 11.2778ZM321.888 14.9028C321.657 14.8257 321.465 14.661 321.356 14.4444C321.189 14.0833 321.356 13.2639 321.93 11.2917C322.069 10.8195 322.181 10.4306 322.181 10.4167C322.181 10.4167 322.363 10.4167 322.866 10.4167C323.098 10.3931 323.333 10.3931 323.565 10.4167H323.677L323.565 10.7778C323.313 11.6667 323.048 12.7362 323.006 13.0834C322.964 13.4306 323.006 13.4723 323.006 13.5695C323.006 13.6667 323.537 13.8473 323.887 13.6667C324.236 13.4862 324.362 13.2917 325.033 11.0417C325.069 10.8329 325.15 10.6341 325.27 10.4584L325.396 10.3334H326.053C326.557 10.3334 326.71 10.3334 326.724 10.3334C326.738 10.3334 325.914 13.4167 325.564 14.5972V14.7917H324.166C324.182 14.7201 324.205 14.6503 324.236 14.5833C324.376 14.1944 324.236 14.1667 323.677 14.5833C323.35 14.8535 322.942 15.0053 322.517 15.0139C322.314 15.0547 322.104 15.0547 321.902 15.0139L321.888 14.9028ZM326.571 14.7778C326.772 13.7288 327.043 12.6941 327.381 11.6806L328.262 8.61117H329.66C331.491 8.61117 331.868 8.61117 332.218 8.83339C332.461 8.92918 332.664 9.10587 332.791 9.33339C332.899 9.57378 332.955 9.83405 332.955 10.0973C332.955 10.3605 332.899 10.6208 332.791 10.8612C332.66 11.2995 332.421 11.6987 332.096 12.0234C331.772 12.3481 331.372 12.5881 330.932 12.7223C330.613 12.7748 330.29 12.8073 329.967 12.8195C328.667 12.9028 328.751 12.8195 328.681 13.0556C328.611 13.2917 328.514 13.5695 328.388 14L328.164 14.7917H327.353C327.074 14.8074 326.794 14.8074 326.515 14.7917L326.571 14.7778ZM330.359 11.4723C330.52 11.4719 330.679 11.4293 330.819 11.3489C330.958 11.2685 331.074 11.153 331.156 11.0139C331.228 10.9018 331.273 10.7744 331.288 10.6418C331.302 10.5092 331.286 10.3751 331.239 10.2501C331.114 10.0556 330.932 10.0139 330.247 10.0139C330.023 9.99465 329.8 9.99465 329.576 10.0139C329.432 10.4406 329.32 10.8769 329.24 11.3195C329.229 11.3604 329.229 11.4036 329.24 11.4445C329.603 11.4861 329.969 11.4861 330.331 11.4445L330.359 11.4723ZM332.749 14.9167C332.26 14.7083 332.134 14.375 332.288 13.7084C332.525 12.7639 333.015 12.4584 334.72 12.1806C335.755 12.0001 336.006 11.8751 336.118 11.5139C336.23 11.1528 335.95 11.1112 335.489 11.1112C335.362 11.1006 335.235 11.1189 335.116 11.1646C334.997 11.2103 334.891 11.2823 334.804 11.3751L334.594 11.5417H334.091C333.462 11.5417 333.266 11.5417 333.266 11.4445C333.368 11.1879 333.532 10.9593 333.742 10.7778C334.011 10.5479 334.332 10.3859 334.678 10.3056C335.493 10.0932 336.35 10.0932 337.166 10.3056C337.396 10.4057 337.586 10.5761 337.712 10.7917C337.809 10.9723 337.781 11.1528 337.32 12.8889C337.11 13.7501 336.929 14.5139 336.929 14.6111V14.7639H336.412H335.699H335.503L335.419 14.5694C335.307 14.3333 335.307 14.3333 334.776 14.5694C334.394 14.7679 333.975 14.8817 333.546 14.9028C333.314 14.9397 333.076 14.9108 332.861 14.8194L332.749 14.9167ZM335.014 13.9583C335.183 13.8507 335.325 13.7081 335.434 13.5404C335.543 13.3726 335.613 13.1836 335.643 12.9862V12.8195H335.377C334.973 12.8786 334.582 13.0005 334.217 13.1806C334.129 13.235 334.053 13.3058 333.993 13.3889C333.944 13.4838 333.915 13.5879 333.909 13.6945C333.909 13.8889 333.909 13.9444 334.077 14C334.385 14.0743 334.706 14.0743 335.014 14V13.9583ZM337.334 16.7361C337.166 16.7361 337.166 16.625 337.334 16.1806C337.502 15.7361 337.474 15.5833 337.865 15.5278C338.257 15.4722 338.466 15.375 338.564 15.1944C338.696 14.1569 338.696 13.1071 338.564 12.0695C338.524 11.4822 338.524 10.8929 338.564 10.3056C338.564 10.3056 338.802 10.3056 339.361 10.3056H340.102V11.6945C340.073 12.157 340.073 12.6209 340.102 13.0834C340.186 13.1528 340.465 12.6945 341.626 10.5834L341.779 10.2778H342.478C342.702 10.2606 342.926 10.2606 343.149 10.2778C343.149 10.2778 342.171 12.0695 341.164 13.7501C339.766 16.1528 339.473 16.5278 338.802 16.6667C338.339 16.7393 337.871 16.7625 337.404 16.7361H337.334Z" fill="#2A2C83"/>
<path fill-rule="evenodd" clip-rule="evenodd" d="M343.582 16.2083L345.539 9.15283L347.412 12.8056L343.582 16.2083Z" fill="#097A44"/>
<path fill-rule="evenodd" clip-rule="evenodd" d="M342.355 16.2358L344.326 9.18018L346.2 12.833L342.355 16.2358Z" fill="#F46F20"/>
<path d="M299.744 1.38916H259.401C258.943 1.39279 258.504 1.57541 258.18 1.8976C257.855 2.2198 257.672 2.65574 257.668 3.11138V21.8892C257.672 22.3449 257.855 22.7807 258.18 23.1029C258.504 23.4251 258.943 23.6078 259.401 23.6114H299.744C300.203 23.6078 300.642 23.4251 300.966 23.1029C301.29 22.7807 301.473 22.3449 301.477 21.8892V3.11138C301.473 2.65574 301.29 2.2198 300.966 1.8976C300.642 1.57541 300.203 1.39279 299.744 1.38916Z" fill="white"/>
<path d="M273.215 23.6114H299.775C300.002 23.6132 300.227 23.5704 300.437 23.4854C300.647 23.4003 300.838 23.2747 300.999 23.116C301.161 22.9571 301.288 22.7682 301.376 22.56C301.463 22.3518 301.508 22.1286 301.508 21.903V13.8892C301.508 13.8892 291.527 20.6114 273.243 23.6114H273.215Z" fill="#F58220"/>
<path fill-rule="evenodd" clip-rule="evenodd" d="M264.281 11.7222C263.886 12.0363 263.386 12.1858 262.883 12.1389H262.603V8.76389H262.883C263.131 8.73844 263.383 8.76214 263.624 8.83364C263.863 8.90516 264.086 9.02305 264.281 9.18056C264.461 9.33803 264.606 9.53241 264.706 9.75051C264.805 9.96859 264.855 10.2053 264.854 10.4444C264.855 10.6857 264.805 10.9245 264.706 11.1449C264.608 11.3652 264.462 11.5621 264.281 11.7222ZM263.078 7.90278H261.555V13H263.064C263.749 13.0335 264.425 12.8215 264.966 12.4028C265.262 12.1679 265.5 11.8699 265.664 11.531C265.829 11.1921 265.915 10.8208 265.916 10.4444C265.913 10.0911 265.838 9.7421 265.692 9.41926C265.548 9.09641 265.337 8.80666 265.076 8.56812C264.813 8.32958 264.504 8.14738 264.167 8.03289C263.832 7.91842 263.474 7.87413 263.12 7.90278H263.078ZM266.405 7.90278H267.426V13H266.405V7.90278ZM269.956 9.84723C269.341 9.63889 269.159 9.48612 269.159 9.20834C269.159 8.93056 269.481 8.65278 269.928 8.65278C270.089 8.6542 270.248 8.69106 270.392 8.7607C270.537 8.83034 270.665 8.93105 270.767 9.05556L271.298 8.37501C270.866 8.00841 270.314 7.81089 269.746 7.81945C269.342 7.78864 268.942 7.9172 268.634 8.17721C268.326 8.43723 268.132 8.80773 268.097 9.20834C268.097 9.90278 268.418 10.2639 269.397 10.5972C269.643 10.6742 269.88 10.7718 270.11 10.8889C270.201 10.9446 270.277 11.0207 270.333 11.1111C270.386 11.2044 270.416 11.3094 270.417 11.4167C270.416 11.517 270.393 11.616 270.352 11.7075C270.31 11.799 270.251 11.8811 270.175 11.9487C270.101 12.0164 270.013 12.0681 269.918 12.1008C269.822 12.1335 269.721 12.1465 269.62 12.1389C269.384 12.1418 269.152 12.0793 268.949 11.9583C268.751 11.8377 268.592 11.6645 268.488 11.4583L267.817 12.0833C268.013 12.3915 268.285 12.6434 268.61 12.814C268.933 12.9845 269.296 13.0679 269.662 13.0556C269.896 13.0748 270.131 13.0456 270.353 12.9698C270.574 12.894 270.778 12.7733 270.95 12.6153C271.122 12.4573 271.259 12.2654 271.352 12.0519C271.446 11.8384 271.494 11.6079 271.494 11.375C271.494 10.5694 271.13 10.1944 269.956 9.77778V9.84723ZM271.815 10.4444C271.817 10.8036 271.891 11.1588 272.033 11.4889C272.176 11.819 272.384 12.1173 272.644 12.366C272.905 12.6148 273.213 12.8089 273.551 12.9369C273.89 13.0649 274.249 13.1242 274.611 13.1111C275.062 13.1151 275.508 13.0103 275.911 12.8056V11.6389C275.753 11.8147 275.559 11.9551 275.342 12.0508C275.125 12.1466 274.89 12.1955 274.653 12.1944C274.418 12.2041 274.185 12.1656 273.965 12.0813C273.746 11.9969 273.547 11.8686 273.381 11.7044C273.214 11.5401 273.083 11.3434 272.996 11.1266C272.91 10.9098 272.869 10.6776 272.878 10.4444C272.873 10.216 272.915 9.98902 273.001 9.77685C273.087 9.56469 273.213 9.37155 273.375 9.20866C273.536 9.04578 273.729 8.91644 273.941 8.82816C274.152 8.73988 274.38 8.69442 274.611 8.69445C274.855 8.69533 275.097 8.74634 275.321 8.84434C275.545 8.94232 275.745 9.08516 275.911 9.26389V8.09723C275.518 7.89373 275.082 7.78883 274.639 7.79167C273.913 7.78374 273.214 8.05598 272.687 8.55092C272.16 9.04585 271.847 9.7248 271.815 10.4444ZM284.284 11.3194L282.886 7.90278H281.754L284.005 13.125H284.564L286.856 7.90278H285.738L284.34 11.3194H284.284ZM287.304 13H290.239V12.1389H288.338V10.75H290.169V9.88889H288.338V8.76389H290.239V7.90278H287.304V13ZM292.252 10.2222H291.959V8.70834H292.28C292.923 8.70834 293.273 8.95834 293.273 9.45834C293.273 9.95834 292.923 10.25 292.252 10.25V10.2222ZM294.335 9.37501C294.335 8.41667 293.65 7.87501 292.462 7.87501H290.924V13H291.959V10.9444H292.098L293.496 13H294.768L293.133 10.8472C293.468 10.8001 293.776 10.6332 293.997 10.3776C294.218 10.1221 294.338 9.79537 294.335 9.45834V9.37501Z" fill="#1A1919"/>
<path fill-rule="evenodd" clip-rule="evenodd" d="M281.896 10.458C281.896 11.1947 281.601 11.9012 281.077 12.4221C280.553 12.9431 279.843 13.2357 279.1 13.2357C278.36 13.2357 277.648 12.9431 277.124 12.4221C276.6 11.9012 276.305 11.1947 276.305 10.458C276.305 9.72123 276.6 9.01469 277.124 8.49376C277.648 7.97283 278.36 7.68018 279.1 7.68018C279.843 7.68018 280.553 7.97283 281.077 8.49376C281.601 9.01469 281.896 9.72123 281.896 10.458Z" fill="#F58220"/>
<path d="M249.283 0.930176H207.347C206.977 0.930176 206.622 1.0765 206.359 1.33697C206.096 1.59744 205.949 1.95071 205.949 2.31906V22.6801C205.949 23.0485 206.096 23.4018 206.359 23.6622C206.622 23.9228 206.977 24.069 207.347 24.069H249.283C249.654 24.069 250.01 23.9228 250.272 23.6622C250.535 23.4018 250.681 23.0485 250.681 22.6801V2.31906C250.681 1.95071 250.535 1.59744 250.272 1.33697C250.01 1.0765 249.654 0.930176 249.283 0.930176Z" fill="white" stroke="#E0E0E0" stroke-width="0.67"/>
<path fill-rule="evenodd" clip-rule="evenodd" d="M224.082 5.55566H232.623C234.477 5.55566 236.255 6.2873 237.565 7.58965C238.876 8.89198 239.612 10.6583 239.612 12.5001C239.612 13.8743 239.201 15.2175 238.433 16.3597C237.664 17.5019 236.571 18.3918 235.293 18.9168C234.442 19.2646 233.529 19.4439 232.609 19.4446H224.082V5.55566Z" fill="#184977"/>
<path d="M224.079 18.7501C225.32 18.7363 226.53 18.3583 227.554 17.6631C228.58 16.9681 229.376 15.9873 229.841 14.8441C230.307 13.701 230.421 12.4465 230.17 11.2388C229.919 10.031 229.316 8.92387 228.432 8.05673C227.55 7.18957 226.429 6.60118 225.211 6.3656C223.992 6.13002 222.732 6.25778 221.587 6.7328C220.44 7.20782 219.462 8.00887 218.774 9.03512C218.086 10.0614 217.719 11.2669 217.719 12.5001C217.723 13.3257 217.889 14.1424 218.212 14.9036C218.534 15.6648 219.003 16.3554 219.595 16.9359C220.185 17.5165 220.885 17.9756 221.655 18.2869C222.424 18.5981 223.249 18.7556 224.079 18.7501Z" fill="white" stroke="#184977"/>
<path fill-rule="evenodd" clip-rule="evenodd" d="M226.902 12.5C226.904 11.8278 226.705 11.1703 226.329 10.6111C225.953 10.0549 225.418 9.62414 224.791 9.375V15.625C225.418 15.3758 225.953 14.9451 226.329 14.3889C226.705 13.8297 226.904 13.1722 226.902 12.5ZM223.38 15.625V9.375C222.749 9.62306 222.208 10.0536 221.826 10.6109C221.446 11.1681 221.242 11.8263 221.242 12.5C221.242 13.1737 221.446 13.8319 221.826 14.3892C222.208 14.9464 222.749 15.3769 223.38 15.625Z" fill="#184977"/>
<path d="M198.037 0.930176H156.101C155.731 0.930176 155.374 1.0765 155.113 1.33697C154.85 1.59744 154.703 1.95071 154.703 2.31906V22.6801C154.703 23.0485 154.85 23.4018 155.113 23.6622C155.374 23.9228 155.731 24.069 156.101 24.069H198.037C198.408 24.069 198.763 23.9228 199.026 23.6622C199.288 23.4018 199.435 23.0485 199.435 22.6801V2.31906C199.435 1.95071 199.288 1.59744 199.026 1.33697C198.763 1.0765 198.408 0.930176 198.037 0.930176Z" fill="white" stroke="#E0E0E0" stroke-width="0.67"/>
<path d="M180.033 16.2362L179.642 15.7639V16.2362H178.356V15.4167C178.191 15.4988 178.009 15.5416 177.825 15.5417H177.363V16.2362H175.434L175.085 15.7778L174.735 16.2362H171.534V13.2084H174.735L175.085 13.6528L175.434 13.2084H187.177V2.77783H167.746V10.9306L168.473 9.22228H169.731L170.15 10.1667V9.22228H171.716L171.968 9.91672L172.205 9.22228H179.195V9.5695C179.478 9.33936 179.835 9.21636 180.201 9.22228H182.438L182.857 10.1667V9.22228H184.185L184.521 9.72228V9.22228H185.919V12.2501H184.521L184.171 11.7084V12.2501H182.242L182.046 11.7917H181.529L181.333 12.2501H180.145C179.794 12.2676 179.451 12.1536 179.181 11.9306V12.2501H177.21L176.818 11.7778V12.2501H169.493L169.312 11.7917H168.781L168.585 12.2501H167.746V22.0973H187.191V16.0139C186.975 16.1681 186.715 16.2463 186.45 16.2362H180.033Z" fill="#0079C1"/>
<path d="M187.203 13.5834L186.98 14.0973L185.889 13.875C185.867 13.8658 185.843 13.8611 185.819 13.8611C185.796 13.8611 185.772 13.8658 185.75 13.875C185.737 13.9157 185.737 13.9593 185.75 14C185.75 14.0516 185.771 14.101 185.807 14.1375C185.843 14.1739 185.894 14.1945 185.945 14.1945H186.477C186.938 14.1945 187.203 14.4306 187.203 14.8473C187.223 14.9435 187.223 15.0427 187.203 15.1389C187.164 15.2357 187.101 15.3216 187.022 15.3889C186.946 15.4578 186.858 15.5106 186.763 15.5441C186.667 15.5775 186.565 15.5909 186.463 15.5834H185.274V15.0695H186.56C186.569 15.0471 186.569 15.0224 186.56 15C186.567 14.9727 186.567 14.9441 186.56 14.9167H186.49H185.861C185.769 14.9366 185.674 14.9366 185.582 14.9167C185.492 14.8898 185.411 14.8421 185.344 14.7778C185.273 14.7139 185.22 14.6325 185.19 14.5417C185.171 14.4549 185.171 14.3646 185.19 14.2778C185.19 14.1764 185.214 14.0764 185.26 13.9861C185.299 13.8929 185.357 13.8081 185.428 13.7361C185.505 13.667 185.594 13.6149 185.694 13.5834C185.79 13.5627 185.891 13.5627 185.987 13.5834H187.203Z" fill="#0079C1"/>
<path d="M146.776 0.930176H104.839C104.469 0.930176 104.113 1.0765 103.851 1.33697C103.589 1.59744 103.441 1.95071 103.441 2.31906V22.6801C103.441 23.0485 103.589 23.4018 103.851 23.6622C104.113 23.9228 104.469 24.069 104.839 24.069H146.776C147.146 24.069 147.502 23.9228 147.764 23.6622C148.027 23.4018 148.173 23.0485 148.173 22.6801V2.31906C148.173 1.95071 148.027 1.59744 147.764 1.33697C147.502 1.0765 147.146 0.930176 146.776 0.930176Z" fill="white" stroke="#E0E0E0" stroke-width="0.67"/>
<path d="M120.86 19.4446C122.243 19.4446 123.594 19.0373 124.744 18.2741C125.893 17.5111 126.789 16.4265 127.318 15.1576C127.847 13.8887 127.985 12.4924 127.716 11.1453C127.446 9.79823 126.78 8.56084 125.803 7.58965C124.825 6.61845 123.58 5.95705 122.224 5.68911C120.868 5.42115 119.463 5.55868 118.186 6.08427C116.909 6.60988 115.817 7.49998 115.049 8.64198C114.281 9.784 113.871 11.1266 113.871 12.5001C113.871 14.3419 114.607 16.1083 115.918 17.4105C117.229 18.7129 119.007 19.4446 120.86 19.4446Z" fill="#007BDB"/>
<path d="M130.757 19.4445C132.135 19.4281 133.479 19.0069 134.617 18.2339C135.755 17.4609 136.638 16.3706 137.154 15.1003C137.67 13.8301 137.797 12.4365 137.518 11.0949C137.239 9.75339 136.566 8.52382 135.586 7.56093C134.605 6.59806 133.359 5.94489 132.006 5.68363C130.652 5.42235 129.251 5.56466 127.979 6.09263C126.707 6.6206 125.62 7.51064 124.856 8.65078C124.091 9.79091 123.684 11.1302 123.684 12.5001C123.683 13.4191 123.867 14.3289 124.223 15.177C124.58 16.0251 125.102 16.7944 125.76 17.4402C126.418 18.0862 127.199 18.596 128.056 18.9401C128.914 19.2841 129.832 19.4556 130.757 19.4445Z" fill="#E42B00"/>
<path fill-rule="evenodd" clip-rule="evenodd" d="M125.81 17.4722C127.063 16.1011 127.812 14.3485 127.934 12.5001C127.812 10.6517 127.063 8.899 125.81 7.52783C125.123 8.16073 124.578 8.931 124.212 9.78797C123.845 10.6449 123.666 11.5692 123.685 12.5001C123.669 13.4305 123.849 14.3541 124.215 15.2106C124.581 16.0672 125.125 16.8378 125.81 17.4722Z" fill="#1740CE"/>
<path d="M95.5217 0.930176H53.5854C53.2147 0.930176 52.859 1.0765 52.5969 1.33697C52.3347 1.59744 52.1875 1.95071 52.1875 2.31906V22.6801C52.1875 23.0485 52.3347 23.4018 52.5969 23.6622C52.859 23.9228 53.2147 24.069 53.5854 24.069H95.5217C95.8924 24.069 96.2479 23.9228 96.5102 23.6622C96.7723 23.4018 96.9196 23.0485 96.9196 22.6801V2.31906C96.9196 1.95071 96.7723 1.59744 96.5102 1.33697C96.2479 1.0765 95.8924 0.930176 95.5217 0.930176Z" fill="white" stroke="#E0E0E0" stroke-width="0.67"/>
<path d="M69.6123 19.4445C70.9911 19.4281 72.334 19.0069 73.4723 18.2339C74.6107 17.4609 75.4935 16.3706 76.0096 15.1003C76.5258 13.8301 76.6523 12.4365 76.3732 11.0949C76.0941 9.75339 75.4219 8.52382 74.4412 7.56093C73.4604 6.59806 72.215 5.94489 70.8615 5.68363C69.508 5.42235 68.1071 5.56466 66.8347 6.09263C65.5625 6.6206 64.4758 7.51064 63.7115 8.65078C62.9471 9.79091 62.5392 11.1302 62.5391 12.5001C62.5391 13.4191 62.7226 14.3289 63.0791 15.177C63.4355 16.0251 63.9579 16.7944 64.6157 17.4402C65.2737 18.0862 66.0542 18.596 66.9119 18.9401C67.7696 19.2841 68.6875 19.4556 69.6123 19.4445Z" fill="#CC0000"/>
<path d="M79.5011 19.4446C80.8835 19.4446 82.2348 19.0373 83.3843 18.2741C84.5336 17.5111 85.4295 16.4265 85.9584 15.1576C86.4875 13.8887 86.6259 12.4924 86.3561 11.1453C86.0865 9.79823 85.4208 8.56084 84.4434 7.58965C83.4659 6.61845 82.2205 5.95705 80.8647 5.68911C79.5089 5.42115 78.1035 5.55868 76.8264 6.08427C75.5493 6.60988 74.4577 7.49998 73.6897 8.64198C72.9217 9.784 72.5117 11.1266 72.5117 12.5001C72.5117 14.3419 73.2481 16.1083 74.5589 17.4105C75.8697 18.7129 77.6474 19.4446 79.5011 19.4446Z" fill="#FF9900"/>
<path fill-rule="evenodd" clip-rule="evenodd" d="M74.5498 17.4722C75.8034 16.1011 76.5524 14.3485 76.6746 12.5001C76.5524 10.6517 75.8034 8.899 74.5498 7.52783C73.8658 8.16253 73.3243 8.93343 72.9605 9.79022C72.5968 10.647 72.4191 11.5704 72.439 12.5001C72.4218 13.4294 72.6007 14.352 72.9642 15.2084C73.3278 16.0647 73.8679 16.836 74.5498 17.4722Z" fill="#F16D27"/>
<path d="M44.2717 0.930176H2.33538C1.96464 0.930176 1.60908 1.0765 1.34693 1.33697C1.08478 1.59744 0.9375 1.95071 0.9375 2.31906V22.6801C0.9375 23.0485 1.08478 23.4018 1.34693 23.6622C1.60908 23.9228 1.96464 24.069 2.33538 24.069H44.2717C44.6424 24.069 44.998 23.9228 45.2601 23.6622C45.5224 23.4018 45.6696 23.0485 45.6696 22.6801V2.31906C45.6696 1.95071 45.5224 1.59744 45.2601 1.33697C44.998 1.0765 44.6424 0.930176 44.2717 0.930176Z" fill="white" stroke="#E0E0E0" stroke-width="0.67"/>
<path d="M19.5697 8.05566L15.7256 17.1668H13.1814L11.2943 9.889C11.272 9.7185 11.2082 9.556 11.1083 9.41561C11.0084 9.27522 10.8755 9.16119 10.7212 9.08344C9.97636 8.74069 9.1925 8.48886 8.38672 8.33344V8.05566H12.4825C12.7461 8.05957 12.9994 8.15826 13.1954 8.33344C13.3914 8.50855 13.524 8.74279 13.5728 9.00011L14.5653 14.2779L17.0396 8.05566H19.5697ZM29.3549 14.1946C29.3549 11.7779 26.014 11.6529 26.0279 10.5696C26.0279 10.2501 26.3495 9.90289 27.0344 9.81955C27.8304 9.74123 28.6327 9.88051 29.3549 10.2223L29.7882 8.33344C29.0826 8.06778 28.3343 7.9313 27.5796 7.93066C25.2451 7.93066 23.5817 9.16678 23.5677 10.9446C23.5677 12.2501 24.7419 12.9862 25.6505 13.4168C26.5591 13.8473 26.8806 14.1529 26.8806 14.5557C26.8806 15.1668 26.1398 15.4307 25.4828 15.4446C24.6347 15.4635 23.7964 15.2624 23.0505 14.8613L22.6171 16.8613C23.4602 17.1834 24.3558 17.3482 25.2591 17.3474C27.7473 17.3474 29.3828 16.1252 29.3828 14.2363L29.3549 14.1946ZM35.5475 17.1529H37.7422L35.8271 8.05566H33.8001C33.5857 8.05158 33.3753 8.11476 33.1991 8.23622C33.0147 8.35051 32.8724 8.52105 32.7937 8.72233L29.2291 17.1668H31.7173L32.2205 15.7779H35.2679L35.5475 17.1529ZM32.9055 13.889L34.1496 10.4723L34.8625 13.889H32.9055ZM22.9246 8.05566L20.9676 17.1668H18.5912L20.5483 8.05566H22.9246Z" fill="#1A1F71"/>
</svg>
