<svg width="30" height="35" viewBox="0 0 30 35" fill="none" xmlns="http://www.w3.org/2000/svg">
<path d="M21.4408 21.7965H20.0858L19.6055 21.2833C21.2865 19.1164 22.2985 16.3032 22.2985 13.2429C22.2985 6.41907 17.307 0.887756 11.1492 0.887756C4.99142 0.887756 0 6.41907 0 13.2429C0 20.0668 4.99142 25.5981 11.1492 25.5981C13.9108 25.5981 16.4494 24.4766 18.4048 22.6138L18.8679 23.1461V24.6477L27.4443 34.1327L30 31.3005L21.4408 21.7965V21.7965ZM11.1492 21.7965C6.87822 21.7965 3.43053 17.9759 3.43053 13.2429C3.43053 8.50994 6.87822 4.68935 11.1492 4.68935C15.4202 4.68935 18.8679 8.50994 18.8679 13.2429C18.8679 17.9759 15.4202 21.7965 11.1492 21.7965Z" fill="white"/>
</svg>
