<svg width="336" height="211" viewBox="0 0 336 211" fill="none" xmlns="http://www.w3.org/2000/svg">
<g filter="url(#filter0_d)">
<path d="M240.977 59.6987C238.824 50.8051 218.476 37.8168 207.603 45.6475C204.266 28.7046 201.144 18.1393 190.24 9.79263C179.336 1.44644 161.142 12.3561 158.22 35.2069C155.298 25.8135 140.441 13.1533 128.507 23.8282C117.464 33.7063 116.357 50.2583 117.511 59.683H240.977V59.6987Z" fill="url(#paint0_linear)"/>
<path d="M210.69 71.4019C212.406 64.3199 228.62 53.9769 237.285 60.2126C239.944 46.7202 242.432 38.3067 251.121 31.6599C259.81 25.0136 274.308 33.7011 276.636 51.8982C278.965 44.4176 290.804 34.336 300.314 42.8372C309.113 50.7034 309.996 63.8843 309.076 71.3894H210.69V71.4019Z" fill="url(#paint1_linear)"/>
<path d="M8.99897 59.6987C10.7482 52.4785 27.2785 41.9336 36.112 48.2908C38.8236 34.5355 41.3601 25.9571 50.2186 19.1809C59.0772 12.4047 73.8579 21.2622 76.232 39.8142C78.6061 32.188 90.6757 21.9092 100.372 30.5763C109.342 38.5958 110.242 52.0345 109.305 59.6862H8.99897V59.6987V59.6987Z" fill="url(#paint2_linear)"/>
<path d="M217.853 76.5344L222.775 187.833H312.34L303.078 142.661L273.229 133.064C272.456 132.787 271.752 132.34 271.167 131.755C270.581 131.17 270.129 130.462 269.842 129.68L251.995 82.9918L217.853 76.5344V76.5344Z" fill="#666AF6"/>
<path d="M227.726 88.2512L229.961 128.404L262.285 131.489L248.361 89.7189L227.726 88.2512V88.2512ZM307.023 142.78L299.738 141.606L303.983 156.887L307.735 156.48C308.135 156.436 308.504 156.235 308.761 155.92C309.019 155.605 309.147 155.2 309.117 154.791L308.323 144.212C308.296 143.859 308.153 143.526 307.917 143.266C307.681 143.006 307.367 142.835 307.023 142.78Z" fill="white"/>
<path d="M220.305 187.833H36.1706L47.1154 51.0894H213.582L220.305 187.833Z" fill="#666AF6"/>
<path d="M35.2371 193.847H316.457V185.323H35.2371V193.847Z" fill="url(#paint3_linear)"/>
<path d="M294.551 194.841V183.268L322.063 181.547L324.059 194.841H294.551ZM29.8906 181.702L47.0567 183.508V194.841H27.8137L29.8906 181.702Z" fill="#8D8D8D"/>
<path d="M109.863 196.423C109.863 196.423 107.246 176.685 88.0761 176.685C68.9058 176.685 66.0657 196.423 66.0657 196.423" stroke="#E1E4E5" stroke-width="11.481" stroke-miterlimit="10"/>
<path d="M274.113 196.423C274.113 196.423 271.496 176.685 252.327 176.685C233.156 176.685 230.316 196.423 230.316 196.423" stroke="#E1E4E5" stroke-width="11.481" stroke-miterlimit="10"/>
</g>
<g filter="url(#filter1_d)">
<path d="M150.63 101.496C150.129 101.463 149.629 101.572 149.184 101.811C148.74 102.049 148.368 102.409 148.109 102.85L142.975 102.761C142.364 102.761 141.771 102.972 141.292 103.361C140.812 103.75 140.476 104.294 140.337 104.903C138.608 112.518 136.877 120.135 135.141 127.753C135.085 128.005 134.946 128.229 134.749 128.389C134.551 128.55 134.307 128.637 134.054 128.636H113.064C112.927 128.637 112.793 128.59 112.685 128.503C112.578 128.415 112.502 128.293 112.472 128.156C111.298 122.77 110.125 117.39 108.951 112.015C108.921 111.89 108.92 111.76 108.947 111.635C108.974 111.509 109.028 111.392 109.106 111.291C109.183 111.191 109.282 111.109 109.395 111.054C109.508 110.998 109.632 110.969 109.757 110.97H128.813C128.913 110.969 129.011 110.992 129.101 111.036C129.191 111.08 129.27 111.145 129.332 111.225C129.394 111.305 129.437 111.398 129.459 111.498C129.48 111.598 129.479 111.701 129.456 111.8C128.973 113.87 128.492 115.942 128.012 118.019H118.989C118.846 117.492 118.553 117.021 118.147 116.665C117.604 116.207 116.91 115.979 116.208 116.028V117.564L113.957 117.611C113.862 117.612 113.771 117.652 113.704 117.721C113.637 117.791 113.6 117.884 113.6 117.982V118.781H116.111V120.558H113.697V121.222C113.697 121.346 113.745 121.466 113.831 121.554C113.918 121.642 114.034 121.692 114.156 121.692H116.136V123.176C116.8 123.196 117.453 122.994 117.995 122.601C118.537 122.208 118.94 121.645 119.142 120.997L128.88 120.903C129.285 120.901 129.677 120.759 129.994 120.5C130.311 120.241 130.533 119.88 130.625 119.476C131.353 116.285 132.085 113.103 132.819 109.93C132.87 109.701 132.869 109.463 132.818 109.234C132.767 109.005 132.666 108.791 132.523 108.607C132.38 108.424 132.198 108.275 131.992 108.173C131.785 108.071 131.559 108.018 131.329 108.017L107.415 108.153C107.159 108.155 106.908 108.216 106.678 108.331C106.449 108.445 106.248 108.612 106.089 108.817C105.931 109.022 105.82 109.261 105.764 109.516C105.708 109.771 105.709 110.036 105.766 110.29L110.313 130.502C110.388 130.832 110.57 131.128 110.83 131.339C111.089 131.551 111.411 131.666 111.742 131.667H114.906V132.91C114.373 133.192 113.95 133.652 113.707 134.214C113.464 134.776 113.416 135.405 113.57 135.999C113.724 136.593 114.072 137.115 114.555 137.479C115.038 137.842 115.629 138.026 116.228 138C116.896 137.992 117.538 137.735 118.034 137.277C118.53 136.819 118.846 136.192 118.923 135.513C118.963 135.001 118.866 134.487 118.643 134.027C118.42 133.567 118.079 133.177 117.657 132.9V131.667H130.217V132.91C129.91 133.095 129.642 133.339 129.428 133.63C129.214 133.921 129.059 134.252 128.97 134.604C128.881 134.957 128.861 135.324 128.912 135.684C128.962 136.044 129.081 136.391 129.262 136.704C129.652 137.324 130.264 137.763 130.967 137.925C131.67 138.087 132.406 137.96 133.018 137.571C133.451 137.26 133.79 136.83 133.995 136.331C134.201 135.833 134.266 135.284 134.182 134.75C134.114 134.338 133.967 133.944 133.749 133.592C133.531 133.239 133.246 132.935 132.911 132.696V131.557H135.795C136.13 131.549 136.454 131.428 136.716 131.212C136.978 130.997 137.164 130.7 137.244 130.366C137.908 127.579 138.569 124.792 139.229 122.005C139.288 121.754 139.428 121.531 139.626 121.372C139.824 121.212 140.069 121.126 140.321 121.128H143.383C144.527 122.549 146.247 122.899 147.573 121.65C147.868 121.339 148.093 120.966 148.231 120.556C148.369 120.147 148.419 119.711 148.375 119.28C148.331 118.849 148.195 118.433 147.978 118.062C147.76 117.69 147.465 117.372 147.114 117.13C146.477 116.784 145.739 116.687 145.038 116.86C144.336 117.032 143.721 117.461 143.307 118.066L140.464 118.029C140.426 118.028 140.388 118.019 140.353 118.001C140.318 117.984 140.288 117.959 140.264 117.928C140.24 117.897 140.223 117.861 140.215 117.822C140.206 117.784 140.206 117.744 140.214 117.705C141.01 113.981 141.81 110.254 142.613 106.523C142.67 106.257 142.814 106.019 143.02 105.848C143.227 105.677 143.485 105.583 143.751 105.582H148.033C148.296 106.133 148.731 106.578 149.269 106.847C149.807 107.115 150.417 107.193 151.003 107.066C151.554 106.902 152.042 106.566 152.397 106.104C152.752 105.642 152.957 105.078 152.983 104.49C153.021 104.135 152.991 103.776 152.893 103.434C152.795 103.091 152.633 102.771 152.414 102.493C152.195 102.215 151.925 101.984 151.619 101.813C151.313 101.642 150.977 101.534 150.63 101.496ZM116.228 136.6C115.974 136.601 115.724 136.524 115.512 136.38C115.3 136.236 115.135 136.031 115.036 135.79C114.938 135.55 114.912 135.285 114.961 135.029C115.01 134.773 115.132 134.538 115.312 134.354C115.492 134.169 115.721 134.043 115.97 133.992C116.22 133.94 116.479 133.966 116.714 134.066C116.949 134.165 117.151 134.334 117.292 134.551C117.434 134.767 117.509 135.022 117.509 135.283C117.509 135.631 117.374 135.965 117.134 136.212C116.894 136.459 116.568 136.598 116.228 136.6ZM131.538 136.6C131.284 136.6 131.035 136.522 130.824 136.378C130.612 136.233 130.448 136.027 130.35 135.787C130.253 135.546 130.227 135.281 130.277 135.026C130.327 134.77 130.449 134.536 130.629 134.352C130.809 134.168 131.038 134.042 131.288 133.991C131.537 133.94 131.796 133.967 132.031 134.066C132.266 134.166 132.466 134.335 132.608 134.551C132.749 134.768 132.825 135.022 132.825 135.283C132.825 135.455 132.793 135.627 132.728 135.786C132.664 135.946 132.57 136.091 132.451 136.214C132.332 136.336 132.191 136.433 132.035 136.499C131.879 136.565 131.712 136.6 131.544 136.6H131.538ZM145.7 118.348C145.955 118.348 146.203 118.425 146.415 118.57C146.626 118.714 146.791 118.92 146.889 119.161C146.986 119.401 147.011 119.666 146.962 119.921C146.912 120.177 146.79 120.411 146.61 120.596C146.43 120.78 146.201 120.905 145.951 120.956C145.702 121.007 145.443 120.981 145.208 120.881C144.973 120.781 144.772 120.613 144.631 120.396C144.49 120.179 144.414 119.925 144.414 119.664C144.414 119.315 144.55 118.98 144.791 118.733C145.032 118.486 145.359 118.348 145.7 118.348ZM150.396 105.666C150.141 105.667 149.891 105.591 149.679 105.446C149.467 105.302 149.301 105.096 149.203 104.856C149.105 104.615 149.079 104.35 149.129 104.094C149.178 103.838 149.301 103.603 149.481 103.418C149.661 103.234 149.891 103.108 150.141 103.058C150.391 103.007 150.65 103.033 150.885 103.134C151.12 103.234 151.321 103.404 151.462 103.621C151.603 103.838 151.678 104.094 151.677 104.354C151.675 104.701 151.54 105.034 151.3 105.279C151.059 105.523 150.734 105.661 150.396 105.661V105.666Z" fill="white"/>
</g>
<path d="M106.668 102.999C106.668 103.012 106.662 103.1 106.649 103.264H104.016C104.063 103.475 104.175 103.641 104.352 103.763C104.529 103.885 104.749 103.946 105.012 103.946C105.193 103.946 105.353 103.921 105.491 103.87C105.633 103.815 105.765 103.731 105.885 103.618L106.422 104.186C106.094 104.552 105.616 104.735 104.986 104.735C104.594 104.735 104.246 104.661 103.945 104.514C103.643 104.363 103.41 104.154 103.246 103.889C103.082 103.624 103 103.323 103 102.986C103 102.654 103.08 102.355 103.239 102.09C103.403 101.82 103.625 101.612 103.906 101.465C104.19 101.313 104.507 101.237 104.857 101.237C105.197 101.237 105.506 101.309 105.782 101.452C106.058 101.595 106.273 101.801 106.429 102.071C106.588 102.336 106.668 102.645 106.668 102.999ZM104.863 101.982C104.635 101.982 104.443 102.046 104.287 102.172C104.132 102.298 104.037 102.471 104.003 102.69H105.717C105.683 102.475 105.588 102.304 105.432 102.178C105.277 102.048 105.087 101.982 104.863 101.982ZM107.34 100H108.349V104.685H107.34V100ZM112.695 102.999C112.695 103.012 112.689 103.1 112.676 103.264H110.043C110.09 103.475 110.202 103.641 110.379 103.763C110.556 103.885 110.776 103.946 111.039 103.946C111.22 103.946 111.38 103.921 111.518 103.87C111.66 103.815 111.792 103.731 111.912 103.618L112.449 104.186C112.122 104.552 111.643 104.735 111.013 104.735C110.621 104.735 110.273 104.661 109.972 104.514C109.67 104.363 109.437 104.154 109.273 103.889C109.109 103.624 109.027 103.323 109.027 102.986C109.027 102.654 109.107 102.355 109.266 102.09C109.43 101.82 109.652 101.612 109.933 101.465C110.217 101.313 110.534 101.237 110.884 101.237C111.224 101.237 111.533 101.309 111.809 101.452C112.085 101.595 112.3 101.801 112.456 102.071C112.615 102.336 112.695 102.645 112.695 102.999ZM110.89 101.982C110.662 101.982 110.47 102.046 110.314 102.172C110.159 102.298 110.064 102.471 110.03 102.69H111.744C111.71 102.475 111.615 102.304 111.459 102.178C111.304 102.048 111.114 101.982 110.89 101.982ZM115.049 104.735C114.678 104.735 114.344 104.661 114.046 104.514C113.753 104.363 113.522 104.154 113.354 103.889C113.19 103.624 113.108 103.323 113.108 102.986C113.108 102.65 113.19 102.349 113.354 102.083C113.522 101.818 113.753 101.612 114.046 101.465C114.344 101.313 114.678 101.237 115.049 101.237C115.416 101.237 115.735 101.313 116.006 101.465C116.283 101.612 116.483 101.825 116.608 102.102L115.825 102.513C115.644 102.201 115.383 102.046 115.043 102.046C114.779 102.046 114.562 102.13 114.389 102.298C114.217 102.466 114.13 102.696 114.13 102.986C114.13 103.277 114.217 103.506 114.389 103.674C114.562 103.843 114.779 103.927 115.043 103.927C115.388 103.927 115.649 103.771 115.825 103.46L116.608 103.876C116.483 104.146 116.283 104.356 116.006 104.508C115.735 104.659 115.416 104.735 115.049 104.735ZM119.485 104.52C119.385 104.592 119.262 104.647 119.116 104.685C118.974 104.718 118.823 104.735 118.663 104.735C118.249 104.735 117.928 104.632 117.699 104.426C117.475 104.22 117.363 103.916 117.363 103.517V102.121H116.826V101.364H117.363V100.537H118.372V101.364H119.239V102.121H118.372V103.504C118.372 103.647 118.409 103.759 118.482 103.839C118.559 103.914 118.667 103.952 118.805 103.952C118.965 103.952 119.101 103.91 119.213 103.826L119.485 104.52ZM121.015 101.736C121.136 101.572 121.297 101.448 121.5 101.364C121.707 101.28 121.944 101.237 122.212 101.237V102.147C122.1 102.138 122.024 102.134 121.985 102.134C121.696 102.134 121.47 102.214 121.306 102.374C121.142 102.53 121.06 102.765 121.06 103.081V104.685H120.051V101.288H121.015V101.736ZM124.436 104.735C124.07 104.735 123.74 104.661 123.447 104.514C123.158 104.363 122.931 104.154 122.767 103.889C122.603 103.624 122.522 103.323 122.522 102.986C122.522 102.65 122.603 102.349 122.767 102.083C122.931 101.818 123.158 101.612 123.447 101.465C123.74 101.313 124.07 101.237 124.436 101.237C124.803 101.237 125.131 101.313 125.42 101.465C125.709 101.612 125.935 101.818 126.099 102.083C126.263 102.349 126.345 102.65 126.345 102.986C126.345 103.323 126.263 103.624 126.099 103.889C125.935 104.154 125.709 104.363 125.42 104.514C125.131 104.661 124.803 104.735 124.436 104.735ZM124.436 103.927C124.695 103.927 124.907 103.843 125.07 103.674C125.239 103.502 125.323 103.272 125.323 102.986C125.323 102.7 125.239 102.473 125.07 102.304C124.907 102.132 124.695 102.046 124.436 102.046C124.178 102.046 123.964 102.132 123.796 102.304C123.628 102.473 123.544 102.7 123.544 102.986C123.544 103.272 123.628 103.502 123.796 103.674C123.964 103.843 124.178 103.927 124.436 103.927ZM128.947 101.338C129.266 101.338 129.555 101.41 129.814 101.553C130.073 101.692 130.276 101.89 130.422 102.147C130.569 102.403 130.642 102.696 130.642 103.024C130.642 103.352 130.569 103.645 130.422 103.902C130.276 104.158 130.073 104.358 129.814 104.502C129.555 104.645 129.266 104.716 128.947 104.716C128.663 104.716 128.406 104.657 128.177 104.539C127.953 104.422 127.772 104.251 127.634 104.028V104.685H127.194V100H127.653V101.995C127.796 101.78 127.977 101.618 128.197 101.509C128.421 101.395 128.671 101.338 128.947 101.338ZM128.915 104.318C129.152 104.318 129.368 104.266 129.562 104.161C129.756 104.051 129.907 103.898 130.015 103.7C130.127 103.502 130.183 103.277 130.183 103.024C130.183 102.772 130.127 102.546 130.015 102.349C129.907 102.151 129.756 101.999 129.562 101.894C129.368 101.785 129.152 101.73 128.915 101.73C128.673 101.73 128.456 101.785 128.262 101.894C128.072 101.999 127.921 102.151 127.809 102.349C127.701 102.546 127.647 102.772 127.647 103.024C127.647 103.277 127.701 103.502 127.809 103.7C127.921 103.898 128.072 104.051 128.262 104.161C128.456 104.266 128.673 104.318 128.915 104.318ZM134.645 101.364V104.685H134.205V104.079C134.084 104.281 133.918 104.438 133.707 104.552C133.496 104.661 133.254 104.716 132.982 104.716C132.538 104.716 132.187 104.596 131.928 104.356C131.673 104.112 131.546 103.757 131.546 103.289V101.364H132.006V103.245C132.006 103.594 132.094 103.86 132.271 104.041C132.448 104.222 132.7 104.312 133.028 104.312C133.386 104.312 133.668 104.207 133.875 103.996C134.082 103.782 134.186 103.485 134.186 103.106V101.364H134.645ZM138.791 101.364L137.089 105.082C136.951 105.394 136.792 105.615 136.611 105.745C136.43 105.876 136.212 105.941 135.957 105.941C135.793 105.941 135.64 105.916 135.498 105.865C135.356 105.815 135.233 105.739 135.129 105.638L135.343 105.303C135.515 105.472 135.722 105.556 135.964 105.556C136.119 105.556 136.251 105.514 136.358 105.43C136.471 105.345 136.574 105.202 136.669 105L136.818 104.678L135.297 101.364H135.776L137.057 104.186L138.338 101.364H138.791Z" fill="white"/>
<defs>
<filter id="filter0_d" x="0" y="0" width="335.057" height="210.273" filterUnits="userSpaceOnUse" color-interpolation-filters="sRGB">
<feFlood flood-opacity="0" result="BackgroundImageFix"/>
<feColorMatrix in="SourceAlpha" type="matrix" values="0 0 0 0 0 0 0 0 0 0 0 0 0 0 0 0 0 0 127 0"/>
<feOffset dx="1" dy="3"/>
<feGaussianBlur stdDeviation="5"/>
<feColorMatrix type="matrix" values="0 0 0 0 0 0 0 0 0 0 0 0 0 0 0 0 0 0 0.25 0"/>
<feBlend mode="normal" in2="BackgroundImageFix" result="effect1_dropShadow"/>
<feBlend mode="normal" in="SourceGraphic" in2="effect1_dropShadow" result="shape"/>
</filter>
<filter id="filter1_d" x="103.723" y="100.49" width="51.2763" height="40.5119" filterUnits="userSpaceOnUse" color-interpolation-filters="sRGB">
<feFlood flood-opacity="0" result="BackgroundImageFix"/>
<feColorMatrix in="SourceAlpha" type="matrix" values="0 0 0 0 0 0 0 0 0 0 0 0 0 0 0 0 0 0 127 0"/>
<feOffset dy="1"/>
<feGaussianBlur stdDeviation="1"/>
<feColorMatrix type="matrix" values="0 0 0 0 0 0 0 0 0 0 0 0 0 0 0 0 0 0 0.25 0"/>
<feBlend mode="normal" in2="BackgroundImageFix" result="effect1_dropShadow"/>
<feBlend mode="normal" in="SourceGraphic" in2="effect1_dropShadow" result="shape"/>
</filter>
<linearGradient id="paint0_linear" x1="181.704" y1="89.2443" x2="181.012" y2="-50.3425" gradientUnits="userSpaceOnUse">
<stop stop-color="white"/>
<stop offset="1" stop-color="#EEEEEE"/>
</linearGradient>
<linearGradient id="paint1_linear" x1="257.923" y1="94.9305" x2="258.474" y2="-16.2278" gradientUnits="userSpaceOnUse">
<stop stop-color="white"/>
<stop offset="1" stop-color="#EEEEEE"/>
</linearGradient>
<linearGradient id="paint2_linear" x1="57.1534" y1="83.6865" x2="57.7147" y2="-29.6413" gradientUnits="userSpaceOnUse">
<stop stop-color="white"/>
<stop offset="1" stop-color="#EEEEEE"/>
</linearGradient>
<linearGradient id="paint3_linear" x1="181.843" y1="198.626" x2="181.835" y2="176.047" gradientUnits="userSpaceOnUse">
<stop stop-color="white"/>
<stop offset="1" stop-color="#EEEEEE"/>
</linearGradient>
</defs>
</svg>
