<svg width="19" height="19" viewBox="0 0 19 19" fill="none" xmlns="http://www.w3.org/2000/svg">
<circle cx="9.5" cy="9.5" r="9" stroke="white"/>
<path d="M9.03739 13.9094L9.03667 13.9087C7.61029 12.6271 6.46719 11.5988 5.67465 10.6388C4.88772 9.6855 4.5 8.8615 4.5 7.99728C4.5 6.59927 5.60279 5.5 7.025 5.5C7.83232 5.5 8.61368 5.87481 9.1208 6.46486L9.5 6.90608L9.8792 6.46486C10.3863 5.87481 11.1677 5.5 11.975 5.5C13.3972 5.5 14.5 6.59927 14.5 7.99728C14.5 8.8615 14.1123 9.68553 13.3252 10.6396C12.5327 11.6003 11.3897 12.6299 9.96342 13.9141C9.96326 13.9142 9.9631 13.9144 9.96293 13.9145L9.50127 14.3278L9.03739 13.9094Z" stroke="white"/>
</svg>
