<svg data-id={props.data.id} width="39" height="39" viewBox="0 0 39 39" fill="none" xmlns="http://www.w3.org/2000/svg">
  <circle cx="19.5" cy="19.5" r="18.5" stroke="white" stroke-width="2"/>
  <path d="M18.3277 29.7212L18.3263 29.72C15.0861 27.03 12.4817 24.8655 10.6754 22.8436C8.87698 20.8306 8 19.0988 8 17.2943C8 14.403 10.4924 12 13.875 12C15.7787 12 17.5988 12.8161 18.7678 14.0729L19.5 14.8601L20.2322 14.0729C21.4012 12.8161 23.2213 12 25.125 12C28.5076 12 31 14.403 31 17.2943C31 19.0988 30.123 20.8307 28.3243 22.8453C26.518 24.8686 23.9139 27.0357 20.674 29.7312C20.6736 29.7315 20.6733 29.7318 20.6729 29.7321L19.5024 30.7002L18.3277 29.7212Z" stroke="white" stroke-width="2"/>
</svg>
